<svg xmlns="http://www.w3.org/2000/svg" xmlns:xlink="http://www.w3.org/1999/xlink" viewBox="0 0 451.07 133.54"><defs><style>.cls-1{fill:none;}.cls-2,.cls-5{fill:#1cc2ae;}.cls-3{clip-path:url(#clip-path);}.cls-4{fill:#14b5a2;stroke:#000;stroke-miterlimit:22.93;stroke-width:0.57px;}.cls-10,.cls-5,.cls-6,.cls-8{fill-rule:evenodd;}.cls-6,.cls-7{fill:#0b9e8a;}.cls-8{fill:#97fcf0;}.cls-10,.cls-9{fill:#fff;}</style><clipPath id="clip-path" transform="translate(17.3 3.07)"><rect class="cls-1" width="430.87" height="125.07"/></clipPath></defs><g id="Layer_2" data-name="Layer 2"><g id="OBJECTS"><rect class="cls-2" x="17.3" y="3.07" width="430.87" height="125.07"/><g class="cls-3"><rect class="cls-4" x="13.72" y="0.28" width="436.91" height="132.97"/><path class="cls-5" d="M26.21,89.57C30,83.39,38.12,79.11,47.56,79.11a27.25,27.25,0,0,1,17,5.61,40.18,40.18,0,0,1,12.1-1.83c12.86,0,23.94,5.87,29,14.32a27.25,27.25,0,0,1,17-5.56,30.19,30.19,0,0,1,4.9.4c.9-9.43,11.09-16.86,23.52-16.86,8.94,0,16.72,3.84,20.72,9.5,5.85-5,14.28-8.07,23.65-8.07,12.09,0,22.61,5.18,28,12.83a37.47,37.47,0,0,1,21.7-6.56,38.81,38.81,0,0,1,17.54,4c1.6-8.86,11.45-15.68,23.36-15.68a28.61,28.61,0,0,1,13.11,3.08,14.62,14.62,0,0,1-.16-2.1c0-10.07,10.57-18.23,23.59-18.23,9.63,0,17.92,4.46,21.58,10.85a39.91,39.91,0,0,1,13.65-2.35c13.38,0,24.83,6.34,29.6,15.34a25.86,25.86,0,0,1,9.34-1.7c10.59,0,19.33,6.08,20.69,14,7.82,2.33,13.36,8.19,13.36,15v19.9H0v-19.9C0,96.26,9.35,89,20.87,89A27.24,27.24,0,0,1,26.21,89.57Z" transform="translate(17.3 3.07)"/><path class="cls-6" d="M67.27,94l.15-1.16s-.61,0-.65-.35-1-.47-1-.47.19-.45-.09-.62a1.69,1.69,0,0,0-.43-.21L67,87.83l.44,0,1.51-2A12.2,12.2,0,0,1,67.83,85c-.54-.47-.61-1.25-1-1.55s.32-.12.87.15,1.13.29.82-.3-.36-1.21.39-.64S70.57,84,70.57,84s-.28-.53-.39-.79.68-1.12.45-1.51,0-.78.42-.54.57,1,.57,1a4,4,0,0,1,0-1.56c.21-.64.56-1.12,1.06-1s.38.53.6,1,.32.86.05,1.17a.87.87,0,0,0-.26.58.78.78,0,0,1,.67.41c.16.39.33.72.33.72s.93-.63,1-.43,1.36-.32,1.63-.54.37.13,0,.55a5.5,5.5,0,0,0-.65,1.21s1.07-.29.76,0a6.49,6.49,0,0,1-1.49,1.29c-.42.16-.75.28-.38.45a1.65,1.65,0,0,1,.52.34l5.76.79s.58-.15.41-.44a11.92,11.92,0,0,1-.9-2.07c0-.29.68.21,1,.51s.81.61.62.18a12.34,12.34,0,0,0-.62-1.54c-.23-.33-.15-.65.26-.19s1.06.78,1.48,1.21a2.37,2.37,0,0,1,.47.59,5.9,5.9,0,0,1,.4-1.67c.29-.55,1.15-1.53,1.77-1.19s.6.92.27,1.14S85.76,85,85.76,85a1.67,1.67,0,0,0,.95-.36c.37-.35.88-.34.66.14s-.63,1.19-.63,1.19.87-.11,1.08-.4.52.31.19.52-.26.55-.55,1,0,.68.17.84a.78.78,0,0,0,.49.18l8.28,1.28,0-1.69a.91.91,0,0,0-.58-.37.76.76,0,0,1-.44-.11s.15-.22,0-.32l-.4-.21.87-.56a.29.29,0,0,0-.23-.33l-.41-.11,1.68-1.32.44.08,1.54-1.16L98.71,83l1.62-1.39h1.21a21,21,0,0,1,3.28-2.38,16,16,0,0,1,3.74-1.63.78.78,0,0,1,.12-.74,1.48,1.48,0,0,1,.56-.37s-.41-1.8.46-2a1,1,0,0,1,1.41.72.86.86,0,0,1-.14.67s.31.63,0,.72a2.89,2.89,0,0,1-.58.11,1.89,1.89,0,0,1,.42.47c.08.19.61.27,1.13.09s.51,0,1.06-.17,1.07-.2.8,0a2,2,0,0,0-.34.32,7.07,7.07,0,0,1,1.41.23,8.42,8.42,0,0,1,1.21.51.68.68,0,0,0-.11-.71c-.3-.33.23-.61.39-.09s.76.86.38.43.23-.54.41,0a6.08,6.08,0,0,0,.44,1l.74.34a.91.91,0,0,0,.12-.84c-.19-.39-.54-1.34-.12-.94s1.1-.82,1-.17.33.72.29,1.24.87.73.84,1.19a2.08,2.08,0,0,0,.28,1s.92-.34,1.12,0a5.28,5.28,0,0,1,.35,1.27s.71.9,1.3,1.56a8.85,8.85,0,0,1,1,1.42l-1.46,1.36,0,5,.58.83.06,1.46,7.37,1a.84.84,0,0,0-.14-.72c-.27-.27.11-.74-.22-1s0-.55-.25-1-.64-.86-.07-.49l1.89,1.25a3.69,3.69,0,0,1,0-.81c0-.42-.32-.85.12-1.23s1.24-.52,1.54-.25-.09.38-.3.67,0,.42-.05.71a8.26,8.26,0,0,1-.15.87,6.48,6.48,0,0,0,1.37-.61c.44-.31.74-.11.4.24s-.16.45-.41.86,0,.46,0,1.14.13.81.13.81l2.93.43s.28-.35,0-1.1-.65-2.06-.21-1.63A11.49,11.49,0,0,1,138.65,94s.15-.81.6-.86a1.86,1.86,0,0,1,.6,0,1.93,1.93,0,0,1,.1-1.46.81.81,0,0,1,1.2-.26c.33.24-.37.28-.18.74s-.34,1.16-.34,1.16.5.18.53.6a2.58,2.58,0,0,1-.12.9l.78.18,0,.78-.4.35.11,1.5,2.17.34-.74.6-.11.48-.74,0,0,.52-.65.27-.05.72.43.66-.33.18,0,.71.39.31s-.19.51,0,.74.25.49,0,.58-.29.48-.29.48l.23,13.66.26.39,0,.72v1.72H138l.11-9.73-3.64-.26-.21,10h-3.55l.09-12.15c.06-6.71-6.64-6.87-6.87-.39l-.44,12.54h-6.39l.52-14.93c.08-2.36-1.63-4.67-4-4.72h0a4.44,4.44,0,0,0-4.51,4.19l-.51,15.46H94.42l1-13.74c.61-8.39-9.06-9.51-9.75-1l-1.2,14.77H78.71l1.36-13.39-7.36-.69-1.36,14.08H63.49l.43-4,.74-.56,2-18.2s-.8-.32-.44-1-.14-.71.2-1l.57-.44,0-.75-.35,0Z" transform="translate(17.3 3.07)"/><path class="cls-6" d="M429,120.67h2.73V81.5h.52l0-10.08L431,70.71l0-2.95a17.84,17.84,0,0,1-2-3.3v7.18c.81.22,1.52,1.38,1.66,2.77.16,1.56-.45,2.82-1.37,2.82a1.45,1.45,0,0,1-.29,0v43.48Zm0-45.83V74l.07.24,1.21-.86-1.15,1.12.16.61-.25,0Zm-8,45.83h8V77.19c-.8-.23-1.51-1.39-1.66-2.78-.15-1.55.46-2.81,1.38-2.81a.9.9,0,0,1,.28,0V64.46c-.21-.42-.48-.94-.88-1.65V59.48c1.65.24-.34-1.7-1.25-3.14a16.14,16.14,0,0,1-1.76-7.08V49.2a1.66,1.66,0,0,0-.2-.88.7.7,0,0,0,.21-.53c0-.33-.17-.59-.39-.59s-.38.26-.38.59a.66.66,0,0,0,.2.53,1.65,1.65,0,0,0-.21.88v.08c0,2.2-.48,3.76-1.75,6.77-.82,1.93-1.6,2.89-1.64,3.27v0c0,.17.26.19.81.11l0,3.33c-.34.59-.59,1-.79,1.44v7.44l.29,0c1.29,0,2.21,1.29,2.05,2.89A3.1,3.1,0,0,1,421,77.43v43.24ZM429,74v.89l0-.24-.34.34-.17-.29.46-.33-.25-1.65L429,74Zm-8,1.27V72.85l.11,1.51,1.71-.76-1.7,1,0,.61Zm-3,45.45h3V77.43a1.37,1.37,0,0,1-.29,0c-1.29,0-2.2-1.29-2-2.89A3.12,3.12,0,0,1,421,71.69V64.25a19.35,19.35,0,0,1-2.13,3.51l0,3.18-1.31.48,0,10.08H418v39.17Zm3-61.35v0ZM421,73v2.24h-.15l0-.47-.5.31-.14-.3.65-.29Z" transform="translate(17.3 3.07)"/><path class="cls-6" d="M361.9,120.67l0-1.8h-1.19l-.38-4.7s-1.24,0-1.58,0-.55-.19-1,0-.54,0-1.07,0-.32,2-.32,2l-1.22-1.07-.75-.13v-.7L352,76.1l-.14-.51.09-.25.47-.64,1.73-.77V72.76l-3.43-2.45,0-.36-1.54-1.45-1-.11-.27-1.64-1-.46a1.88,1.88,0,0,0-1.22.46,1.16,1.16,0,0,1-.77.36v8.55l.78-.28.85.48.12,18.71-1.75.44V98.1l1.77-.34.11,17.27-1.88.08v5.56Zm-17-53.56a1.53,1.53,0,0,0-.46.18c-.58.34-1.89.63-2.16.95a.59.59,0,0,1-.6.22l-.79.42-.5,0-.74.39-.14.15v9.22l.5-.2,0-1,4.92-1.78V67.11Zm-5.39,53.56h5.39v-5.56l-.94,0-1-15.41.58-1.39,1.31-.25V95l-2.83.72a4.09,4.09,0,0,1-1.8.47c-.29,0-.54,0-.76,0v2.9l.55-.1.63.94-.4,15.32-.78,0Zm0-51.23-.17.19-.4-.11-3,1.45-1.7,2.71,0,.42-.75.22h-1.4l-.32.17v6l1.54-.55-.38,17.77-1.16.26v2.74l1.09-.21-.32,15.18-.77,0v5h7.78v-5.34l-.88,0-.29-16,1.17-.23v-2.9a5,5,0,0,0-.82.12l-.4.09L338,79.28l1.54-.62Zm-7.78,5-1.22.67s-.31.55-.56.42-.36-.08-.36-.08l-1.22.76s.05.41-.47.39h-.25v7.1l1.09-1.33,0-.91,3-1.08v-6Zm-4.08,46.19h4.08v-5l-1.07,0,0-13.59.81-1.39.29-.06V97.91l-1.52.34a9.56,9.56,0,0,0-1.57-.16l-1,0v3.33l.3-.06.28.8-.37,13.63h-.21Zm0-44a1.85,1.85,0,0,0-.62.13l-1.1.66-.05.37-.9,0-1.19.66-1.08,0-1.26.54v5.15l1.61-.59-.89,14.67h-.28l-.44,0v2.38l.57.08-.21,3.32-.36,0v1.68l.27-.06-.24,3.84h0v11.28h6.2v-4.85l-.57,0,.13-14.32.44-.08V98.11h-.4l.13-14,.27-.34ZM321.46,79l-.62.27v5.11l.62-.23V79Zm-.62,41.66h.62V109.39l-.62,0v1.84l.55-.14-.31,5h-.24v4.57Zm.62-22.46v2.38l-.4,0-.17,3.32.57.08v1.68l-.62.14V98.17Zm-.62-18.93-.9.38s-.27,1-.85.83a5.61,5.61,0,0,0-.64-.13l-1.24.47s-.44.56-.58.49a.68.68,0,0,0-.29-.08s-1,.79-1.19.74-.54.32-.54.32l-.85,0-1.37.73s-.08.85-.45.72l-.17,0v5.43l.42-.3V87.52l2.17-.79-.95,11.61-1.65.54v1l.45.48-.45,4.48v15.82h9.07V116.1l-.54,0,.23-4.84.31-.08v-1.84h-.21l.17-3.58h0V98.17l-1-.08-2-.81.3-10L320,85.91v-1.2l.88-.32Zm-9.07,4.4a1.22,1.22,0,0,0-.44-.06l-1.44.66-.42,0-1.44.58s-.07.46-.47.38a1.43,1.43,0,0,0-.5,0,7.83,7.83,0,0,1-1,.53c-.42.17-1,.45-1,.45s-.07.56-.42.52v5.09l1.06-.81v-1.1L307,89.4,304.67,112v8.63h7.1V104.85l-1.2,11.67-1.41.06,1.43-26.67,1.18-.8V83.68Zm0,15.2v1l-.74-.78Zm-7.1-12.22h0a3.94,3.94,0,0,0-.79-.05l-.52.32s-.06.71-.53.68-1-.12-1-.12l-1.6.72s-.47.85-1,.81l-.46,0V94l1.19-.91V91.94l1-.39-2.24,18.25v10.87h5.86V112l-.49,4.75-1.83.07,1.77-24.7.55-.41ZM298.81,89l-.4,0-1.64.81s-.2.48-.61.36-1.16.53-1.16.53-.23.34-.52.3a1.56,1.56,0,0,0-.73.29v4.67l0-.31,1.3-.84v-1l.7-.25-2,14.79v12.42h5.06V109.8l-.89,7.24-1.35.06,2.07-22.94.17-.12Zm-5.06,2.25-.32.2-.32.47-.57-.58-1.18.58s0,.3-.27.25a2.77,2.77,0,0,0-.52-.06l-.7.27s-.34.35-.61.26l-.11,0v8.46l.38-3.54,1.36-1.09-1.74,12v12.26h4.6V108.25l-1.24,9-.79,0,2-21.41Zm-4.6,1.37a.68.68,0,0,0-.43.23v.83s0,.84-.28,1a.49.49,0,0,0-.29.45l-1,.09-.11.61.1.69,0,.78-3.32,20-.4.36-.08,1.2h-.52l-.48.89v.94h6.89V108.41l-1.3,9-.43,0,1.73-16.43Z" transform="translate(17.3 3.07)"/><path class="cls-6" d="M3.21,120.67H-8.65l.35-3.46h.88l1.58-13.33,1-.23,0-1.24,1.91-.58c.19-1.27.72-4.79.89-6.52.2-2.14.53-8.37.53-8.37a1.93,1.93,0,0,1-.36-1.33c.06-.84.16-2.87.16-2.87s-.34,0-.32-.49a4.56,4.56,0,0,0,0-.66s-.54,0-.52-.49A32.3,32.3,0,0,1-2.23,77c.24-1.16.08-1.47.08-1.47a16.26,16.26,0,0,0-3.8-1.33c-1,0-3,.28-3.6-.28a33.22,33.22,0,0,1-2-3.15,16.28,16.28,0,0,0-2.28-.14,17.53,17.53,0,0,1-2.49-.54c-.27-.09-.26-.19-.26-.19a.9.9,0,0,1-.43-.15c-.17-.13-.08-.17-.08-.17s-.33-.22-.17-.41a.32.32,0,0,1,.31-.15s0-.07.25-.11a6.76,6.76,0,0,1,.91,0l.56,0s-.36-.32-.23-.47.58-.06.89,0,.82,0,1,0a3.24,3.24,0,0,1,.94.41c.18.17.27.4.48.43l.33,0s-.1-.24.23-.17a7.79,7.79,0,0,0,1.58.25c.64,0,1.81-.1,2.65-.1s1.66,0,1.66,0a4.5,4.5,0,0,0,.9-.34,4.46,4.46,0,0,1,1.64-.19c.64,0,1.7-.26,2.15-.3a1.32,1.32,0,0,1,.56,0,2.82,2.82,0,0,0,.77-.11c.31-.11.43,0,.43,0l.67-.21a.28.28,0,0,1,.27.08s.21-1.33.33-2.61S2.23,62,4.1,62a1.47,1.47,0,0,1,1.57,1.45c.11.91.17,3,.16,3.5s0,1.37,0,1.37,2.09.4,3.74.9a16.65,16.65,0,0,0,3,.82c.48,0,.35-.27,1.58-.27a12.85,12.85,0,0,0,2.89,0c1.06-.23,1.43-.69,1.42-.46s.17.18.44,0,.76-.69,1.29-.69,1.1-.22,1.57-.25.61,0,.45.21-.16.24-.16.24,1.08-.16,1.31-.18a.28.28,0,0,1,.3.18s.31-.08.33.19a.25.25,0,0,1-.21.29s.07.24-.06.29a2.57,2.57,0,0,1-.47.11s-.05.13-.34.24a16.28,16.28,0,0,1-3,.82c-.62,0-1.31-.08-1.52.22s-.16.9-.51,1.59-.95,1.6-1.47,1.65-4,.43-5.17.74-2.45.62-2.45.62S9,79.28,9,81.2s.16,5.6.15,6-.43.84-.45,1.4.1,3.22.09,3.61-.5.8-.5.8,0,2.8,0,4c0,.94.26,3.81.37,4.84l2.11.65,0,1.24.95.23.74,13.33h.88l.13,3.46Z" transform="translate(17.3 3.07)"/><polygon class="cls-6" points="62.16 81.91 85.82 123.74 36.6 123.74 62.16 81.91"/><polygon class="cls-6" points="45.2 91.54 63.41 123.74 25.52 123.74 45.2 91.54"/><rect class="cls-7" x="382.18" y="113.44" width="1.45" height="9.59"/><rect class="cls-7" x="414.07" y="113.44" width="1.45" height="9.59"/><path class="cls-7" d="M382,101.67a8.45,8.45,0,0,1-16.9,0h.95a7.5,7.5,0,1,0,15,0Z" transform="translate(17.3 3.07)"/><rect class="cls-7" x="375.01" y="112.72" width="63.62" height="1.45"/><rect class="cls-7" x="382.52" y="104.74" width="0.77" height="12.4"/><path class="cls-7" d="M398,101.67a8.45,8.45,0,0,1-16.9,0H382a7.5,7.5,0,1,0,15,0Z" transform="translate(17.3 3.07)"/><rect class="cls-7" x="414.41" y="104.74" width="0.77" height="12.4"/><rect class="cls-7" x="430.02" y="113.44" width="1.45" height="9.59"/><path class="cls-7" d="M413.91,101.67a8.45,8.45,0,1,1-16.89,0h1a7.5,7.5,0,1,0,15,0Z" transform="translate(17.3 3.07)"/><rect class="cls-7" x="430.36" y="104.74" width="0.77" height="12.4"/><path class="cls-7" d="M382,101.67a17.64,17.64,0,0,1-.66,4.81,13.51,13.51,0,0,1-1.89,4.07l-.77-.54a12.61,12.61,0,0,0,1.75-3.79,16.51,16.51,0,0,0,.62-4.55Zm-14.35,8.89a13.75,13.75,0,0,1-1.89-4.07,17.71,17.71,0,0,1-.66-4.82h.95a16.64,16.64,0,0,0,.62,4.56,12.5,12.5,0,0,0,1.76,3.79Z" transform="translate(17.3 3.07)"/><path class="cls-7" d="M398,101.67a17.64,17.64,0,0,1-.66,4.81,13.75,13.75,0,0,1-1.89,4.07l-.77-.54a12.61,12.61,0,0,0,1.75-3.79,16.51,16.51,0,0,0,.62-4.55Zm-14.35,8.89a13.75,13.75,0,0,1-1.89-4.07,17.71,17.71,0,0,1-.66-4.82H382a16.64,16.64,0,0,0,.62,4.56A12.5,12.5,0,0,0,384.4,110Z" transform="translate(17.3 3.07)"/><path class="cls-7" d="M413.92,101.67a17.64,17.64,0,0,1-.66,4.81,13.75,13.75,0,0,1-1.89,4.07l-.77-.54a12.73,12.73,0,0,0,1.75-3.79,16.51,16.51,0,0,0,.62-4.55Zm-14.35,8.89a13.75,13.75,0,0,1-1.89-4.07,17.33,17.33,0,0,1-.66-4.82h1a16.64,16.64,0,0,0,.62,4.56,12.73,12.73,0,0,0,1.75,3.79Z" transform="translate(17.3 3.07)"/><rect class="cls-7" x="382.01" y="104" width="1.78" height="0.89"/><rect class="cls-7" x="382.52" y="103.48" width="0.77" height="0.96"/><rect class="cls-7" x="413.91" y="104" width="1.78" height="0.89"/><rect class="cls-7" x="414.41" y="103.48" width="0.77" height="0.96"/><rect class="cls-7" x="429.86" y="104" width="1.78" height="0.89"/><rect class="cls-7" x="430.36" y="103.48" width="0.77" height="0.96"/><rect class="cls-7" x="398.12" y="113.44" width="1.45" height="9.59"/><rect class="cls-7" x="398.46" y="104.74" width="0.77" height="12.4"/><rect class="cls-7" x="397.96" y="104" width="1.78" height="0.89"/><rect class="cls-7" x="398.46" y="103.48" width="0.77" height="0.96"/><path class="cls-6" d="M382.9,120Z" transform="translate(17.3 3.07)"/><path class="cls-7" d="M350.12,101.67a7.5,7.5,0,1,0,15,0h.95a8.45,8.45,0,0,1-16.9,0Z" transform="translate(17.3 3.07)"/><path class="cls-7" d="M350.12,101.67a16.51,16.51,0,0,0,.62,4.55,12.61,12.61,0,0,0,1.75,3.79l-.77.54a13.75,13.75,0,0,1-1.89-4.07,17.64,17.64,0,0,1-.66-4.81ZM362.74,110a12.5,12.5,0,0,0,1.76-3.79,16.64,16.64,0,0,0,.62-4.56h.95a17.71,17.71,0,0,1-.66,4.82,13.75,13.75,0,0,1-1.89,4.07Z" transform="translate(17.3 3.07)"/><path class="cls-7" d="M413.91,101.67a7.51,7.51,0,0,0,15,0h.94a8.45,8.45,0,1,1-16.89,0Z" transform="translate(17.3 3.07)"/><path class="cls-7" d="M413.92,101.67a16.91,16.91,0,0,0,.61,4.55,12.87,12.87,0,0,0,1.76,3.79l-.78.54a13.75,13.75,0,0,1-1.89-4.07,17.64,17.64,0,0,1-.65-4.81ZM426.54,110a13,13,0,0,0,1.76-3.79,16.64,16.64,0,0,0,.62-4.56h.94a17.71,17.71,0,0,1-.65,4.82,13.52,13.52,0,0,1-1.9,4.07Z" transform="translate(17.3 3.07)"/><rect class="cls-7" x="5.76" y="121.41" width="445.31" height="6.73"/><path class="cls-6" d="M260.41,114.28V108.8h0l0-.1v-3.57l.76,3.87.85.23-.82-4.15a.52.52,0,0,0-.48-.39h0a.31.31,0,0,0-.31.21V97.52l.15.07L265,121.3h-1.12l-1-6.65a.78.78,0,0,0-.73-.66h0a.58.58,0,0,0-.59.66l1,6.65h-1.27Zm0-16.76v7.39a.36.36,0,0,0,0,.18v3.62l-.75-4.15a.67.67,0,0,0-.57-.53v-.8l.1,0-.1-.55V99.32l.45.14-.34-1.9a.31.31,0,0,0-.11-.19v-.46l1.32.61Zm0,11.28-1.08-.27-.24-1.29v6.2a.84.84,0,0,1,.39-.1h0a.94.94,0,0,1,.91.82l0,.12V108.8Zm-1.32,12.5v-4.48l.59,4.48Zm0-24.39v.46a.31.31,0,0,0-.22-.09h0a.22.22,0,0,0-.22.28l.31,1.72.13,0v3.39l-.34-1.91a.66.66,0,0,0-.62-.53H258V96.45l1,.46Zm0,6.32v.8h0a.43.43,0,0,0-.43.53l.48,2.68v6.2a.71.71,0,0,0-.34.72l.34,2.66v4.48h-1V108.23l.36.08-.36-2v-3.58l0,.19Zm-1-6.78v3.83a.42.42,0,0,0-.34.52l.34,1.94v3.58l-.43-2.44a.89.89,0,0,0-.83-.7h0a.57.57,0,0,0-.57.7l.73,4.11,1.1.24V121.3H258l-.67-7.26a1,1,0,0,0-1-1h0a.9.9,0,0,0-.7.33V98.35l.55.14-.36-2a.49.49,0,0,0-.19-.28v-.72c.82.31,1.64.63,2.45,1Zm-2.45,24.85h.5l-.5-5.32Zm0-25.83v.72a.41.41,0,0,0-.24-.08h0a.3.3,0,0,0-.3.36l.33,1.83.21,0v15.07a.88.88,0,0,0-.18.62l.18,1.94v5.32h-1.11V107.49l1.06.21-.61-4.58a.91.91,0,0,0-.45-.64V95.06Zm-1.11-.41v7.42a.81.81,0,0,0-.41-.11h0a.65.65,0,0,0-.65.75l.58,4.28.48.09V121.3h-.21l-.36-7.38a1.37,1.37,0,0,0-1.34-1.3h0a1.26,1.26,0,0,0-1.14.71V107l1.14.19-.22-4.06a1.11,1.11,0,0,0-.92-1v-8c1,.3,2,.63,3,1Zm-3,26.24h.23l-.23-4.87Zm0-27.23v8l-.17,0h0a1,1,0,0,0-1,1l.21,3.72.94.15v6.37a1.18,1.18,0,0,0-.12.59l.12,2.51v4.87h-1.16l-.16-4.48V97.14l.64.13-.44-2.47a.53.53,0,0,0-.2-.31v-.8C250.55,93.81,251,93.93,251.43,94.07Zm-1.32-.38v.8a.47.47,0,0,0-.3-.1h0a.33.33,0,0,0-.34.41l.41,2.3.23,0v19.68l-.12-3.34a1.35,1.35,0,0,0-1.33-1.31h0a1.28,1.28,0,0,0-1.28,1.31l.29,7.82h-.37V106.36c.52.06,1,.13,1.55.21l-.13-3.67a1.21,1.21,0,0,0-1.2-1.16h0l-.22,0v-1.21l1.2.2-.09-2.42a1.2,1.2,0,0,0-1.11-1.15V93C248.24,93.19,249.17,93.43,250.11,93.69Zm-7.5-.63a.66.66,0,0,1,.3.43l.47,2.57-.77-.09v5.58a1.33,1.33,0,0,1,.71-.2h0a1.46,1.46,0,0,1,1.44,1.38l.14,3.33-2.29-.24v6.45a2.15,2.15,0,0,1,1.25,1.94v7.09h3.44V106.36l-.78-.1-.12-3.36a1.12,1.12,0,0,1,.9-1.14v-1.21l-1.14-.18-.07-2a1.12,1.12,0,0,1,1.12-1.16h.09V93c-1.55-.36-3.12-.66-4.69-.91Zm-.31,2.87-.44-2.44a.43.43,0,0,1,.43-.53h0a.6.6,0,0,1,.32.1v-1a82.48,82.48,0,0,0-8.49-.88V98.9a2.16,2.16,0,0,1,2.14,2.14v4.26l-2.14-.13v6.3a2.15,2.15,0,0,1,.45,0h0a2.56,2.56,0,0,1,2.55,2.55v6.91a2.73,2.73,0,0,1,0,.41h2.49v-7.09a2.14,2.14,0,0,1,2.14-2.14h0a2,2,0,0,1,.89.2v-6.45l-.5,0-.12-3a1.31,1.31,0,0,1,.62-1.18V96Zm-8.18-4.74V98.9A2.15,2.15,0,0,0,232,101v4l2.14.1v6.3A2.55,2.55,0,0,0,232,114v6.91a2.73,2.73,0,0,0,0,.41h-2.32a2.71,2.71,0,0,0,0-.41V114a2.56,2.56,0,0,0-2.56-2.55h0a2.73,2.73,0,0,0-.41,0v-6.54l2.14,0V101a2.16,2.16,0,0,0-2.14-2.14V94.11c2.08-.07,4.14-.09,6.2-.09l-.1-2.88Zm-7.33,2.92V98.9a2.15,2.15,0,0,0-2.14,2.14v3.85l2.14,0v6.54a2.57,2.57,0,0,0-2.14,2.52v6.91a2.73,2.73,0,0,0,0,.41h-4v-7.09a2.14,2.14,0,0,0-2.14-2.14h0v-7.14l2.14,0V99.48a2.14,2.14,0,0,0-2.14-2.14h0V90.67l.18.85c1.6-.14,3.2-.25,4.78-.32l.41,3C224.9,94.18,225.85,94.14,226.79,94.11Zm-8.21-3.44v6.67a2.14,2.14,0,0,0-2.14,2.14V105l2.14-.06v7.14a2.14,2.14,0,0,0-2.14,2.14v7.09h-4.1s0-.08,0-.12l.11-7.05a2,2,0,0,0-.21-.94v-8l.92,0,.08-4.71a2,2,0,0,0-1-1.79V94.08c.67-.07,1.34-.14,2-.19l.09-5.67a2,2,0,0,0-2-2.06h-.08V80.51c1.36-.21,2.56-.42,4-.57Zm-6.33-10.16v5.65a2.12,2.12,0,0,0-2,2.06l-.1,6.1c.7-.09,1.4-.17,2.11-.24v4.54a2.09,2.09,0,0,0-1-.28h0a2.11,2.11,0,0,0-2.1,2.07l-.08,4.94,3.21-.19v8a2,2,0,0,0-1.81-1.12h0a2.11,2.11,0,0,0-2.1,2.06l-.12,7.05v.12h-2.3V105.59l.54,0,.1-4.76a1.88,1.88,0,0,0-.64-1.45V95c.61-.11,1.22-.21,1.85-.3l.11-5.34a1.86,1.86,0,0,0-1.86-1.9h-.1V72.27c1.48-.52,3-1,4.54-1.35l1.34,9.66Zm-6.33-8.24V87.42a2,2,0,0,0-1.84,1.9l-.13,6,2-.37v4.38a1.89,1.89,0,0,0-1.22-.45h0a2,2,0,0,0-1.94,1.9l-.11,5.12c1.07-.12,2.16-.22,3.27-.32V121.3h-.47a1.69,1.69,0,0,0,.08-.5l.14-6.51a1.87,1.87,0,0,0-1.86-1.9h0a2,2,0,0,0-1.95,1.9l-.08,3.92V83.15a.65.65,0,0,0,.55-.61l.14-3.4a.59.59,0,0,0-.6-.62h-.09v-4.6a44.11,44.11,0,0,1,4.14-1.66Zm-4.14,49h0Zm0-47.37v4.6a.64.64,0,0,0-.55.61l-.13,3.4a.59.59,0,0,0,.59.62h.09v35.06l-.05,2.59a1.6,1.6,0,0,0,.05.49h-1.54V106.18l.1,0,.2-4.89a1.32,1.32,0,0,0-.3-.9V96.15l1.29-.31.23-5.74a1.33,1.33,0,0,0-1.33-1.39h0l-.19,0v-14C200.75,74.42,201.26,74.17,201.78,73.93Zm-1.54.76v14A1.44,1.44,0,0,0,199,90.1l-.26,6.43,1.51-.38v4.22a1.31,1.31,0,0,0-1-.49h0a1.46,1.46,0,0,0-1.44,1.39l-.21,5.25,2.68-.34V121.3H199l.28-7a1.32,1.32,0,0,0-1.33-1.38h0a1.46,1.46,0,0,0-1.44,1.38l-.28,7h-.15v-24L197.2,97l.17-4.89a1.12,1.12,0,0,0-1.12-1.16h-.14V77.18A35.64,35.64,0,0,1,200.24,74.69Zm-4.13,2.49V90.92a1.21,1.21,0,0,0-1.06,1.15l-.2,5.61,1.26-.4v24h-1.72v-3.53l.14-3.25a1,1,0,0,0-.14-.58V107l1.08-.17.17-4.81a1.11,1.11,0,0,0-1.12-1.16h-.13V86.63a.56.56,0,0,0,.1-.28l.11-2.76a.49.49,0,0,0-.21-.41V78.46C195,78,195.53,77.59,196.11,77.18Zm-1.72,1.28v4.72a.45.45,0,0,0-.28-.09h0a.53.53,0,0,0-.52.5l-.11,2.76a.49.49,0,0,0,.48.51h0a.51.51,0,0,0,.43-.23v14.24a1.22,1.22,0,0,0-1.07,1.15l-.18,5.19,1.25-.21v6.94a1.11,1.11,0,0,0-1-.58h0a1.19,1.19,0,0,0-.82.33V98.46l.92-.33.26-4.79a1,1,0,0,0-1-1h0l-.21,0V80c.58-.54,1.19-1.06,1.8-1.55Zm0,39.31v3.53h-.15ZM192.59,80V92.33a1.12,1.12,0,0,0-.88,1l-.31,5.57,1.19-.45v15.23a1.18,1.18,0,0,0-.38.83l-.29,6.78H191V107.61l.92-.17.25-4.45a1,1,0,0,0-1-1H191V81.59C191.5,81,192,80.52,192.59,80ZM191,81.59V102a1.12,1.12,0,0,0-.9,1l-.26,4.86,1.16-.24V121.3h-.53l.36-6.48a1,1,0,0,0-1-1h-.13V99.6l.47-.2.65-4.82a.64.64,0,0,0-.65-.76h0a.9.9,0,0,0-.47.15V88.8a.3.3,0,0,0,.27-.28L190,87a.25.25,0,0,0-.26-.27h-.07V83C190.12,82.53,190.55,82.05,191,81.59ZM189.7,83v3.73a.3.3,0,0,0-.22.27l-.06,1.5a.26.26,0,0,0,.26.28h0V94a.89.89,0,0,0-.38.61l-.75,5.51,1.13-.49v14.19a1.12,1.12,0,0,0-1,1l-.35,6.48h-1.21V115a.74.74,0,0,0,0-.21v-6.35l1.52-.34.6-4.48a.64.64,0,0,0-.65-.75h0a.89.89,0,0,0-.85.75l-.62,4.59v-7.45l.37-.18.78-4.34a.57.57,0,0,0-.57-.7h0a.83.83,0,0,0-.58.25V92l1.64-7.89C189.11,83.74,189.41,83.38,189.7,83Zm-2.52,9v3.78a.81.81,0,0,0-.25.45l-.92,5.1,1.17-.58v7.45l0,.24h0v6.35a.65.65,0,0,0-.65-.54h0a.9.9,0,0,0-.69.36v-5.83l.38-.1.69-3.81a.57.57,0,0,0-.57-.7h0a.83.83,0,0,0-.5.18V98.41L187.18,92Zm0,23v6.27h-.76Zm-1.34-16.62v5.93a.86.86,0,0,0-.33.52l-.76,4.19,1.09-.28v5.83a.83.83,0,0,0-.16.39l-.76,6.31h-1.38l1-5.84a.58.58,0,0,0-.58-.7h0a.87.87,0,0,0-.82.7l-1,5.84h-1.08Z" transform="translate(17.3 3.07)"/><path class="cls-6" d="M173.69,95.34c.27,0,.4-.11.87-.11s1,.76,1,.76a9.76,9.76,0,0,1,1.06,1.39,3.3,3.3,0,0,1,.56,1.79c0,.56.84,2.08.62,3s-.81,2.38-1.38,2.59a1.73,1.73,0,0,0-1,2.25,7.32,7.32,0,0,0,3.29,2.69c.82.28.95.07,1,.56s.79,0,.74.9.59.55.73,1.31.55.66.53,1.45,1.11,1.07,1.35,1.94,1.63,1,1.62,1.83,1.18.89,1.3,1.5,1,.54,1.13,1.35,2.44.88,2.44.88l.4,2.22h-9.18s-.32-.27-1.48-.2-2.55,1-4.43,1.15-6.52-.07-8.28.47l-.09,0H135.34c.85-2.16,2-4.88,2.6-5.16,1-.47.5-2.43,1.54-2.7s.87-1.35,2-1.55,8-1.08,8-1.08,9-2.36,11.19-3,4.09-.87,4.25-2.09.2-3.37-.43-3.91-.47-2,.82-4.79.71-2.77,1.82-3.51,2.44-1.76,3.41-1.63S172.61,95.15,173.69,95.34Z" transform="translate(17.3 3.07)"/><rect class="cls-7" x="285.21" y="110.36" width="16.27" height="11.34"/><rect class="cls-7" x="286.67" y="78.72" width="13.34" height="31.65"/><rect class="cls-7" x="288.11" y="72.49" width="10.46" height="6.22"/><rect class="cls-7" x="289.35" y="69.99" width="7.99" height="2.5"/><polygon class="cls-6" points="291.2 69.99 295.48 69.99 293.34 54.66 291.2 69.99"/><rect class="cls-7" x="301.48" y="112.63" width="8.05" height="9.07"/><rect class="cls-7" x="277.16" y="112.63" width="8.05" height="9.07"/><rect class="cls-2" x="285.91" y="111.74" width="1.06" height="2.36"/><rect class="cls-2" x="285.91" y="114.95" width="1.06" height="2.36"/><rect class="cls-2" x="285.91" y="118.17" width="1.06" height="2.36"/><rect class="cls-2" x="288.21" y="111.74" width="1.06" height="2.36"/><rect class="cls-2" x="288.21" y="114.95" width="1.06" height="2.36"/><rect class="cls-2" x="288.21" y="118.17" width="1.06" height="2.36"/><rect class="cls-2" x="290.51" y="111.74" width="1.06" height="2.36"/><rect class="cls-2" x="290.51" y="114.95" width="1.06" height="2.36"/><rect class="cls-2" x="290.51" y="118.17" width="1.06" height="2.36"/><rect class="cls-2" x="292.81" y="111.74" width="1.06" height="2.36"/><rect class="cls-2" x="292.81" y="114.95" width="1.06" height="2.36"/><rect class="cls-2" x="292.81" y="118.17" width="1.06" height="2.36"/><rect class="cls-2" x="295.11" y="111.74" width="1.06" height="2.36"/><rect class="cls-2" x="295.11" y="114.95" width="1.06" height="2.36"/><rect class="cls-2" x="295.11" y="118.17" width="1.06" height="2.36"/><rect class="cls-2" x="297.41" y="111.74" width="1.06" height="2.36"/><rect class="cls-2" x="297.41" y="114.95" width="1.06" height="2.36"/><rect class="cls-2" x="297.41" y="118.17" width="1.06" height="2.36"/><rect class="cls-2" x="299.71" y="111.74" width="1.06" height="2.36"/><rect class="cls-2" x="299.71" y="114.95" width="1.06" height="2.36"/><rect class="cls-2" x="299.71" y="118.17" width="1.06" height="2.36"/><rect class="cls-2" x="290.53" y="103.12" width="0.75" height="1.94"/><rect class="cls-2" x="290.53" y="105.77" width="0.75" height="1.94"/><rect class="cls-2" x="290.53" y="108.42" width="0.75" height="1.94"/><rect class="cls-2" x="292.15" y="103.12" width="0.75" height="1.94"/><rect class="cls-2" x="292.15" y="105.77" width="0.75" height="1.94"/><rect class="cls-2" x="292.15" y="108.42" width="0.75" height="1.94"/><rect class="cls-2" x="293.78" y="103.12" width="0.75" height="1.94"/><rect class="cls-2" x="293.78" y="105.77" width="0.75" height="1.94"/><rect class="cls-2" x="293.78" y="108.42" width="0.75" height="1.94"/><rect class="cls-2" x="295.41" y="103.12" width="0.75" height="1.94"/><rect class="cls-2" x="295.41" y="105.77" width="0.75" height="1.94"/><rect class="cls-2" x="295.41" y="108.42" width="0.75" height="1.94"/><rect class="cls-2" x="290.53" y="97.82" width="0.75" height="1.94"/><rect class="cls-2" x="290.53" y="100.47" width="0.75" height="1.94"/><rect class="cls-2" x="292.15" y="97.82" width="0.75" height="1.94"/><rect class="cls-2" x="292.15" y="100.47" width="0.75" height="1.94"/><rect class="cls-2" x="293.78" y="97.82" width="0.75" height="1.94"/><rect class="cls-2" x="293.78" y="100.47" width="0.75" height="1.94"/><rect class="cls-2" x="295.41" y="97.82" width="0.75" height="1.94"/><rect class="cls-2" x="295.41" y="100.47" width="0.75" height="1.94"/><rect class="cls-2" x="290.53" y="92.52" width="0.75" height="1.94"/><rect class="cls-2" x="290.53" y="95.17" width="0.75" height="1.94"/><rect class="cls-2" x="292.15" y="92.52" width="0.75" height="1.94"/><rect class="cls-2" x="292.15" y="95.17" width="0.75" height="1.94"/><rect class="cls-2" x="293.78" y="92.52" width="0.75" height="1.94"/><rect class="cls-2" x="293.78" y="95.17" width="0.75" height="1.94"/><rect class="cls-2" x="295.41" y="92.52" width="0.75" height="1.94"/><rect class="cls-2" x="295.41" y="95.17" width="0.75" height="1.94"/><rect class="cls-2" x="290.53" y="87.22" width="0.75" height="1.94"/><rect class="cls-2" x="290.53" y="89.87" width="0.75" height="1.94"/><rect class="cls-2" x="292.15" y="87.22" width="0.75" height="1.94"/><rect class="cls-2" x="292.15" y="89.87" width="0.75" height="1.94"/><rect class="cls-2" x="293.78" y="87.22" width="0.75" height="1.94"/><rect class="cls-2" x="293.78" y="89.87" width="0.75" height="1.94"/><rect class="cls-2" x="295.41" y="87.22" width="0.75" height="1.94"/><rect class="cls-2" x="295.41" y="89.87" width="0.75" height="1.94"/><rect class="cls-2" x="290.53" y="84.57" width="0.75" height="1.94"/><rect class="cls-2" x="292.15" y="84.57" width="0.75" height="1.94"/><rect class="cls-2" x="293.78" y="84.57" width="0.75" height="1.94"/><rect class="cls-2" x="295.41" y="84.57" width="0.75" height="1.94"/><rect class="cls-2" x="290.53" y="79.27" width="0.75" height="1.94"/><rect class="cls-2" x="290.53" y="81.92" width="0.75" height="1.94"/><rect class="cls-2" x="292.15" y="79.27" width="0.75" height="1.94"/><rect class="cls-2" x="292.15" y="81.92" width="0.75" height="1.94"/><rect class="cls-2" x="293.78" y="79.27" width="0.75" height="1.94"/><rect class="cls-2" x="293.78" y="81.92" width="0.75" height="1.94"/><rect class="cls-2" x="295.41" y="79.27" width="0.75" height="1.94"/><rect class="cls-2" x="295.41" y="81.92" width="0.75" height="1.94"/><rect class="cls-2" x="297.2" y="103.45" width="0.64" height="1.86"/><rect class="cls-2" x="297.2" y="105.98" width="0.64" height="1.86"/><rect class="cls-2" x="297.2" y="108.51" width="0.64" height="1.86"/><rect class="cls-2" x="298.57" y="103.45" width="0.64" height="1.86"/><rect class="cls-2" x="298.57" y="105.98" width="0.64" height="1.86"/><rect class="cls-2" x="298.57" y="108.51" width="0.64" height="1.86"/><rect class="cls-2" x="297.2" y="98.39" width="0.64" height="1.86"/><rect class="cls-2" x="297.2" y="100.92" width="0.64" height="1.86"/><rect class="cls-2" x="298.57" y="98.39" width="0.64" height="1.86"/><rect class="cls-2" x="298.57" y="100.92" width="0.64" height="1.86"/><rect class="cls-2" x="297.2" y="93.33" width="0.64" height="1.86"/><rect class="cls-2" x="297.2" y="95.86" width="0.64" height="1.86"/><rect class="cls-2" x="298.57" y="93.33" width="0.64" height="1.86"/><rect class="cls-2" x="298.57" y="95.86" width="0.64" height="1.86"/><rect class="cls-2" x="297.2" y="88.27" width="0.64" height="1.86"/><rect class="cls-2" x="297.2" y="90.8" width="0.64" height="1.86"/><rect class="cls-2" x="298.57" y="88.27" width="0.64" height="1.86"/><rect class="cls-2" x="298.57" y="90.8" width="0.64" height="1.86"/><rect class="cls-2" x="297.2" y="85.74" width="0.64" height="1.86"/><rect class="cls-2" x="298.57" y="85.74" width="0.64" height="1.86"/><rect class="cls-2" x="297.2" y="80.68" width="0.64" height="1.86"/><rect class="cls-2" x="297.2" y="83.21" width="0.64" height="1.86"/><rect class="cls-2" x="298.57" y="80.68" width="0.64" height="1.86"/><rect class="cls-2" x="298.57" y="83.21" width="0.64" height="1.86"/><rect class="cls-2" x="287.47" y="103.45" width="0.64" height="1.86"/><rect class="cls-2" x="287.47" y="105.98" width="0.64" height="1.86"/><rect class="cls-2" x="287.47" y="108.51" width="0.64" height="1.86"/><rect class="cls-2" x="288.85" y="103.45" width="0.64" height="1.86"/><rect class="cls-2" x="288.85" y="105.98" width="0.64" height="1.86"/><rect class="cls-2" x="288.85" y="108.51" width="0.64" height="1.86"/><rect class="cls-2" x="287.47" y="98.39" width="0.64" height="1.86"/><rect class="cls-2" x="287.47" y="100.92" width="0.64" height="1.86"/><rect class="cls-2" x="288.85" y="98.39" width="0.64" height="1.86"/><rect class="cls-2" x="288.85" y="100.92" width="0.64" height="1.86"/><rect class="cls-2" x="287.47" y="93.33" width="0.64" height="1.86"/><rect class="cls-2" x="287.47" y="95.86" width="0.64" height="1.86"/><rect class="cls-2" x="288.85" y="93.33" width="0.64" height="1.86"/><rect class="cls-2" x="288.85" y="95.86" width="0.64" height="1.86"/><rect class="cls-2" x="287.47" y="88.27" width="0.64" height="1.86"/><rect class="cls-2" x="287.47" y="90.8" width="0.64" height="1.86"/><rect class="cls-2" x="288.85" y="88.27" width="0.64" height="1.86"/><rect class="cls-2" x="288.85" y="90.8" width="0.64" height="1.86"/><rect class="cls-2" x="287.47" y="85.74" width="0.64" height="1.86"/><rect class="cls-2" x="288.85" y="85.74" width="0.64" height="1.86"/><rect class="cls-2" x="287.47" y="80.68" width="0.64" height="1.86"/><rect class="cls-2" x="287.47" y="83.21" width="0.64" height="1.86"/><rect class="cls-2" x="288.85" y="80.68" width="0.64" height="1.86"/><rect class="cls-2" x="288.85" y="83.21" width="0.64" height="1.86"/><rect class="cls-2" x="278.26" y="113.8" width="0.88" height="1.81"/><rect class="cls-2" x="278.26" y="116.26" width="0.88" height="1.81"/><rect class="cls-2" x="278.26" y="118.72" width="0.88" height="1.81"/><rect class="cls-2" x="280.15" y="113.8" width="0.88" height="1.81"/><rect class="cls-2" x="280.15" y="116.26" width="0.88" height="1.81"/><rect class="cls-2" x="280.15" y="118.72" width="0.88" height="1.81"/><rect class="cls-2" x="282.04" y="113.8" width="0.88" height="1.81"/><rect class="cls-2" x="282.04" y="116.26" width="0.88" height="1.81"/><rect class="cls-2" x="282.04" y="118.72" width="0.88" height="1.81"/><rect class="cls-2" x="283.93" y="113.8" width="0.88" height="1.81"/><rect class="cls-2" x="283.93" y="116.26" width="0.88" height="1.81"/><rect class="cls-2" x="283.93" y="118.72" width="0.88" height="1.81"/><rect class="cls-2" x="301.88" y="113.8" width="0.88" height="1.81"/><rect class="cls-2" x="301.88" y="116.26" width="0.88" height="1.81"/><rect class="cls-2" x="301.88" y="118.72" width="0.88" height="1.81"/><rect class="cls-2" x="303.77" y="113.8" width="0.88" height="1.81"/><rect class="cls-2" x="303.77" y="116.26" width="0.88" height="1.81"/><rect class="cls-2" x="303.77" y="118.72" width="0.88" height="1.81"/><rect class="cls-2" x="305.66" y="113.8" width="0.88" height="1.81"/><rect class="cls-2" x="305.66" y="116.26" width="0.88" height="1.81"/><rect class="cls-2" x="305.66" y="118.72" width="0.88" height="1.81"/><rect class="cls-2" x="307.55" y="113.8" width="0.88" height="1.81"/><rect class="cls-2" x="307.55" y="116.26" width="0.88" height="1.81"/><rect class="cls-2" x="307.55" y="118.72" width="0.88" height="1.81"/><rect class="cls-2" x="290.53" y="76.91" width="0.75" height="1.41"/><rect class="cls-2" x="292.15" y="76.91" width="0.75" height="1.41"/><rect class="cls-2" x="293.78" y="76.91" width="0.75" height="1.41"/><rect class="cls-2" x="295.41" y="76.91" width="0.75" height="1.41"/><rect class="cls-2" x="290.53" y="73.07" width="0.75" height="1.41"/><rect class="cls-2" x="290.53" y="74.99" width="0.75" height="1.41"/><rect class="cls-2" x="292.15" y="73.07" width="0.75" height="1.41"/><rect class="cls-2" x="292.15" y="74.99" width="0.75" height="1.41"/><rect class="cls-2" x="293.78" y="73.07" width="0.75" height="1.41"/><rect class="cls-2" x="293.78" y="74.99" width="0.75" height="1.41"/><rect class="cls-2" x="295.41" y="73.07" width="0.75" height="1.41"/><rect class="cls-2" x="295.41" y="74.99" width="0.75" height="1.41"/><rect class="cls-2" x="296.7" y="77.01" width="0.45" height="1.31"/><rect class="cls-2" x="297.68" y="77.01" width="0.45" height="1.31"/><rect class="cls-2" x="296.7" y="73.44" width="0.45" height="1.31"/><rect class="cls-2" x="296.7" y="75.23" width="0.45" height="1.31"/><rect class="cls-2" x="297.68" y="73.44" width="0.45" height="1.31"/><rect class="cls-2" x="297.68" y="75.23" width="0.45" height="1.31"/><rect class="cls-2" x="288.56" y="77.01" width="0.45" height="1.31"/><rect class="cls-2" x="289.53" y="77.01" width="0.45" height="1.31"/><rect class="cls-2" x="288.56" y="73.44" width="0.45" height="1.31"/><rect class="cls-2" x="288.56" y="75.23" width="0.45" height="1.31"/><rect class="cls-2" x="289.53" y="73.44" width="0.45" height="1.31"/><rect class="cls-2" x="289.53" y="75.23" width="0.45" height="1.31"/><rect class="cls-2" x="291.81" y="70.54" width="0.97" height="1.58"/><rect class="cls-2" x="293.9" y="70.54" width="0.97" height="1.58"/><rect class="cls-2" x="295.88" y="70.88" width="0.76" height="1.24"/><rect class="cls-2" x="290.05" y="70.88" width="0.76" height="1.24"/></g><path class="cls-6" d="M366,72.33,355.48,54.57c-8.63-14.62-3.29-31.5,15.87-31.5s24.5,16.88,15.86,31.5L376.73,72.33Z" transform="translate(17.3 3.07)"/><path class="cls-8" d="M366.56,72.33l-9.33-17.76c-7.68-14.62-2.92-31.5,14.12-31.5S393.14,40,385.46,54.57l-9.33,17.76Z" transform="translate(17.3 3.07)"/><path class="cls-6" d="M367.43,72.33l-7.65-17.76c-6.3-14.62-2.4-31.5,11.57-31.5S389.21,40,382.92,54.57l-7.65,17.76Z" transform="translate(17.3 3.07)"/><path class="cls-8" d="M368.46,72.33l-5.63-17.76c-4.64-14.62-1.77-31.5,8.52-31.5S384.5,40,379.87,54.57l-5.63,17.76Z" transform="translate(17.3 3.07)"/><path class="cls-6" d="M370.15,72.33l-2.34-17.76c-1.93-14.62-.73-31.5,3.54-31.5s5.46,16.88,3.54,31.5l-2.34,17.76Z" transform="translate(17.3 3.07)"/><polygon class="cls-9" points="370.53 51.92 383.34 84.9 383.05 85.02 370.2 51.92 370.53 51.92"/><polygon class="cls-9" points="407.2 51.92 394.35 85.02 394.06 84.9 406.87 51.92 407.2 51.92"/><polygon class="cls-9" points="375.54 51.92 384.81 84.92 384.52 85 375.22 51.92 375.54 51.92"/><polygon class="cls-9" points="402.18 51.92 392.88 85 392.59 84.92 401.86 51.92 402.18 51.92"/><polygon class="cls-9" points="384.69 51.92 387.54 84.95 387.24 84.97 384.38 51.92 384.69 51.92"/><polygon class="cls-9" points="393.01 51.92 390.16 84.97 389.86 84.95 392.71 51.92 393.01 51.92"/><polygon class="cls-6" points="382.96 84.87 394.35 84.87 392.54 93.94 384.77 93.94 382.96 84.87"/><polygon class="cls-8" points="393.91 87.06 393.7 88.13 383.61 88.13 383.39 87.06 393.91 87.06"/><polygon class="cls-6" points="382.96 84.87 394.35 84.87 394.13 85.94 383.17 85.94 382.96 84.87"/><polygon class="cls-8" points="383.1 85.58 394.21 85.58 394.13 85.94 383.17 85.94 383.1 85.58"/><path class="cls-10" d="M366.08,82.57c1.26,0,2.08,2.88,0,2.88S364.83,82.57,366.08,82.57Z" transform="translate(17.3 3.07)"/><path class="cls-10" d="M366.08,82.89c.34,0,.6-.51.51-.86a3.78,3.78,0,0,1-.51,0,3.89,3.89,0,0,1-.51,0C365.48,82.38,365.74,82.89,366.08,82.89Z" transform="translate(17.3 3.07)"/><path class="cls-10" d="M376.61,82.57c1.26,0,2.09,2.88,0,2.88S375.36,82.57,376.61,82.57Z" transform="translate(17.3 3.07)"/><path class="cls-10" d="M376.61,82.89c.34,0,.61-.51.51-.86a3.68,3.68,0,0,1-.51,0,3.63,3.63,0,0,1-.5,0C376,82.38,376.28,82.89,376.61,82.89Z" transform="translate(17.3 3.07)"/><path class="cls-10" d="M369.59,82.57c1.26,0,2.08,2.88,0,2.88S368.34,82.57,369.59,82.57Z" transform="translate(17.3 3.07)"/><path class="cls-10" d="M369.59,82.89c.34,0,.6-.51.51-.86a3.78,3.78,0,0,1-.51,0,3.89,3.89,0,0,1-.51,0C369,82.38,369.25,82.89,369.59,82.89Z" transform="translate(17.3 3.07)"/><path class="cls-10" d="M373.1,82.57c1.26,0,2.09,2.88,0,2.88S371.85,82.57,373.1,82.57Z" transform="translate(17.3 3.07)"/><path class="cls-10" d="M373.1,82.89c.34,0,.61-.51.51-.86a3.68,3.68,0,0,1-.51,0,3.63,3.63,0,0,1-.5,0C372.5,82.38,372.76,82.89,373.1,82.89Z" transform="translate(17.3 3.07)"/><path class="cls-10" d="M352.79,48.51H390l-.12.36h-37Z" transform="translate(17.3 3.07)"/><path class="cls-8" d="M319.48,52.57l-7.82-13.24c-6.43-10.9-2.45-23.48,11.83-23.48s18.26,12.58,11.82,23.48L327.5,52.57Z" transform="translate(17.3 3.07)"/><path class="cls-7" d="M335.46,22.46l.74-.74c.11.17.22.34.32.51l-.65.64,1.71,1.71a11.77,11.77,0,0,1,.33,1.16l0,0-2,2,2,2,.43-.43c0,.53,0,1.06-.09,1.6l-.34-.35-2,2,1.69,1.68c-.06.21-.13.42-.2.63l-1.9-1.9V32.1l2-2-2-2v-.83l2-2-2-2v-.83Zm0,14.45,1.81-1.8c-.16.44-.32.89-.51,1.33l-.89.89.34.33c-.09.19-.18.37-.28.55l-.47-.47Zm-1.2-17.46.11.11-.11.11v-.22Zm0,1.81,1.2,1.2h0v.83h0l-1.2,1.2v-.82l.79-.8-.79-.79v-.82Zm1.2,11.66h0l-1.2,1.21V33.3l.79-.79-.79-.79v-.83l1.2,1.21h0v.82Zm-1.2,2.79,1.2,1.2h0v.83h0L334.26,39v-.83l.79-.79-.79-.79v-.83Zm0,4.82.22.22-.22.37v-.59Zm1.2-13.25v.83h0l-1.2,1.2v-.83l.79-.79-.79-.79v-.83l1.2,1.21Zm-2.41-7.23.88-.88.33.28v.22l-.79.8.79.79v.82l-1.21-1.2v-.83Zm1.21,14.08-.79.79.79.79v.83l-1.21-1.21v-.82l1.21-1.21v.83Zm0,4.82-.79.79.79.79v.59l-.09.15-1.12-1.12v-.83l1.21-1.2V39Zm0-15.28v.82l-.79.79.79.79v.83l-1.21-1.2v-.83l1.21-1.2Zm0,4.81v.83l-.79.79.79.79v.83l-1.21-1.21v-.82Zm-2.41-9.63,1.2,1.2v.83l-1.2,1.2v-.82l.79-.79-.79-.8v-.82Zm1.2,21.3-1.2,1.21v-.83l.79-.79-.79-.79v-.83l1.2,1.2v.83Zm-1.2,2.79.84.84-.31.52-.53-.54v-.82Zm1.2-18.07v.83l-1.2,1.2v-.83l.79-.79-.79-.79v-.83l1.2,1.21Zm0,4.82v.82l-1.2,1.21v-.83l.79-.79-.79-.79v-.83l1.2,1.21Zm0,4.82v.82l-1.2,1.21v-.83l.79-.79-.79-.79V33.3Zm-2.41-16.87.33-.33.56.27-.47.48.79.79v.82l-1.21-1.2v-.83Zm1.21,23.72-.79.79.79.79v.82l-1.21-1.2v-.83l1.21-1.2v.83Zm-1.21,5.19,1-1-1,1.68v-.69Zm1.21-25.29v.82l-.79.79.79.79v.83l-1.21-1.2v-.83l1.21-1.2Zm0,4.81v.83l-.79.79.79.79v.83l-1.21-1.2v-.83l1.21-1.21Zm0,4.82v.83l-.79.79.79.79v.83l-1.21-1.21V32.1l1.21-1.21Zm0,4.82v.83l-.79.79.79.79V39l-1.21-1.21v-.83Zm-2.41-16.86.79-.79-.79-.8v-.54l.43.15.77.77v.83l-1.2,1.2v-.82Zm1.2,23.71-1.2,1.2v-.82l.79-.79-.79-.79v-.83l1.2,1.2v.83Zm-1.2,2.79,1.2,1.2v.69l-.2.34-1,1v-.82l.79-.8-.79-.79v-.82Zm1.2-22.89v.83l-1.2,1.2v-.82l.79-.8-.79-.79v-.82l1.2,1.2Zm0,4.82v.83l-1.2,1.2v-.83l.79-.79-.79-.79v-.83l1.2,1.21Zm0,4.82v.82l-1.2,1.21V33.3l.79-.79-.79-.79v-.83l1.2,1.21Zm0,4.81v.83L329.44,39v-.83l.79-.79-.79-.79v-.83Zm-2.41-16.86h0l1.21-1.2v.82l-.79.8.79.79v.82l-1.21-1.2h0v-.83Zm1.21-2.79-.77-.77.77.23v.54Zm0,26.5-.79.8.79.79v.82L328.23,45h0v-.83h0l1.21-1.2v.82Zm0,4.82-.79.79.46.47-.31.52-.57-.57h0V49h0l1.21-1.2v.82Zm0-24.91v.82l-.79.79.79.79v.83l-1.21-1.2h0v-.83h0l1.21-1.2Zm0,4.81v.83l-.79.79.79.79v.83l-1.21-1.21h0v-.82h0l1.21-1.21Zm0,4.82v.83l-.79.79.79.79v.83l-1.21-1.21h0v-.82h0l1.21-1.21Zm0,4.82V39l-.79.79.79.79v.83l-1.21-1.21h0v-.83h0ZM327,16.44l.26-.26.68.14-.94.95v-.83Zm0,2.41,1.2,1.2v.83l-1.2,1.2v-.82l.79-.79-.79-.8v-.82Zm1.2,30.94L327,51v-.83l.79-.79-.79-.79v-.82l1.2,1.2v.83Zm0-24.92v.83L327,26.9v-.83l.79-.79-.79-.79v-.83l1.2,1.21Zm0,4.82v.82L327,31.72v-.83l.79-.79-.79-.79v-.83l1.2,1.21Zm0,4.82v.82L327,36.54v-.83l.79-.79-.79-.79V33.3l1.2,1.21Zm0,4.81v.83L327,41.36v-.83l.79-.79L327,39v-.83l1.2,1.2Zm0,4.82V45l-1.2,1.2v-.82l.79-.79-.79-.8v-.82Zm-2.41-26.5h0l1.21-1.2v.83l-.79.79.79.79v.82l-1.21-1.2h0v-.83ZM327,51l-.79.79.78.79h-.83l-.37-.37h0v-.83h0L327,50.16V51Zm0-29.73v.82l-.79.79.79.79v.83l-1.21-1.2h0v-.83h0l1.21-1.2Zm0,4.81v.83l-.79.79.79.79v.83l-1.21-1.2h0v-.83h0L327,26.07Zm0,4.82v.83l-.79.79.79.79v.83l-1.21-1.21h0V32.1h0L327,30.89Zm0,4.82v.83l-.79.79.79.79V39l-1.21-1.21h0v-.83h0l1.21-1.2Zm0,4.82v.83l-.79.79.79.79v.82l-1.21-1.2h0v-.83h0l1.21-1.2Zm0,4.82v.82l-.79.79.79.8v.82l-1.21-1.2h0v-.83h0Zm-2.41-28.91,1.2,1.2v.83l-1.2,1.2v-.82l.79-.79-.79-.79v-.83Zm1.2,35.76-.36.37h-.83l.78-.79-.79-.79v-.83l1.2,1.21v.83Zm0-29.74v.83l-1.2,1.2v-.83l.79-.79-.79-.79v-.82l1.2,1.2Zm0,4.82v.83l-1.2,1.2v-.83l.79-.79-.79-.79v-.83l1.2,1.21Zm0,4.82v.82l-1.2,1.21V33.3l.79-.79-.79-.79v-.83l1.2,1.21Zm0,4.81v.83L324.62,39v-.83l.79-.79-.79-.79v-.83l1.2,1.2Zm0,4.82v.83l-1.2,1.2v-.82l.79-.79-.79-.79v-.83l1.2,1.2Zm0,4.82v.83l-1.2,1.2v-.82l.79-.8-.79-.79v-.82Zm-2.4-30.7H324l.58.58v.83l-1.2-1.21h0v-.21ZM324.62,51l-1.2-1.2h0V49h0l1.2-1.2v.82l-.79.79.79.79V51Zm0-32.14v.82l-.79.8.79.79v.82l-1.2-1.2h0v-.83h0l1.2-1.2Zm0,4.81v.83l-.79.79.79.79v.83l-1.2-1.2h0v-.83h0l1.2-1.21Zm0,4.82v.83l-.79.79.79.79v.83l-1.2-1.21h0v-.82h0l1.2-1.21Zm0,4.82v.83l-.79.79.79.79v.83l-1.2-1.21h0v-.82h0l1.2-1.21Zm0,4.82V39l-.79.79.79.79v.83l-1.2-1.21h0v-.83h0l1.2-1.2Zm0,4.82v.82l-.79.8.79.79v.82l-1.2-1.2h0v-.83h0Zm-2.41-26.5.58-.58h.63v.21l-1.21,1.21v-.83Zm1.21,33.35L322.21,51v-.83l.79-.79-.79-.79v-.82l1.21,1.2v.83Zm0-29.74v.83l-1.21,1.2v-.82l.79-.79-.79-.8v-.82l1.21,1.2Zm0,4.82v.83l-1.21,1.2v-.83l.79-.79-.79-.79v-.83l1.21,1.21Zm0,4.82v.82l-1.21,1.21v-.83l.79-.79-.79-.79v-.83l1.21,1.21Zm0,4.82v.82l-1.21,1.21v-.83l.79-.79-.79-.79V33.3l1.21,1.21Zm0,4.81v.83l-1.21,1.21v-.83l.79-.79-.79-.79v-.83l1.21,1.2Zm0,4.82V45l-1.21,1.2v-.82l.79-.79-.79-.8v-.82ZM321,17.64h0l1.2-1.2v.83l-.79.79.79.79v.82l-1.2-1.2h0v-.83ZM322.21,51l-.79.79.78.79h-.82L321,52.2h0v-.83h0l1.2-1.21V51Zm0-29.73v.82l-.79.79.79.79v.83l-1.2-1.2h0v-.83h0l1.2-1.2Zm0,4.81v.83l-.79.79.79.79v.83l-1.2-1.2h0v-.83h0l1.2-1.21Zm0,4.82v.83l-.79.79.79.79v.83L321,32.92h0V32.1h0l1.2-1.21Zm0,4.82v.83l-.79.79.79.79V39L321,37.74h0v-.83h0l1.2-1.2Zm0,4.82v.83l-.79.79.79.79v.82l-1.2-1.2h0v-.83h0l1.2-1.2Zm0,4.82v.82l-.79.79.79.8v.82l-1.2-1.2h0v-.83h0Zm-2.41-26.5.79-.79-.79-.79v-.83l1.21,1.2v.83l-1.21,1.2v-.82ZM321,52.2l-.37.37h-.83l.78-.79L319.8,51v-.83L321,51.37v.83Zm0-29.74v.83l-1.21,1.2v-.83l.79-.79-.79-.79v-.82l1.21,1.2Zm0,4.82v.83l-1.21,1.2v-.83l.79-.79-.79-.79v-.83L321,27.28Zm0,4.82v.82l-1.21,1.21V33.3l.79-.79-.79-.79v-.83L321,32.1Zm0,4.81v.83L319.8,39v-.83l.79-.79-.79-.79v-.83l1.21,1.2Zm0,4.82v.83l-1.21,1.2v-.82l.79-.79-.79-.79v-.83l1.21,1.2Zm0,4.82v.83l-1.21,1.2v-.82l.79-.8-.79-.79v-.82Zm-2.41-26.5,1.2-1.2v.82l-.79.79.79.8v.82l-1.2-1.2v-.83Zm1.2-2.78-.91-.92.68-.14.23.23v.83Zm0,33.72-1.2-1.2V49l1.2-1.2v.82l-.79.79.79.79V51Zm0-27.33v.83l-.79.79.79.79v.83l-1.2-1.2v-.83l1.2-1.21Zm0,4.82v.83l-.79.79.79.79v.83l-1.2-1.21v-.82l1.2-1.21Zm0,4.82v.83l-.79.79.79.79v.83l-1.2-1.21v-.82l1.2-1.21Zm0,4.82V39l-.79.79.79.79v.83l-1.2-1.21v-.83l1.2-1.2Zm0,4.82v.82l-.79.8.79.79v.82L318.6,45v-.83Zm-2.41-26.17.72-.22-.72.72v-.5Zm0,2.08,1.21,1.2v.83l-1.21,1.2v-.82l.79-.8-.79-.79v-.82Zm1.21,30.94-.48.47-.31-.52.37-.37-.79-.79v-.82L318.6,49v.83Zm-1.21-4.44.79-.79-.79-.8v-.82l1.21,1.2V45l-1.21,1.2v-.82Zm1.21-20.48v.83l-1.21,1.2v-.83l.79-.79-.79-.79v-.83l1.21,1.21Zm0,4.82v.82l-1.21,1.21v-.83l.79-.79-.79-.79v-.83l1.21,1.21Zm0,4.82v.82l-1.21,1.21v-.83l.79-.79-.79-.79V33.3l1.21,1.21Zm0,4.81v.83l-1.21,1.21v-.83l.79-.79-.79-.79v-.83Zm-2.41-21.68.68-.68.52-.19v.5l-.79.79.79.79v.82l-1.2-1.2v-.83Zm1.2,30.94-.64-.64-.56-.95v-.44l1.2-1.2v.82l-.79.79.79.8v.82Zm0-4.82-1.2-1.2v-.83l1.2-1.2v.83l-.79.79.79.79v.82Zm0-22.5v.82l-.79.79.79.79v.83l-1.2-1.2v-.83l1.2-1.2Zm0,4.81v.83l-.79.79.79.79v.83l-1.2-1.2v-.83l1.2-1.21Zm0,4.82v.83l-.79.79.79.79v.83l-1.2-1.21V32.1l1.2-1.21Zm0,4.82v.83l-.79.79.79.79V39l-1.2-1.21v-.83ZM315,18.85l.79-.79-.42-.43.56-.27.28.28v.83L315,19.67v-.82ZM316.19,47l-.64-1.07.64.63V47Zm0-4.43L315,43.76v-.82l.79-.79-.79-.79v-.83l1.21,1.2v.83Zm0-20.1v.83L315,24.49v-.83l.79-.79-.79-.79v-.82l1.21,1.2Zm0,4.82v.83L315,29.31v-.83l.79-.79L315,26.9v-.83l1.21,1.21Zm0,4.82v.82L315,34.13V33.3l.79-.79-.79-.79v-.83l1.21,1.21Zm0,4.81v.83L315,39v-.83l.79-.79-.79-.79v-.83Zm-2.41-16.86,1.2-1.2v.82l-.79.79.79.8v.82l-1.2-1.2v-.83ZM315,43.76l-.44.44-.3-.52.74-.74v.82Zm0-2.4-1.2-1.21v-.83l1.2-1.2V39l-.79.79.79.79v.83Zm0-17.7v.83l-.79.79.79.79v.83l-1.2-1.2v-.83l1.2-1.21Zm0,4.82v.83l-.79.79.79.79v.83l-1.2-1.21v-.82l1.2-1.21Zm0,4.82v.83l-.79.79.79.79v.83l-1.2-1.21v-.82Zm-2.41-12,.8-.8-.8-.79v-.08c.13-.12.26-.24.4-.35l.81.81v.83l-1.21,1.2v-.82Zm1.21,18.89-1,1-.19-.31v-.34l.8-.79-.8-.79v-.83l1.21,1.2v.83Zm-1.21-4.44.8-.79-.8-.79V33.3l1.21,1.21v.82l-1.21,1.21v-.83Zm1.21-10.84v.83l-1.21,1.2v-.83l.8-.79-.8-.79v-.83l1.21,1.21Zm0,4.82v.82l-1.21,1.21v-.83l.8-.79-.8-.79v-.83Zm-2.41-7.23,1.2-1.2v.82l-.79.79.79.79v.83l-1.2-1.2v-.83Zm1.2-2.79,0,0,0,0v.08Zm0,21.2-.12-.21.12-.13v.34Zm0-1.92-1.2-1.21v-.83l1.2-1.2v.83l-.79.79.79.79V39Zm0-4.82-1.2-1.21V32.1l1.2-1.21v.83l-.79.79.79.79v.83Zm0-8.06v.83l-.79.79.79.79v.83l-1.2-1.2v-.83Zm-3.1-1.71L311,22.87l-.56-.55.32-.51.65.65v.83l-2,2,2,2v.83l-2,2,2,2v.82l-1.79,1.79c-.07-.21-.13-.42-.19-.63L311,32.51l-2-2-.21.21c0-.44-.06-.88-.07-1.31l.28.28,2-2-1.91-1.9a13.82,13.82,0,0,1,.42-1.43Zm1.9,13.38-.37.38c-.1-.19-.19-.37-.28-.56l.24-.23-.64-.63c-.19-.46-.37-.91-.53-1.36l1.58,1.57Z" transform="translate(17.3 3.07)"/><polygon class="cls-6" points="336.78 55.64 333.5 50.08 348.08 50.08 344.81 55.64 336.78 55.64"/><polygon class="cls-9" points="327.29 38.14 336.83 62.72 336.62 62.8 327.04 38.14 327.29 38.14"/><polygon class="cls-9" points="354.62 38.14 345.04 62.8 344.83 62.72 354.37 38.14 354.62 38.14"/><polygon class="cls-9" points="331.02 38.14 337.93 62.73 337.71 62.79 330.78 38.14 331.02 38.14"/><polygon class="cls-9" points="350.88 38.14 343.95 62.79 343.73 62.73 350.64 38.14 350.88 38.14"/><polygon class="cls-9" points="337.84 38.14 339.97 62.75 339.74 62.77 337.61 38.14 337.84 38.14"/><polygon class="cls-9" points="344.05 38.14 341.92 62.77 341.69 62.75 343.81 38.14 344.05 38.14"/><polygon class="cls-6" points="336.55 62.69 345.04 62.69 343.69 69.46 337.9 69.46 336.55 62.69"/><polygon class="cls-8" points="344.71 64.32 344.56 65.12 337.03 65.12 336.87 64.32 344.71 64.32"/><polygon class="cls-6" points="336.55 62.69 345.04 62.69 344.88 63.49 336.71 63.49 336.55 62.69"/><polygon class="cls-8" points="336.65 63.22 344.93 63.22 344.88 63.49 336.71 63.49 336.65 63.22"/><path class="cls-10" d="M319.56,60.2c.94,0,1.56,2.15,0,2.15S318.63,60.2,319.56,60.2Z" transform="translate(17.3 3.07)"/><path class="cls-10" d="M319.56,60.43c.26,0,.45-.37.38-.64a2.18,2.18,0,0,1-.38,0,2.06,2.06,0,0,1-.37,0C319.12,60.06,319.31,60.43,319.56,60.43Z" transform="translate(17.3 3.07)"/><path class="cls-10" d="M327.41,60.2c.94,0,1.56,2.15,0,2.15S326.48,60.2,327.41,60.2Z" transform="translate(17.3 3.07)"/><path class="cls-10" d="M327.41,60.43c.26,0,.45-.37.38-.64a2.18,2.18,0,0,1-.38,0,2.06,2.06,0,0,1-.37,0C327,60.06,327.16,60.43,327.41,60.43Z" transform="translate(17.3 3.07)"/><path class="cls-10" d="M322.18,60.2c.94,0,1.55,2.15,0,2.15S321.25,60.2,322.18,60.2Z" transform="translate(17.3 3.07)"/><path class="cls-10" d="M322.18,60.43c.25,0,.45-.37.38-.64a2.18,2.18,0,0,1-.38,0,2.24,2.24,0,0,1-.38,0C321.73,60.06,321.93,60.43,322.18,60.43Z" transform="translate(17.3 3.07)"/><path class="cls-10" d="M324.8,60.2c.93,0,1.55,2.15,0,2.15S323.86,60.2,324.8,60.2Z" transform="translate(17.3 3.07)"/><path class="cls-10" d="M324.8,60.43c.25,0,.45-.37.38-.64a2.24,2.24,0,0,1-.38,0,2.18,2.18,0,0,1-.38,0C324.35,60.06,324.55,60.43,324.8,60.43Z" transform="translate(17.3 3.07)"/><path class="cls-10" d="M309.66,34.81h27.73c0,.09-.05.18-.09.27H309.74A2.76,2.76,0,0,1,309.66,34.81Z" transform="translate(17.3 3.07)"/></g></g></svg>