<svg xmlns="http://www.w3.org/2000/svg" viewBox="0 0 430.87 127.2"><defs><style>.cls-1{fill:#244d6e;}.cls-2,.cls-4{fill:#386387;}.cls-10,.cls-11,.cls-12,.cls-2,.cls-5,.cls-7,.cls-8,.cls-9{fill-rule:evenodd;}.cls-3,.cls-5{fill:#0e2c45;}.cls-6{fill:#2e597d;}.cls-7{fill:#5a81a1;}.cls-16,.cls-8{fill:#fff;}.cls-9{fill:#bbd3e6;}.cls-10,.cls-13{fill:#6c8ca6;}.cls-11,.cls-15{fill:#fffdfc;}.cls-12{fill:#99b5cc;}.cls-14{fill:#c8cfd4;}</style></defs><g id="Layer_2" data-name="Layer 2"><g id="OBJECTS"><rect class="cls-1" width="430.87" height="125.07"/><path class="cls-2" d="M0,107.83c0-9,8.8-16.33,19.65-16.33a23.29,23.29,0,0,1,6.65,1,20.67,20.67,0,0,1,15.25-7.29c.86-10,10.88-18.19,23.11-18.54a28.15,28.15,0,0,1,4.54.25C72.84,58,82.85,51.41,94.63,51.08a30.92,30.92,0,0,1,11.48,1.81c3.08-5.87,10-10.11,18.14-10.34,10.95-.31,19.83,6.82,19.83,15.92a15.06,15.06,0,0,1-.13,1.91,23.13,23.13,0,0,1,11-3.1c10-.28,18.29,5.65,19.64,13.63a31.28,31.28,0,0,1,14.75-4.08,29.23,29.23,0,0,1,18.24,5.41c4.57-7,13.41-12,23.58-12.28a28.71,28.71,0,0,1,19.88,6.74c3.36-5.22,9.9-8.89,17.42-9.1,10.45-.3,19,6.18,19.78,14.69a24.05,24.05,0,0,1,4.12-.47,21.3,21.3,0,0,1,14.25,4.62c4.27-7.77,13.59-13.34,24.4-13.65a31.27,31.27,0,0,1,10.18,1.37,22.49,22.49,0,0,1,14.32-5.5c11-.31,19.83,6.82,19.83,15.93a14,14,0,0,1-.1,1.71l.51,0a31.69,31.69,0,0,1,5.46.3,21.21,21.21,0,0,1,15.6-6.4c10.85,0,19.65,7.31,19.65,16.33a13.87,13.87,0,0,1-1.08,5.36c8.84,1.59,15.47,8.13,15.47,16V127.2H0Z"/><rect class="cls-3" x="134.29" y="66.45" width="44.54" height="8.49"/><rect class="cls-3" x="134.29" y="72.42" width="11.88" height="30.07"/><rect class="cls-4" x="131.42" y="80.82" width="17.63" height="1.45"/><rect class="cls-4" x="136.06" y="74.19" width="8.34" height="5.52"/><path class="cls-2" d="M137.39,94.75h5.69V87.86A2.85,2.85,0,0,0,140.23,85h0a2.85,2.85,0,0,0-2.84,2.84Z"/><rect class="cls-4" x="137.39" y="96.36" width="5.69" height="0.94"/><path class="cls-5" d="M167,102.48h-3.24V83.76a7.17,7.17,0,0,0-7.15-7.15h0a7.17,7.17,0,0,0-7.15,7.15v18.72h-3.25V72.42H167Z"/><rect class="cls-3" x="166.96" y="72.42" width="11.88" height="30.07"/><rect class="cls-4" x="166.89" y="80.82" width="14.82" height="1.45"/><rect class="cls-4" x="168.73" y="74.19" width="8.34" height="5.52"/><path class="cls-2" d="M170.06,94.75h5.68V87.86A2.85,2.85,0,0,0,172.9,85h0a2.84,2.84,0,0,0-2.84,2.84Z"/><rect class="cls-4" x="170.06" y="96.36" width="5.69" height="0.94"/><rect class="cls-4" x="131.42" y="69.12" width="50.29" height="1.45"/><rect class="cls-4" x="134.29" y="70.57" width="44.54" height="0.33"/><rect class="cls-4" x="134.29" y="82.27" width="12.21" height="0.33"/><rect class="cls-3" x="133.17" y="64.99" width="46.79" height="1.45"/><rect class="cls-4" x="134.29" y="66.45" width="44.54" height="0.33"/><rect class="cls-3" x="137.05" y="75.13" width="6.36" height="3.65"/><rect class="cls-4" x="137.54" y="75.61" width="5.39" height="2.69"/><rect class="cls-3" x="169.72" y="75.13" width="6.36" height="3.65"/><rect class="cls-4" x="170.2" y="75.61" width="5.39" height="2.69"/><path class="cls-5" d="M138.08,94.08h4.3V88a2.15,2.15,0,0,0-2.15-2.15h0A2.16,2.16,0,0,0,138.08,88Z"/><path class="cls-2" d="M138.52,93.62H142V88.06a1.72,1.72,0,0,0-1.72-1.71h0a1.72,1.72,0,0,0-1.71,1.71Z"/><path class="cls-5" d="M170.75,94.08h4.3V88a2.16,2.16,0,0,0-2.15-2.15h0A2.16,2.16,0,0,0,170.75,88Z"/><path class="cls-2" d="M171.18,93.62h3.43V88.06a1.72,1.72,0,0,0-1.71-1.71h0a1.72,1.72,0,0,0-1.72,1.71Z"/><path class="cls-5" d="M133.17,65.75h1.07v-2a.54.54,0,0,0-.54-.54h0a.54.54,0,0,0-.53.54Z"/><path class="cls-5" d="M136,65.75h1.06v-2a.54.54,0,0,0-.53-.54h0a.54.54,0,0,0-.53.54Z"/><path class="cls-5" d="M138.89,65.75H140v-2a.54.54,0,0,0-.53-.54h0a.54.54,0,0,0-.53.54Z"/><path class="cls-5" d="M141.74,65.75h1.07v-2a.54.54,0,0,0-.53-.54h0a.54.54,0,0,0-.54.54Z"/><path class="cls-5" d="M144.6,65.75h1.07v-2a.54.54,0,0,0-.54-.54h0a.54.54,0,0,0-.53.54Z"/><path class="cls-5" d="M147.46,65.75h1.07v-2a.54.54,0,0,0-.54-.54h0a.54.54,0,0,0-.53.54Z"/><path class="cls-5" d="M150.32,65.75h1.06v-2a.54.54,0,0,0-.53-.54h0a.54.54,0,0,0-.53.54Z"/><path class="cls-5" d="M153.17,65.75h1.07v-2a.54.54,0,0,0-.53-.54h0a.54.54,0,0,0-.54.54Z"/><path class="cls-5" d="M156,65.75h1.07v-2a.54.54,0,0,0-.53-.54h0a.54.54,0,0,0-.54.54Z"/><path class="cls-5" d="M158.89,65.75H160v-2a.54.54,0,0,0-.54-.54h0a.54.54,0,0,0-.53.54Z"/><path class="cls-5" d="M161.75,65.75h1.06v-2a.53.53,0,0,0-.53-.54h0a.54.54,0,0,0-.53.54Z"/><path class="cls-5" d="M164.61,65.75h1.06v-2a.54.54,0,0,0-.53-.54h0a.54.54,0,0,0-.53.54Z"/><path class="cls-5" d="M167.46,65.75h1.07v-2a.54.54,0,0,0-.53-.54h0a.54.54,0,0,0-.54.54Z"/><path class="cls-5" d="M170.32,65.75h1.07v-2a.54.54,0,0,0-.54-.54h0a.54.54,0,0,0-.53.54Z"/><path class="cls-5" d="M173.18,65.75h1.07v-2a.54.54,0,0,0-.54-.54h0a.54.54,0,0,0-.53.54Z"/><path class="cls-5" d="M176,65.75h1.06v-2a.54.54,0,0,0-.53-.54h0a.54.54,0,0,0-.53.54Z"/><path class="cls-5" d="M178.89,65.75H180v-2a.54.54,0,0,0-.53-.54h0a.54.54,0,0,0-.54.54Z"/><rect class="cls-4" x="146.17" y="70.9" width="0.33" height="31.58"/><rect class="cls-6" x="166.63" y="70.9" width="0.33" height="31.58"/><rect class="cls-4" x="166.63" y="82.27" width="12.21" height="0.33"/><rect class="cls-3" x="106.44" y="65.38" width="28.42" height="37.1"/><rect class="cls-3" x="114.17" y="65.38" width="12.95" height="37.1"/><rect class="cls-3" x="114.17" y="62.66" width="12.95" height="2.72"/><rect class="cls-4" x="114.17" y="65.38" width="12.95" height="0.38"/><rect class="cls-4" x="114.17" y="83.76" width="12.95" height="0.38"/><rect class="cls-4" x="114.17" y="66.84" width="5.56" height="0.99"/><rect class="cls-4" x="121.56" y="66.84" width="5.56" height="0.99"/><rect class="cls-6" x="114.17" y="68.97" width="5.56" height="0.99"/><rect class="cls-4" x="121.56" y="68.97" width="5.56" height="0.99"/><rect class="cls-4" x="114.17" y="71.1" width="5.56" height="0.99"/><rect class="cls-4" x="121.56" y="71.1" width="5.56" height="0.99"/><rect class="cls-4" x="114.17" y="73.23" width="5.56" height="0.99"/><rect class="cls-4" x="121.56" y="73.23" width="5.56" height="0.99"/><rect class="cls-4" x="114.17" y="75.36" width="5.56" height="0.99"/><rect class="cls-4" x="121.56" y="75.36" width="5.56" height="0.99"/><rect class="cls-4" x="114.17" y="77.49" width="5.56" height="0.99"/><rect class="cls-4" x="121.56" y="77.49" width="5.56" height="0.99"/><rect class="cls-4" x="114.17" y="79.62" width="5.56" height="0.99"/><rect class="cls-4" x="121.56" y="79.62" width="5.56" height="0.99"/><rect class="cls-4" x="114.17" y="81.75" width="5.56" height="0.99"/><rect class="cls-4" x="121.56" y="81.75" width="5.56" height="0.99"/><rect class="cls-4" x="108.38" y="66.87" width="3.98" height="1.02"/><rect class="cls-4" x="108.38" y="69.07" width="3.98" height="1.02"/><rect class="cls-4" x="108.38" y="71.27" width="3.98" height="1.02"/><rect class="cls-4" x="108.38" y="73.48" width="3.98" height="1.02"/><rect class="cls-4" x="108.38" y="75.68" width="3.98" height="1.02"/><rect class="cls-4" x="108.38" y="77.88" width="3.98" height="1.02"/><rect class="cls-4" x="108.38" y="80.08" width="3.98" height="1.02"/><rect class="cls-4" x="108.38" y="82.28" width="3.98" height="1.02"/><rect class="cls-4" x="128.94" y="66.87" width="3.98" height="1.02"/><rect class="cls-4" x="128.94" y="69.07" width="3.98" height="1.02"/><rect class="cls-4" x="128.94" y="71.27" width="3.98" height="1.02"/><rect class="cls-4" x="128.94" y="73.48" width="3.98" height="1.02"/><rect class="cls-4" x="128.94" y="75.68" width="3.98" height="1.02"/><rect class="cls-4" x="128.94" y="77.88" width="3.98" height="1.02"/><rect class="cls-4" x="128.94" y="80.08" width="3.98" height="1.02"/><rect class="cls-4" x="128.94" y="82.28" width="3.98" height="1.02"/><rect class="cls-4" x="114.17" y="85.26" width="5.56" height="0.99"/><rect class="cls-4" x="121.56" y="85.26" width="5.56" height="0.99"/><rect class="cls-4" x="114.17" y="87.4" width="5.56" height="0.99"/><rect class="cls-4" x="121.56" y="87.4" width="5.56" height="0.99"/><rect class="cls-4" x="114.17" y="89.53" width="5.56" height="0.99"/><rect class="cls-4" x="121.56" y="89.53" width="5.56" height="0.99"/><rect class="cls-4" x="114.17" y="91.66" width="5.56" height="0.99"/><rect class="cls-4" x="121.56" y="91.66" width="5.56" height="0.99"/><rect class="cls-4" x="114.17" y="93.79" width="5.56" height="0.99"/><rect class="cls-4" x="121.56" y="93.79" width="5.56" height="0.99"/><rect class="cls-4" x="114.17" y="95.92" width="5.56" height="0.99"/><rect class="cls-4" x="121.56" y="95.92" width="5.56" height="0.99"/><rect class="cls-4" x="114.17" y="98.05" width="5.56" height="0.99"/><rect class="cls-4" x="121.56" y="98.05" width="5.56" height="0.99"/><rect class="cls-4" x="114.17" y="100.18" width="5.56" height="0.99"/><rect class="cls-4" x="121.56" y="100.18" width="5.56" height="0.99"/><rect class="cls-4" x="108.38" y="85.76" width="3.98" height="1.02"/><rect class="cls-4" x="108.38" y="87.96" width="3.98" height="1.02"/><rect class="cls-4" x="108.38" y="90.16" width="3.98" height="1.02"/><rect class="cls-4" x="108.38" y="92.36" width="3.98" height="1.02"/><rect class="cls-4" x="108.38" y="94.56" width="3.98" height="1.02"/><rect class="cls-4" x="108.38" y="96.77" width="3.98" height="1.02"/><rect class="cls-4" x="108.38" y="98.97" width="3.98" height="1.02"/><rect class="cls-4" x="108.38" y="101.17" width="3.98" height="1.02"/><rect class="cls-4" x="128.94" y="85.76" width="3.98" height="1.02"/><rect class="cls-4" x="128.94" y="87.96" width="3.98" height="1.02"/><rect class="cls-4" x="128.94" y="90.16" width="3.98" height="1.02"/><rect class="cls-4" x="128.94" y="92.36" width="3.98" height="1.02"/><rect class="cls-4" x="128.94" y="94.56" width="3.98" height="1.02"/><rect class="cls-4" x="128.94" y="96.77" width="3.98" height="1.02"/><rect class="cls-4" x="128.94" y="98.97" width="3.98" height="1.02"/><rect class="cls-4" x="128.94" y="101.17" width="3.98" height="1.02"/><rect class="cls-4" x="106.44" y="84.14" width="7.73" height="0.38"/><rect class="cls-4" x="127.12" y="84.14" width="7.74" height="0.38"/><rect class="cls-4" x="106.44" y="65.76" width="7.73" height="0.38"/><rect class="cls-4" x="127.12" y="65.76" width="7.74" height="0.38"/><rect class="cls-3" x="108.38" y="63.76" width="24.55" height="1.63"/><rect class="cls-4" x="117.24" y="63.44" width="6.82" height="0.97"/><rect class="cls-4" x="109.55" y="64.19" width="3.27" height="0.8"/><rect class="cls-4" x="128.2" y="64.19" width="3.27" height="0.8"/><rect class="cls-3" x="95.6" y="93.89" width="0.58" height="3.11"/><rect class="cls-3" x="93.89" y="91.89" width="0.58" height="5.1"/><rect class="cls-3" x="103.46" y="94.5" width="0.58" height="2.49"/><rect class="cls-3" x="105.18" y="92.91" width="0.58" height="4.09"/><path class="cls-3" d="M107.92,88.5a9.45,9.45,0,0,1-2.78,5.61,7.11,7.11,0,0,1-5.06,2.24H100c-2.5,0-4.77-1.71-6.4-4.63A24.53,24.53,0,0,1,91,80c0-.18,0-.43,0-.76l1.15,0c0,.18,0,.43,0,.74a23.51,23.51,0,0,0,2.4,11.21c1.42,2.56,3.34,4,5.42,4h.09a6,6,0,0,0,4.25-1.9,8.16,8.16,0,0,0,2.44-4.8Z"/><rect class="cls-3" x="55.47" y="93.89" width="0.57" height="3.11"/><rect class="cls-3" x="57.18" y="91.89" width="0.58" height="5.1"/><rect class="cls-3" x="47.61" y="94.5" width="0.58" height="2.49"/><rect class="cls-3" x="45.89" y="92.91" width="0.58" height="4.09"/><path class="cls-3" d="M44.88,88.5a8.16,8.16,0,0,0,2.44,4.8,6,6,0,0,0,4.24,1.9h.1c2.07,0,4-1.48,5.41-4A23.39,23.39,0,0,0,59.47,80v-.74l1.14,0c0,.33,0,.58,0,.76a24.53,24.53,0,0,1-2.55,11.77c-1.62,2.92-3.89,4.58-6.39,4.63h-.12a7.1,7.1,0,0,1-5.05-2.24,9.45,9.45,0,0,1-2.78-5.61Z"/><rect class="cls-3" x="43.02" y="86.44" width="1.89" height="15.82"/><polygon class="cls-5" points="43.96 82.9 44.91 86.44 43.02 86.44 43.96 82.9"/><rect class="cls-3" x="106.68" y="86.44" width="1.89" height="15.82"/><polygon class="cls-5" points="107.62 82.9 108.57 86.44 106.68 86.44 107.62 82.9"/><rect class="cls-3" x="43.02" y="96.34" width="65.55" height="2.34"/><path class="cls-5" d="M57.8,102.25h1.47a4.05,4.05,0,0,1,8,0h1.47V96.34h-11Z"/><path class="cls-5" d="M82.79,102.25h1.47a4.05,4.05,0,0,1,8,0h1.47V96.34h-11Z"/><rect class="cls-3" x="59.39" y="76.22" width="7.81" height="22.45"/><rect class="cls-4" x="59.39" y="89.1" width="7.81" height="1.59"/><rect class="cls-4" x="59.39" y="81.87" width="7.81" height="1.59"/><rect class="cls-4" x="59.39" y="74.63" width="7.81" height="1.59"/><rect class="cls-4" x="60.41" y="77.2" width="2.22" height="3.66"/><rect class="cls-4" x="63.97" y="77.2" width="2.22" height="3.66"/><rect class="cls-4" x="60.41" y="84.38" width="2.22" height="3.66"/><rect class="cls-4" x="63.97" y="84.38" width="2.22" height="3.66"/><rect class="cls-4" x="60.41" y="91.7" width="2.22" height="3.66"/><rect class="cls-4" x="63.97" y="91.7" width="2.22" height="3.66"/><polygon class="cls-5" points="63.3 65.08 65.85 74.63 60.75 74.63 63.3 65.08"/><polygon class="cls-5" points="61 68.61 62.61 74.63 59.4 74.63 61 68.61"/><polygon class="cls-5" points="65.59 68.61 67.2 74.63 63.98 74.63 65.59 68.61"/><rect class="cls-3" x="63.1" y="62.7" width="0.39" height="3.45"/><rect class="cls-3" x="62.28" y="63.7" width="2.03" height="0.39"/><rect class="cls-3" x="65.4" y="65.95" width="0.39" height="3.45"/><rect class="cls-3" x="64.58" y="66.95" width="2.03" height="0.39"/><rect class="cls-3" x="60.81" y="65.95" width="0.39" height="3.45"/><rect class="cls-3" x="59.99" y="66.95" width="2.03" height="0.39"/><rect class="cls-3" x="84.38" y="76.22" width="7.81" height="22.45"/><rect class="cls-4" x="84.38" y="89.1" width="7.81" height="1.59"/><rect class="cls-4" x="84.38" y="81.87" width="7.81" height="1.59"/><rect class="cls-4" x="84.38" y="74.63" width="7.81" height="1.59"/><rect class="cls-4" x="85.4" y="77.2" width="2.22" height="3.66"/><rect class="cls-4" x="88.96" y="77.2" width="2.22" height="3.66"/><rect class="cls-4" x="85.4" y="84.38" width="2.22" height="3.66"/><rect class="cls-4" x="88.96" y="84.38" width="2.22" height="3.66"/><rect class="cls-4" x="85.4" y="91.7" width="2.22" height="3.66"/><rect class="cls-4" x="88.96" y="91.7" width="2.22" height="3.66"/><polygon class="cls-5" points="88.29 65.08 90.84 74.63 85.73 74.63 88.29 65.08"/><polygon class="cls-5" points="85.99 68.61 87.6 74.63 84.38 74.63 85.99 68.61"/><polygon class="cls-5" points="90.58 68.61 92.19 74.63 88.97 74.63 90.58 68.61"/><rect class="cls-3" x="88.09" y="62.7" width="0.39" height="3.45"/><rect class="cls-3" x="87.27" y="63.7" width="2.03" height="0.39"/><rect class="cls-3" x="90.38" y="65.95" width="0.39" height="3.45"/><rect class="cls-3" x="89.57" y="66.95" width="2.03" height="0.39"/><rect class="cls-3" x="85.8" y="65.95" width="0.39" height="3.45"/><rect class="cls-3" x="84.98" y="66.95" width="2.03" height="0.39"/><rect class="cls-3" x="66.18" y="79.53" width="19.22" height="2.34"/><polygon class="cls-3" points="68.62 102.03 74.57 97.46 74.92 97.92 68.97 102.48 68.62 102.03"/><rect class="cls-3" x="69.53" y="97.03" width="0.58" height="4.37"/><rect class="cls-3" x="71.06" y="97.21" width="0.58" height="3.15"/><polygon class="cls-3" points="82.62 102.48 76.67 97.92 77.02 97.46 82.96 102.03 82.62 102.48"/><rect class="cls-3" x="81.48" y="97.03" width="0.57" height="4.37"/><rect class="cls-3" x="79.95" y="97.21" width="0.58" height="3.15"/><rect class="cls-3" y="101.67" width="430.87" height="25.53"/><path class="cls-5" d="M280.18,55.86c4.89,0,13.29,22.34,13.29,47v.13H266.89v-.13C266.89,78.2,275.28,55.86,280.18,55.86Z"/><path class="cls-4" d="M285.27,98.24v-.71c1.49,2,3,3.84,4.36,5.41h-.57c-1.22-1.39-2.5-3-3.79-4.7Zm0-7.32.87,1.57c2.25,4.05,4.29,7.72,6,10.45h.51c-1.75-2.73-3.84-6.49-6.15-10.66L285.27,90v.89Zm0-7.6c1.4,2.59,2.83,5.39,4.15,8.14,1.6,3.35,3,6.62,4,9.36l0-1.3c-1-2.5-2.23-5.35-3.61-8.24s-3-6.08-4.54-8.86v.9Zm0-5.85v-.88c1.74,3.07,3.6,6.76,5.25,10.32.9,1.94,1.75,3.85,2.47,5.61.05.47.09,1,.13,1.43-.84-2.07-1.86-4.44-3-6.86-1.53-3.3-3.24-6.7-4.86-9.62Zm0-5.44v-.82c1.7,2.76,4.22,6.88,6.33,11,.08.48.17,1,.25,1.47-2.06-4.23-4.71-8.62-6.58-11.66Zm0-4.78c.2.39.39.75.57,1.06.69,1.24,1.7,2.69,2.77,4.23.42.61.85,1.23,1.27,1.86-.11-.43-.22-.84-.33-1.25L289,72.3c-1.06-1.54-2.07-3-2.75-4.2-.29-.5-.6-1.12-.94-1.81Zm0-1v1c-1-1.9-2.14-4.58-3.12-7.11-.12-.3-.24-.61-.35-.91V58q.34,1,.75,2c.85,2.19,1.85,4.5,2.72,6.3Zm0,4.92-.33-.53q-.66-1.07-1.08-1.77a28.15,28.15,0,0,1-2.06-4.65v1.23a24.91,24.91,0,0,0,1.69,3.64c.27.46.64,1.06,1.09,1.78l.69,1.12v-.82Zm0,5.38v.88c-.8-1.44-1.58-2.76-2.31-3.89-.41-.63-.8-1.27-1.16-1.9V70.8c.46.85,1,1.7,1.52,2.55s1.28,2.06,1.95,3.24Zm0,5.83c-1.22-2.24-2.41-4.3-3.47-6v.82c1.07,1.75,2.26,3.84,3.47,6.08v-.9Zm0,7.61v.89c-.63-1.14-1.28-2.3-2-3.52-.49-.88-1-1.75-1.5-2.61V84c.63,1.06,1.26,2.15,1.88,3.24L285.27,90Zm0,7.5v.71c-1.16-1.55-2.33-3.21-3.47-4.94v-.79c1.14,1.75,2.31,3.44,3.47,5Zm-3.47,2.81v-.72a42,42,0,0,0,2.67,3.32h-.57C283.19,102.13,282.49,101.26,281.8,100.34Zm0-42.36v1.25c-.45-1.2-.85-2.33-1.14-3.3a2.75,2.75,0,0,1,.51.21c.18.57.39,1.19.63,1.84Zm0,6.28c-.39-1.09-.76-2.24-1.09-3.37A42.72,42.72,0,0,1,279.53,56a2.87,2.87,0,0,0-.4.19v0c.25,1.38.66,3.08,1.16,4.81.45,1.52,1,3.08,1.51,4.48V64.26Zm0,6.54v.88A39.68,39.68,0,0,1,279.13,66V64.76a37.75,37.75,0,0,0,2.67,6Zm0,5.62v.82c-.69-1.13-1.33-2.12-1.89-2.93q-.41-.59-.78-1.17v-.82c.35.58.73,1.16,1.13,1.74s1,1.47,1.54,2.36Zm0,7.53v.84c-.66-1.13-1.33-2.23-2-3.31l-.69-1.14v-.83l1.06,1.75L281.8,84Zm0,8.56v.79c-.91-1.39-1.81-2.81-2.67-4.26V88.2c.86,1.46,1.76,2.91,2.67,4.31Zm0,7.11v.72q-1.37-1.83-2.67-3.89v-.81c.86,1.39,1.76,2.73,2.67,4Zm-2.67,3.32h0Zm0-46.77v0Zm0,8.59V66c-.29-.78-.55-1.55-.77-2.31a26.54,26.54,0,0,1-1.09-5.82c.13-.17.27-.34.4-.49a25.88,25.88,0,0,0,1.1,6.19c.11.38.23.76.36,1.15Zm0,7.56A28.31,28.31,0,0,1,276,65.1a25.91,25.91,0,0,1-.76-3.9c-.12.22-.23.45-.35.68a29.86,29.86,0,0,0,.7,3.34,29.13,29.13,0,0,0,3.55,7.92v-.82Zm0,7.19v.83a63.18,63.18,0,0,1-5.87-11.48V67.38c1,3.73,3.27,7.77,5.87,12.13Zm0,8.69,0-.06A76.11,76.11,0,0,1,273.26,76v1.23a78.27,78.27,0,0,0,5.47,11.14l.4.69V88.2Zm0,7.44v.81c-.68-1.08-1.35-2.2-2-3.35-1.42-2.52-2.73-5.14-3.88-7.72V84.32a94.79,94.79,0,0,0,4.26,8.57c.52.94,1.06,1.86,1.61,2.75Zm0,7.29a53.17,53.17,0,0,1-5.87-9.35v1a53.36,53.36,0,0,0,5.33,8.41h.54Zm-5.87,0V102c.17.3.35.6.52.91h-.49Zm-3.33,0,0,.1h0v-.1Zm3.33-35.46v1.48a18.6,18.6,0,0,1-.53-1.82l.27-.75c.08.36.16.72.26,1.09Zm0,8.6v1.23A36.72,36.72,0,0,1,271.42,71c.09-.31.18-.61.28-.91A30.92,30.92,0,0,0,273.26,76Zm0,8.34c-1.29-2.94-2.37-5.79-3.19-8.3l-.14.59V77c.87,2.59,2,5.47,3.33,8.43V84.32Zm0,9.26v1c-.6-1.17-1.15-2.33-1.64-3.49-.65-1.52-1.21-3-1.69-4.48V85.13A53.29,53.29,0,0,0,272,90.88c.38.89.79,1.79,1.24,2.7Zm0,8.45a56.18,56.18,0,0,1-3.33-6.89v1.12a56.31,56.31,0,0,0,3.33,6.63Zm-6.15-6.18c.11.35.23.7.35,1.05a55.17,55.17,0,0,0,2.47,5.94v.1h-.43a54.27,54.27,0,0,1-2.44-5.9l0,0c0-.38,0-.76.07-1.15Zm2.82-19.24V77l-.05-.14.05-.2Zm0,8.52v1.43c-.48-1.45-.87-2.84-1.2-4.18.07-.35.13-.7.2-1,.27,1.21.6,2.48,1,3.8Zm0,10-.06-.15a61.18,61.18,0,0,1-2.11-6.16c-.05.36-.09.72-.13,1.08.49,1.64,1.1,3.4,1.84,5.24l.46,1.11Z"/><path class="cls-4" d="M293.19,95c-.2.68-.43,1.36-.67,2.05a56.35,56.35,0,0,1-2.44,5.9h-.21v-.56a54.56,54.56,0,0,0,2.24-5.48c.37-1.06.7-2.1,1-3.1,0,.4.06.79.09,1.19Zm-3.32.73.24-.57A62.26,62.26,0,0,0,292.49,88l-.15-1.13a61.11,61.11,0,0,1-2.47,7.72v1.14Zm0-9.86V84.37a49.72,49.72,0,0,0,1.17-5c.08.37.15.74.23,1.11a52.31,52.31,0,0,1-1.4,5.37Zm0-9.59V74.85l.07-.23c.07.27.14.54.2.81S290,76,289.87,76.27Zm0,26.67h-.27l.27-.56v.56Zm0-28.09v1.42a91.31,91.31,0,0,1-3.42,8.81V84a87.05,87.05,0,0,0,3.42-9.16Zm0,9.52a55.13,55.13,0,0,1-2.31,6.51c-.34.8-.71,1.61-1.11,2.42v1C287,93.19,287.5,92.11,288,91c.75-1.77,1.39-3.51,1.91-5.18V84.37Zm0,10.21-.16.41a58.15,58.15,0,0,1-3.26,6.8v.87a55.59,55.59,0,0,0,3.42-6.94V94.58Zm-3.42-17.73a30.82,30.82,0,0,0,2-7.52c-.11-.35-.23-.7-.35-1a26.37,26.37,0,0,1-1.61,7.32v1.25Zm0-8.4V66.84a16.4,16.4,0,0,0,.34-2l.33.83A18.38,18.38,0,0,1,286.45,68.45Zm0-1.61v1.61c-1.16,3.68-3.44,7.62-6,11.85v-.83c2.73-4.56,5.09-8.76,6-12.63Zm0,8.76a73.44,73.44,0,0,1-6,12.54V89l.39-.65a78.1,78.1,0,0,0,5.6-11.5V75.6Zm0,8.41v1.07c-1.19,2.67-2.54,5.4-4,8-.63,1.13-1.29,2.24-2,3.32V95.6c.55-.88,1.08-1.79,1.6-2.71A96.13,96.13,0,0,0,286.45,84Zm0,9.29a52,52,0,0,1-6,9.6v0H281a52.66,52.66,0,0,0,5.47-8.67v-1Zm0,8.49v.87l-.16.28h-.5c.23-.38.45-.76.66-1.15Zm-6-28.69A28.7,28.7,0,0,0,284,65.22a26.67,26.67,0,0,0,.85-4.56c-.12-.23-.25-.45-.37-.66a27.26,27.26,0,0,1-.89,5.1,28.7,28.7,0,0,1-3.12,7.19v.81Zm0-7.12V64.69c.13-.36.24-.72.35-1.08a24.93,24.93,0,0,0,1.11-7,5.16,5.16,0,0,1,.42.4,25.8,25.8,0,0,1-1.12,6.67c-.22.74-.47,1.49-.76,2.25Zm0-9.92v-.17h0Zm0-.17v.17A44.35,44.35,0,0,1,279.28,61c-.44,1.5-.95,3-1.48,4.42V64.19c.38-1.06.74-2.19,1.07-3.3a42.09,42.09,0,0,0,1.19-5h.12a1.33,1.33,0,0,1,.28,0Zm0,8.8a37.43,37.43,0,0,1-2.66,6.07v.88A38.71,38.71,0,0,0,280.46,66V64.69Zm0,7.6v.81c-.25.4-.51.8-.79,1.21-.56.8-1.19,1.78-1.87,2.89v-.82c.54-.88,1.05-1.66,1.51-2.32s.8-1.19,1.15-1.77Zm0,7.18v.83l-.7,1.18c-.65,1.07-1.3,2.16-2,3.27v-.84c.53-.9,1.06-1.78,1.59-2.65l1.07-1.79Zm0,8.69V89c-.86,1.45-1.75,2.88-2.66,4.26v-.78c.91-1.41,1.81-2.86,2.66-4.32Zm0,7.44v.82c-.86,1.36-1.75,2.67-2.66,3.89v-.72c.91-1.25,1.8-2.59,2.66-4Zm0,7.3v0h0l0,0ZM277.8,59.17c.37-1,.7-1.93,1-2.77a4.75,4.75,0,0,0-.62.52c-.11.33-.23.66-.35,1Zm0-1.25v1.25c-.12.32-.25.64-.37,1-.85,2.19-1.84,4.49-2.72,6.29v-1c.77-1.65,1.59-3.59,2.32-5.45.27-.71.53-1.41.77-2.07Zm0,6.27a27.87,27.87,0,0,1-2.08,4.72c-.26.44-.61,1-1,1.65v.81l.29-.46c.44-.72.82-1.32,1.09-1.78a25.86,25.86,0,0,0,1.71-3.7V64.19Zm0,6.57v.88c-.37.64-.76,1.29-1.18,1.94-.61.94-1.25,2-1.91,3.17v-.86c.53-.92,1.05-1.77,1.55-2.54s1.07-1.73,1.54-2.59Zm0,5.62c-.95,1.52-2,3.33-3.09,5.3v.89c1.08-2,2.13-3.8,3.09-5.37v-.82Zm0,7.53v.84c-.51.87-1,1.75-1.53,2.65l-1.56,2.79v-.88c.4-.71.79-1.42,1.19-2.12.62-1.11,1.26-2.2,1.9-3.28Zm0,8.57v.78c-1,1.54-2.05,3-3.09,4.44V97c1-1.42,2.08-2.93,3.09-4.49Zm0,7.11v.72c-.7.93-1.4,1.81-2.12,2.63h-.57C276,101.92,276.92,100.79,277.8,99.59Zm-3.09-34.15v1c-.35.72-.68,1.36-1,1.88C273,69.54,272,71,271,72.52c.13-.44.25-.87.38-1.3.78-1.13,1.48-2.19,2-3.12.4-.7.87-1.63,1.35-2.66Zm0,5.12-.08.12c-1.39,2.26-3.48,5.63-5.42,9.21-.1.47-.19,1-.28,1.43,2-3.77,4.23-7.43,5.78-9.95v-.81Zm0,5.33v.86c-1.74,3.07-3.61,6.76-5.27,10.34-.71,1.53-1.38,3-2,4.46.05-.48.1-1,.16-1.43.45-1.05.94-2.13,1.44-3.21,1.79-3.84,3.8-7.82,5.66-11Zm0,5.79c-1.64,3-3.37,6.32-4.94,9.6-1,2.09-1.94,4.16-2.75,6.09,0,.42,0,.84,0,1.26.89-2.22,2-4.68,3.19-7.17,1.44-3,3-6.1,4.55-8.89v-.89Zm0,7.63c-.56,1-1.11,2-1.65,3-2.32,4.17-4.41,7.93-6.15,10.66h.5c1.73-2.73,3.77-6.4,6-10.45.42-.75.84-1.52,1.28-2.3v-.88Zm0,7.66v.73c-1.43,1.93-2.85,3.7-4.2,5.24H270C271.47,101.23,273.09,99.21,274.71,97Z"/><path class="cls-4" d="M273.58,64.81a26.47,26.47,0,0,1,4.7-.91,23.14,23.14,0,0,1,8.34.53c.07.16.13.33.2.5a22.2,22.2,0,0,0-8.49-.6,25.52,25.52,0,0,0-4.95,1l.2-.5Zm8.17-8.29a6.54,6.54,0,0,1,.5.45,25.53,25.53,0,0,0-3.92.12l-.39,0c.17-.18.34-.34.51-.49a27.77,27.77,0,0,1,3.3-.12Zm1.44,1.53c.11.14.23.3.34.46a25.09,25.09,0,0,0-5.2,0c-.57.06-1.13.13-1.68.22l.35-.49c.42-.06.85-.12,1.28-.16a25.14,25.14,0,0,1,4.91-.06Zm1.05,1.56.28.47a24.68,24.68,0,0,0-6.19-.1c-.92.1-1.82.24-2.67.41l.28-.49c.76-.14,1.54-.26,2.34-.34a24.77,24.77,0,0,1,6,0Zm.89,1.59q.12.22.24.48a23.75,23.75,0,0,0-7-.25,27.6,27.6,0,0,0-3.51.59l.24-.49a28.09,28.09,0,0,1,3.22-.53,24.58,24.58,0,0,1,6.85.2Zm.78,1.6a24.12,24.12,0,0,0-7.63-.35,27.66,27.66,0,0,0-4,.72l-.22.49a27.31,27.31,0,0,1,4.27-.78,22.94,22.94,0,0,1,7.8.42C286.06,63.13,286,63,285.91,62.8Z"/><path class="cls-5" d="M265.91,103.18V67.27l.13,0V65.69c0-.27-.05-.49-.13-.49h0V62.86a1.69,1.69,0,0,1,.26.8l.19.08v.45l.92.41-.66.6-.41,0,.06,2.12c.55.18.9.45.9.74v.56l-.86.67.22,8.72c.48.17.78.41.78.68v.56l-.74.61.19,7.61c.55.18.91.42.9.69v.55l-.86.65.21,8.24h1.12v5.53Zm0-40.32V65.2c-.07,0-.13.22-.13.49v1.55l.13,0v35.91h-.77v-36l.47.06V65.54a.48.48,0,0,0-.47-.49h0V62.16a.43.43,0,0,1,0,.07A1.65,1.65,0,0,1,265.91,62.86Zm-.77-.7v2.89a.49.49,0,0,0-.48.49v1.59l.48,0v36H264v-36l.47,0V65.54a.49.49,0,0,0-.48-.49h0V62.17a.62.62,0,0,1,.43-.23h0a.18.18,0,0,1,.17-.17.07.07,0,0,1-.07-.06.07.07,0,0,1,.07-.07.17.17,0,1,1,0-.33.07.07,0,0,1-.07-.07.07.07,0,0,1,.07-.06.18.18,0,0,1-.17-.17.17.17,0,0,1,.17-.16.07.07,0,0,1-.07-.07.07.07,0,0,1,.07-.06c-.24,0,0-.59,0-.59s.24.59,0,.59a.06.06,0,0,1,.06.06.07.07,0,0,1-.06.07.16.16,0,0,1,.16.16.17.17,0,0,1-.16.17.06.06,0,0,1,.06.06.07.07,0,0,1-.06.07.17.17,0,1,1,0,.33.07.07,0,0,1,.06.07.06.06,0,0,1-.06.06.17.17,0,0,1,.16.17h0A.68.68,0,0,1,265.14,62.16Zm-1.19,0v2.88a.48.48,0,0,0-.47.49v1.67l.47-.06v36h-.78V67.27l.13,0V65.69c0-.27-.06-.49-.13-.49h0V62.87a1.61,1.61,0,0,1,.75-.64A.09.09,0,0,1,264,62.17Zm-.78.7V65.2c-.07,0-.13.22-.13.49V67.3l.13,0v35.91H249.7V80.87l.08,0v-1c0-.17,0-.3-.08-.3h0V78.16a1,1,0,0,1,.16.49l.12,0V79l.56.25-.4.37-.25,0,0,1.3c.34.12.56.28.56.46v.35l-.53.41.13,5.36c.3.11.48.26.48.42v.35l-.45.38.11,4.68c.34.11.56.26.56.42v.34l-.53.4.08,3.14H262l.22-8.23-.86-.65v-.55a.31.31,0,0,1,0-.1h0c.08-.24.4-.45.9-.6l.19-7.6-.74-.62v-.55a.3.3,0,0,1,0-.1h0c.06-.23.34-.44.77-.6l.23-8.7-.86-.67v-.56a.38.38,0,0,1,0-.1h0c.07-.25.4-.48.9-.64l.05-2.12-.4,0-.66-.6.92-.41v-.45l.19-.08A1.75,1.75,0,0,1,263.17,62.87ZM249.7,78.16V79.6s-.08.13-.08.3v1h.08v22.31h-.48V80.8l.29,0v-1a.3.3,0,0,0-.3-.3h0V77.73l0,0A1,1,0,0,1,249.7,78.16Zm-.91,2.63h-.3v22.38h.73V80.8h-.29v-1a.29.29,0,0,1,.29-.3V77.73a.39.39,0,0,0-.26-.14h0a.1.1,0,0,0-.1-.11,0,0,0,0,0,0,0,0,0,0,0,0,0,0c.07,0,.12,0,.12-.1s0-.1-.12-.1a0,0,0,1,0,0-.08.1.1,0,0,0,.1-.1.1.1,0,0,0-.1-.11,0,0,0,0,0,0,0,0,0,0,0,0,0,0c.15,0,0-.36,0-.36s-.15.36,0,.36a0,0,0,0,0,0,0,0,0,0,0,0,0,0,.11.11,0,0,0-.1.11.11.11,0,0,0,.1.1,0,0,0,0,0,0,.08c-.07,0-.12,0-.12.1s0,.1.12.1a0,0,0,0,0,0,0,0,0,0,0,0,0,0,.11.11,0,0,0-.1.11h0a.41.41,0,0,0-.27.14v1.78h0a.29.29,0,0,1,.29.3Zm-.3,0-.29,0v-1a.29.29,0,0,1,.29-.3V77.73l0,0a1,1,0,0,0-.45.4V79.6h0s.08.13.08.3v1H248v22.31h.47ZM248,78.17V79.6c-.05,0-.08.13-.08.3v1l.08,0v22.31h-5.47V80.72l.09,0v-.25l-.09.11V78.91l.13-.18h1V76.6c-.05,0-.07,0-.07-.08s0-.07.1-.09a.18.18,0,0,1-.08-.17c0-.37-.25-.18-.25-.31s.09-.07.22-.1v0a.31.31,0,0,1,.25-.3s0,0,0-.06a.05.05,0,0,1,0,0,.08.08,0,0,1,0,0s-.06,0-.06-.06a.07.07,0,0,1,.06-.06.05.05,0,0,1,0-.08s-.05,0-.05,0a.06.06,0,0,1,.06-.05.06.06,0,0,1,0-.09.05.05,0,0,1,0,0s0-.28,0-.28.05.26.05.28a.05.05,0,0,1,0,0l0,0a.08.08,0,0,1,0,0,0,0,0,0,1,.05.05.07.07,0,0,1,0,0,0,0,0,0,1,0,.08.07.07,0,0,1,.06.06s0,0-.06.06a.08.08,0,0,1,0,0,.05.05,0,0,1,0,0,.11.11,0,0,1,0,.06.3.3,0,0,1,.24.3v0c.14,0,.22.06.22.1s-.22-.06-.25.31c0,.07,0,.13-.08.16s.11.06.11.1,0,.06-.07.08v4.45l.71.15V78.86s-.06,0-.06-.08,0-.07.1-.1-.08-.09-.08-.16c0-.37-.25-.18-.25-.31s.09-.08.22-.1v0a.31.31,0,0,1,.24-.3.08.08,0,0,0,0-.12.08.08,0,0,1,0,0s-.06,0-.06-.06,0,0,.06-.06a.05.05,0,0,1,0,0,.08.08,0,0,1,0,0s-.05,0-.05,0,0,0,.06-.05a.14.14,0,0,0,0-.12s0-.28,0-.28.05.25.05.28a.05.05,0,0,0,0,.08.05.05,0,0,1,0,0s.05,0,.05.05,0,0-.05,0a.05.05,0,0,1,0,0,.05.05,0,0,1,0,0s.06,0,.06.06,0,.05-.06.06a.08.08,0,0,1,0,0,.06.06,0,0,1,0,.06.08.08,0,0,1,0,.06.3.3,0,0,1,.24.3v0c.13,0,.22.06.22.1s-.22-.06-.25.31c0,.07,0,.13-.08.16s.1.06.1.1,0,0-.06.08v2.45h0l0,16.33h2.08l.09-3.14-.53-.4v-.34a.13.13,0,0,1,0-.06h0c0-.14.24-.27.55-.37l.12-4.68-.46-.37v-.35s0,0,0-.06h0c0-.14.21-.27.48-.36l.14-5.36-.53-.41v-.35a.13.13,0,0,1,0-.06h0c0-.16.24-.3.55-.4l0-1.3-.25,0-.4-.37.56-.25V78.7l.12,0A1,1,0,0,1,248,78.17Zm-5.47.74V80.6l-.09.1.09,0v22.45h-3V80.29h.75V77.87s-.07-.05-.07-.08,0-.07.1-.09a.16.16,0,0,1-.08-.16c0-.3-.17-.23-.22-.27l-.49.75V76.81l.56.35h0l.12,0v0a.3.3,0,0,1,.25-.3.14.14,0,0,1,0-.07.05.05,0,0,1,0,0s0,0,0,0a.06.06,0,0,1-.06,0s0,0,.06-.06a.06.06,0,0,1,0-.09.05.05,0,0,1,0,0s0,0,.05,0a.08.08,0,0,1,0,0,.05.05,0,0,1,0,0,.08.08,0,0,1,0,0s0-.28.05-.28,0,.25,0,.28a.08.08,0,0,1,0,0,.05.05,0,0,1,0,0,.08.08,0,0,1,0,0s0,0,0,0a.07.07,0,0,1,0,0,.06.06,0,0,1,0,.09s.06,0,.06.06a.06.06,0,0,1-.06,0s0,0,0,0a.05.05,0,0,1,0,0,.14.14,0,0,1,0,.07.29.29,0,0,1,.24.3v0c.14,0,.22.06.22.1s-.22-.07-.25.3c0,.08,0,.13-.08.17s.11,0,.11.09,0,.06-.07.08v2.47l.63.13.26-.34v-.81a.06.06,0,0,1,0-.06s0-.05.08-.07-.06-.06-.06-.12c0-.28-.18-.13-.18-.23s.06-.06.16-.08h0a.23.23,0,0,1,.18-.23.08.08,0,0,1,0,0s0,0,0,0a0,0,0,0,1,0,0s0,0,0,0a.05.05,0,0,1,0,0s0,0,0,0,0,0,0,0,0,0,0,0,0,0,0,0,0,0,0,0,0,0,0,0,0,0,0,0,0-.21,0-.21,0,.19,0,.21,0,0,0,0,0,0,0,0,0,0,0,0,0,0,0,0,0,0,0,0,0,0,0,0,0,0,0,0,0,0,0,0,0,0,0,0,0,0,0,0,0,0,0,0a.08.08,0,0,1,0,0,.23.23,0,0,1,.18.23h0c.1,0,.17,0,.17.08s-.17,0-.19.23c0,.05,0,.1-.06.12s.08,0,.08.07a.06.06,0,0,1-.05.06v.38Zm-3-2.1V78l-.06.09-.72.09.09,2.09h.69v22.88h-1.32V80.29h.24v-1.4c0-.43-.11-.79-.24-.79h0V74.34a2.56,2.56,0,0,1,.47,1.29l.34.13v.72Zm-1.32-2.47V78.1c-.13,0-.23.36-.23.79v1.4h.23v22.88h-1.38V80.29h.84V78.65a.82.82,0,0,0-.84-.79h0V73.21a.41.41,0,0,1,.07.11A2.84,2.84,0,0,1,238.19,74.34Zm-1.38-1.13v4.65a.83.83,0,0,0-.85.79v1.64h.85v22.88h-2.12V80.29h.85V78.65a.82.82,0,0,0-.84-.79h0V73.22a1.24,1.24,0,0,1,.78-.36v0a.28.28,0,0,1,.29-.27.11.11,0,1,1,0-.21c-.2,0-.36-.12-.36-.27s.16-.27.36-.27c-.07,0-.12,0-.12-.1a.11.11,0,0,1,.12-.11.27.27,0,1,1,0-.53.11.11,0,1,1,0-.21c-.43,0,0-.94,0-.94s.42.94,0,.94a.11.11,0,0,1,.11.11.11.11,0,0,1-.11.1.27.27,0,1,1,0,.53.11.11,0,0,1,.11.11.1.1,0,0,1-.11.1.28.28,0,1,1,0,.54.11.11,0,0,1,.11.11.11.11,0,0,1-.11.1.28.28,0,0,1,.29.27v0A1.29,1.29,0,0,1,236.81,73.21Zm-2.12,0v4.64a.82.82,0,0,0-.84.79v1.64h.84v22.88h-1.38V80.29h.23v-1.4c0-.43-.1-.79-.23-.79h0V74.35a2.94,2.94,0,0,1,1.32-1l.06-.1Zm-1.38,0a10.06,10.06,0,0,0,0-4.63Zm0-4.63v4.63a10,10,0,0,1-.37,1.21v.68a2.54,2.54,0,0,1,.37-.78V78.1c-.13,0-.24.36-.24.79v1.4h.24v22.88h-18.8V80.28h.24V78.89c0-.43-.11-.79-.24-.79h0V74.34a2.51,2.51,0,0,1,.38.79V72.71a10.43,10.43,0,0,1-.16-1.78,9.81,9.81,0,0,1,5.39-8.8.23.23,0,0,1-.06-.16.18.18,0,0,0,.16,0,.34.34,0,0,1-.15-.3.33.33,0,0,0,.29,0,.26.26,0,0,1-.12-.28.52.52,0,0,0,.44,0,.25.25,0,0,1,0-.29.66.66,0,0,0,.53,0,.2.2,0,0,1,.06-.28c.54.16.86-.39,1.07-.63a4.66,4.66,0,0,1,.86-.78h0c-.08-.21.12-.32.2-.35s.15-.24.21-.39a.65.65,0,0,1,.42-.34c-.05,0-.08,0-.08-.05a.45.45,0,0,1,.07-.85s-.07,0-.07-.06,0,0,.07-.06a.53.53,0,0,1-.43-.57c0-.4.41-.66.44-.85v0s-.06,0-.06,0,0,0,.05,0-.06-.09-.1-.14,0-.12.1-.13h0a0,0,0,0,1,0,0s-.06,0-.06,0,0,0,.07,0a.05.05,0,0,1,0,0h0a.35.35,0,0,1,0-.67s-.05,0-.05,0,.05-.05.11-.06a.1.1,0,0,1-.07-.1.11.11,0,0,1,.08-.1.14.14,0,0,1,0-.06.05.05,0,0,1,0-.05s0,0,0,0,0,0,0,0a.08.08,0,0,1,0,0h0a.56.56,0,0,1-.49-.56v-.07A.55.55,0,0,0,224,54v0a.11.11,0,0,1,.08-.11.06.06,0,0,1,0-.06h0a.17.17,0,0,1-.12-.17.17.17,0,0,1,.14-.17s0,0,0,0,0,0,0,0h0l0,0a.09.09,0,0,0-.08,0v0a.07.07,0,0,1,.08-.08h0a.16.16,0,1,1,.15,0h0a.07.07,0,0,1,.07.08v0a.08.08,0,0,0-.08,0h0l0,0s0,0,0,0a.09.09,0,0,1,0,0,.17.17,0,0,1,.14.17.18.18,0,0,1-.13.17h0a.08.08,0,0,1,0,.06.11.11,0,0,1,.08.11.06.06,0,0,1,0,0,.54.54,0,0,0,.44-.49.17.17,0,0,1,0,.07.56.56,0,0,1-.5.56h0a.07.07,0,0,1,0,0s0,0,0,0,0,0-.05,0a.08.08,0,0,1,0,.05.14.14,0,0,1,0,.06.1.1,0,0,1,.08.1.1.1,0,0,1-.07.1c.07,0,.11,0,.11.06s0,0-.05,0a.35.35,0,0,1,0,.67h0s0,0,0,0,.06,0,.06,0,0,0-.05,0v0h0c.1,0,.17.07.1.13s-.09.07-.1.14.05,0,.05,0,0,0-.05,0v0c0,.19.44.45.44.85a.53.53,0,0,1-.43.57s.07,0,.07.06,0,0-.07.06a.45.45,0,0,1,.07.85.1.1,0,0,1-.08.05.65.65,0,0,1,.42.34c.06.15.12.36.2.39s.25.12.23.29h0a4,4,0,0,1,1,.84c.21.24.52.8,1.06.63a.2.2,0,0,1,.07.28.66.66,0,0,0,.53,0,.23.23,0,0,1-.05.29.54.54,0,0,0,.45,0,.27.27,0,0,1-.13.28.33.33,0,0,0,.29,0,.36.36,0,0,1-.14.3.15.15,0,0,0,.16,0,.38.38,0,0,1-.06.16A9.7,9.7,0,0,1,233.31,68.61Zm-18.8,5.73V78.1c-.13,0-.23.36-.23.79v1.39h.23v22.89h-1.38V80.28H214V78.65a.82.82,0,0,0-.84-.79h0V73.21a.61.61,0,0,1,.07.1A2.93,2.93,0,0,1,214.51,74.34Zm-1.38-1.13v4.65a.83.83,0,0,0-.85.79v1.63h.85v22.89H211V80.28h.85V78.65a.82.82,0,0,0-.84-.79h0V73.22a1.25,1.25,0,0,1,.78-.37v0a.28.28,0,0,1,.29-.26.11.11,0,1,1,0-.21c-.2,0-.36-.12-.35-.27s.15-.27.35-.27a.11.11,0,1,1,0-.21.27.27,0,1,1,0-.53A.11.11,0,0,1,212,71a.12.12,0,0,1,.12-.1c-.43,0,0-1,0-1s.43,1,0,1a.11.11,0,0,1,.11.1.11.11,0,0,1-.11.11.27.27,0,1,1,0,.53.11.11,0,0,1,.11.11.11.11,0,0,1-.11.1.28.28,0,1,1,0,.54.11.11,0,0,1,.11.1.11.11,0,0,1-.11.11.28.28,0,0,1,.29.26v0A1.24,1.24,0,0,1,213.13,73.21Zm-2.12,0v4.64a.82.82,0,0,0-.84.79v1.63H211v22.89h-1.38V80.28h.23V78.89c0-.43-.1-.79-.23-.79h0V74.35a3,3,0,0,1,1.32-1Zm-1.38,1.13V78.1c-.13,0-.23.36-.23.79v1.39h.24v22.89h-1.32V80.28H209l.09-2.09-.72-.08-.06-.1V76.8l.52-.32v-.72l.34-.14A2.61,2.61,0,0,1,209.63,74.35Zm-1.32,2.45V78l-.48-.74c-.05,0-.2,0-.22.26,0,.08,0,.13-.08.17s.09,0,.09.09a.09.09,0,0,1-.06.08v2.41h.75v22.89h-3V80.72l.09,0-.09-.11V78.9l.61.79v-.37s0,0,0-.06,0-.06.08-.07a.14.14,0,0,1,0-.13c0-.28-.19-.12-.19-.23s.06,0,.16-.07v0a.23.23,0,0,1,.18-.22.08.08,0,0,1,0,0,.05.05,0,0,1,0,0s0,0,0,0a.07.07,0,0,1,0-.05s0,0,0,0a0,0,0,0,1,0,0s0,0,0,0a0,0,0,0,1,0,0,0,0,0,0,1,0,0,.05.05,0,0,1,0,0l0,0a0,0,0,0,1,0,0s0-.22,0-.22,0,.19,0,.22a0,0,0,0,1,0,0s0,0,0,0a.05.05,0,0,1,0,0,0,0,0,0,1,0,0,0,0,0,0,1,0,0,.05.05,0,0,1,0,0s0,0,0,0,0,0,0,0,0,0,0,.05,0,0,0,0,0,0,0,0a.08.08,0,0,1,0,0,.23.23,0,0,1,.18.22v0c.1,0,.17,0,.17.07s-.16,0-.19.24a.12.12,0,0,1-.06.12c.05,0,.08,0,.08.07s0,0-.05.06v.81l.26.33.63-.13V77.87a.09.09,0,0,1-.06-.08s0-.07.1-.1-.07-.09-.08-.16c0-.37-.25-.17-.25-.3s.09-.08.22-.11v0a.3.3,0,0,1,.24-.3.11.11,0,0,1,0-.06.08.08,0,0,1,0,0s0,0,0,0-.06,0-.06-.06,0,0,0,0a.09.09,0,0,1,0,0,.05.05,0,0,1,0,0s-.05,0-.05,0a.06.06,0,0,1,.06,0,.08.08,0,0,1,0,0,.06.06,0,0,1,0,0s0,0,0,0,0-.28.05-.28a1.16,1.16,0,0,1,0,.28.05.05,0,0,1,0,0,.08.08,0,0,1,0,0,.05.05,0,0,1,0,0s.06,0,.06,0,0,0,0,0,0,0,0,0a.09.09,0,0,1,0,0s.06,0,.06,0,0,0-.07.06,0,0,0,0a.08.08,0,0,1,0,0,.11.11,0,0,1,0,.06.3.3,0,0,1,.24.3v0l.12,0h0Zm-3,2.1v1.69l-.09-.1v.25l.09,0v22.45H199.8V80.87l.08,0v-1c0-.16,0-.3-.08-.3h0V78.15a1.09,1.09,0,0,1,.16.5l.12,0V79l.57.26-.41.36-.25,0,0,1.3c.3.1.51.24.55.4h0a.13.13,0,0,1,0,.06v.34l-.53.41.13,5.36c.27.1.44.22.48.37h0s0,0,0,.06v.34l-.46.38.11,4.67c.31.1.51.23.55.37h0a.15.15,0,0,1,0,.07v.34l-.53.4.08,3.14h2.08V81.3h0V78.85a.09.09,0,0,1-.06-.08s0-.07.1-.09-.07-.09-.08-.17c0-.37-.25-.16-.25-.3s.09-.08.22-.1v0a.3.3,0,0,1,.24-.3.09.09,0,0,1,0-.06.05.05,0,0,1,0,0s0,0,0,0-.06,0-.06-.05a.06.06,0,0,1,.05-.06.06.06,0,0,1,0,0,.08.08,0,0,1,0,0s-.05,0-.05,0,0,0,.06-.05a.08.08,0,0,1,0,0s0,0,0,0a.06.06,0,0,1,0,0s0-.28,0-.28a1.08,1.08,0,0,1,.05.28.08.08,0,0,1,0,0,.05.05,0,0,1,0,0,.05.05,0,0,1,0,0s.06,0,.06.05,0,0-.05,0,0,0,0,0a.06.06,0,0,1,0,0s.06,0,.06.06,0,0-.07.05,0,0,0,0a.08.08,0,0,1,0,0,.14.14,0,0,1,0,.06.3.3,0,0,1,.24.3v0c.13,0,.22.06.22.1s-.21-.06-.24.31c0,.07,0,.13-.08.16s.09.06.09.09a.09.09,0,0,1-.06.08V81.2l.71-.15V76.59a.09.09,0,0,1-.06-.08s0-.07.1-.09a.19.19,0,0,1-.07-.16c0-.38-.26-.17-.26-.31s.09-.08.22-.1v0a.3.3,0,0,1,.24-.3.09.09,0,0,1,0-.07.05.05,0,0,1,0,0,.05.05,0,0,1,0,0,.07.07,0,0,1-.06-.06s0,0,.06-.06a.06.06,0,0,1,0-.09s0,0,0,0,0,0,.06,0a.05.05,0,0,1,0-.08.08.08,0,0,1,0,0s0-.28,0-.28.05.25.05.28a.08.08,0,0,1,0,0,0,0,0,0,1,0,.08s.05,0,.05,0,0,0-.05,0a.05.05,0,0,1,0,0,.08.08,0,0,1,0,0s.06,0,.06.06,0,0-.06.06a.05.05,0,0,1,0,0,.05.05,0,0,1,0,0,.14.14,0,0,1,0,.07.29.29,0,0,1,.24.3v0c.14,0,.22.06.22.1s-.21-.06-.24.31c0,.07,0,.13-.08.16s.1.06.1.09,0,.06-.07.08v2.14h1Zm-5.47-.75v1.44s-.08.14-.08.3v1l.08,0v22.3h-.47V80.8l.29,0v-1a.3.3,0,0,0-.29-.3h0V77.72s0,0,0,0A1,1,0,0,1,199.8,78.15Zm-.47-.43V79.5a.31.31,0,0,0-.3.3v1l.3,0v22.37h-.73V80.8l.29,0v-1a.3.3,0,0,0-.29-.3h0V77.73a.39.39,0,0,1,.26-.14h0a.1.1,0,0,1,.1-.1,0,0,0,0,1,0-.08.11.11,0,1,1,0-.21,0,0,0,0,1,0-.08.1.1,0,0,1,0-.2,0,0,0,0,1,0-.08c-.14,0,0-.36,0-.36s.15.36,0,.36a0,0,0,0,1,0,.08.1.1,0,0,1,0,.2,0,0,0,0,1,0,.08.11.11,0,1,1,0,.21,0,0,0,1,1,0,.08.09.09,0,0,1,.1.1h0A.49.49,0,0,1,199.33,77.72Zm-.73,0V79.5a.31.31,0,0,0-.3.3v1a2.77,2.77,0,0,1,.3,0v22.37h-.48V80.87l.08,0v-1c0-.16,0-.3-.08-.3h0V78.16a1.08,1.08,0,0,1,.45-.4Zm-.48.43v1.43c-.05,0-.08.14-.08.3v1l.08,0v22.3H184.67V67.26l.13,0V65.68c0-.27-.06-.49-.13-.49h0V62.85a1.8,1.8,0,0,1,.26.8l.19.09v.44l.92.41-.67.6-.4,0,.05,2.12c.49.16.83.39.9.65h0s0,.06,0,.09v.56l-.86.68.21,8.7c.43.15.71.36.77.59h0a.36.36,0,0,1,0,.1v.56l-.74.61.18,7.6c.5.16.82.37.89.6h0a.36.36,0,0,1,0,.1v.56l-.86.64.2,8.24h11.71l.08-3.14-.53-.4v-.35c0-.16.21-.31.56-.42l.12-4.68-.46-.38v-.34c0-.17.19-.31.49-.42l.14-5.36-.53-.42v-.34c0-.19.22-.35.56-.46l0-1.3-.25,0-.4-.37.56-.25V78.7l.12,0A1,1,0,0,1,198.12,78.16ZM184.67,62.85v2.34c-.07,0-.13.22-.13.49v1.55l.13,0v35.91h-.78v-36l.47.06V65.53a.48.48,0,0,0-.47-.49h0V62.15a.16.16,0,0,1,0,.07A1.68,1.68,0,0,1,184.67,62.85Zm-.78-.7V65a.48.48,0,0,0-.47.49v1.59l.47,0v36h-1.18v-36l.47,0V65.53a.48.48,0,0,0-.47-.49h0V62.16a.67.67,0,0,1,.43-.23h0a.17.17,0,0,1,.16-.17.06.06,0,0,1-.06-.06.07.07,0,0,1,.06-.07.18.18,0,0,1-.2-.16.19.19,0,0,1,.2-.17.07.07,0,0,1-.06-.07.06.06,0,0,1,.06-.06.16.16,0,0,1-.16-.17.16.16,0,0,1,.16-.16.07.07,0,0,1-.06-.07.06.06,0,0,1,.06-.06c-.24,0,0-.59,0-.59s.24.59,0,.59a.07.07,0,0,1,.07.06.07.07,0,0,1-.07.07.16.16,0,0,1,.16.16.16.16,0,0,1-.16.17.07.07,0,0,1,.07.06.07.07,0,0,1-.07.07.17.17,0,1,1,0,.33s.06,0,.06.07a.06.06,0,0,1-.06.06.17.17,0,0,1,.16.17h0A.66.66,0,0,1,183.89,62.15Zm-1.18,0V65a.49.49,0,0,0-.48.49V67.2l.48-.06v36h-.78V67.26l.13,0V65.68c0-.27-.06-.49-.13-.49h0V62.86a1.7,1.7,0,0,1,.74-.64Zm-.78.7v2.33c-.07,0-.13.22-.13.49v1.61l.13,0v35.91H180V97.64h.77L181,89.4l-.86-.65V88.2c0-.27.35-.51.91-.69l.2-7.61-.74-.61v-.56c0-.27.3-.51.79-.68l.22-8.71-.86-.68V68.1c0-.29.36-.56.91-.74l.06-2.12-.41,0-.66-.6.92-.41v-.44l.19-.09A1.65,1.65,0,0,1,181.93,62.86Z"/><rect class="cls-3" x="288.08" y="69.33" width="37.38" height="33.83"/><rect class="cls-4" x="289.64" y="75.07" width="5.96" height="1.74"/><rect class="cls-4" x="289.64" y="78.1" width="5.96" height="1.74"/><rect class="cls-4" x="289.64" y="81.13" width="5.96" height="1.74"/><rect class="cls-4" x="289.64" y="84.16" width="5.96" height="1.74"/><rect class="cls-4" x="289.64" y="87.19" width="5.96" height="1.74"/><rect class="cls-4" x="289.64" y="90.22" width="5.96" height="1.74"/><rect class="cls-4" x="289.64" y="93.25" width="5.96" height="1.74"/><rect class="cls-4" x="289.64" y="96.28" width="5.96" height="1.74"/><rect class="cls-4" x="289.64" y="99.31" width="5.96" height="1.74"/><rect class="cls-4" x="296.72" y="75.07" width="5.96" height="1.74"/><rect class="cls-4" x="296.72" y="78.1" width="5.96" height="1.74"/><rect class="cls-4" x="296.72" y="81.13" width="5.96" height="1.74"/><rect class="cls-4" x="296.72" y="84.16" width="5.96" height="1.74"/><rect class="cls-4" x="296.72" y="87.19" width="5.96" height="1.74"/><rect class="cls-4" x="296.72" y="90.22" width="5.96" height="1.74"/><rect class="cls-4" x="296.72" y="93.25" width="5.96" height="1.74"/><rect class="cls-4" x="296.72" y="96.28" width="5.96" height="1.74"/><rect class="cls-4" x="296.72" y="99.31" width="5.96" height="1.74"/><rect class="cls-4" x="303.79" y="75.07" width="5.96" height="1.74"/><rect class="cls-4" x="303.79" y="78.1" width="5.96" height="1.74"/><rect class="cls-4" x="303.79" y="81.13" width="5.96" height="1.74"/><rect class="cls-4" x="303.79" y="84.16" width="5.96" height="1.74"/><rect class="cls-4" x="303.79" y="87.19" width="5.96" height="1.74"/><rect class="cls-4" x="303.79" y="90.22" width="5.96" height="1.74"/><rect class="cls-4" x="303.79" y="93.25" width="5.96" height="1.74"/><rect class="cls-4" x="303.79" y="96.28" width="5.96" height="1.74"/><rect class="cls-4" x="303.79" y="99.31" width="5.96" height="1.74"/><rect class="cls-4" x="310.86" y="75.07" width="5.96" height="1.74"/><rect class="cls-4" x="310.86" y="78.1" width="5.96" height="1.74"/><rect class="cls-4" x="310.86" y="81.13" width="5.96" height="1.74"/><rect class="cls-4" x="310.86" y="84.16" width="5.96" height="1.74"/><rect class="cls-4" x="310.86" y="87.19" width="5.96" height="1.74"/><rect class="cls-4" x="310.86" y="90.22" width="5.96" height="1.74"/><rect class="cls-4" x="310.86" y="93.25" width="5.96" height="1.74"/><rect class="cls-4" x="310.86" y="96.28" width="5.96" height="1.74"/><rect class="cls-4" x="310.86" y="99.31" width="5.96" height="1.74"/><rect class="cls-4" x="317.94" y="75.07" width="5.96" height="1.74"/><rect class="cls-4" x="317.94" y="78.1" width="5.96" height="1.74"/><rect class="cls-4" x="317.94" y="81.13" width="5.96" height="1.74"/><rect class="cls-4" x="317.94" y="84.16" width="5.96" height="1.74"/><rect class="cls-4" x="317.94" y="87.19" width="5.96" height="1.74"/><rect class="cls-4" x="317.94" y="90.22" width="5.96" height="1.74"/><rect class="cls-4" x="317.94" y="93.25" width="5.96" height="1.74"/><rect class="cls-4" x="317.94" y="96.28" width="5.96" height="1.74"/><rect class="cls-4" x="317.94" y="99.31" width="5.96" height="1.74"/><polygon class="cls-5" points="337.29 80.54 342.51 80.54 339.9 61 337.29 80.54"/><rect class="cls-3" x="322.93" y="71.11" width="8.22" height="31.24"/><rect class="cls-4" x="324.27" y="75.31" width="2.24" height="5.23"/><rect class="cls-4" x="327.57" y="75.31" width="2.24" height="5.23"/><path class="cls-2" d="M325.39,77a1.76,1.76,0,1,1,1.12-1.64A1.86,1.86,0,0,1,325.39,77Z"/><path class="cls-2" d="M328.69,77a1.76,1.76,0,1,1,1.12-1.64A1.86,1.86,0,0,1,328.69,77Z"/><rect class="cls-4" x="325.92" y="91.5" width="2.24" height="5.23"/><path class="cls-2" d="M327,93.14a1.84,1.84,0,0,1-1.12-1.64,1.2,1.2,0,1,1,2.24,0A1.84,1.84,0,0,1,327,93.14Z"/><rect class="cls-4" x="322.93" y="70.78" width="8.22" height="0.33"/><rect class="cls-3" x="322.93" y="67.73" width="8.22" height="3.06"/><rect class="cls-3" x="322.93" y="64.56" width="1.5" height="3.17"/><polygon class="cls-5" points="322.93 64.56 324.43 64.56 323.68 62.14 322.93 64.56"/><rect class="cls-3" x="329.65" y="64.56" width="1.5" height="3.17"/><polygon class="cls-5" points="329.65 64.56 331.15 64.56 330.4 62.14 329.65 64.56"/><rect class="cls-3" x="331.15" y="80.54" width="17.5" height="21.81"/><path class="cls-4" d="M336.63,98h.68V90a1,1,0,0,0-.21-.59,1.3,1.3,0,0,0-.47-.39V88.8l.06,0a1.58,1.58,0,0,1,.65.5,1.14,1.14,0,0,1,.24.7v8.16h-.95ZM336,98h.68v.22h-1V90a1.21,1.21,0,0,1,.24-.7,1.64,1.64,0,0,1,.65-.5l.07,0v.25a1.33,1.33,0,0,0-.48.39,1,1,0,0,0-.2.59Z"/><path class="cls-4" d="M339.08,98.19h-.82V98h.68V90a1,1,0,0,0-.2-.59,1.33,1.33,0,0,0-.48-.39h0V88.8h0l.07,0a1.64,1.64,0,0,1,.65.5,1.21,1.21,0,0,1,.24.7v8.16Zm-.82,0h-.95V90a1.14,1.14,0,0,1,.24-.7,1.58,1.58,0,0,1,.65-.5l.06,0v.25a1.38,1.38,0,0,0-.47.39,1,1,0,0,0-.21.59V98h.68Z"/><path class="cls-4" d="M339.9,98h.68V89.58a1.08,1.08,0,0,0-.21-.62,1.47,1.47,0,0,0-.47-.42v-.25l.07,0a1.71,1.71,0,0,1,.65.53,1.3,1.3,0,0,1,.24.73v8.61h-1Zm-.68,0h.68v.22h-1V89.58a1.3,1.3,0,0,1,.24-.73,1.71,1.71,0,0,1,.65-.53l.07,0v.25a1.37,1.37,0,0,0-.47.42,1,1,0,0,0-.21.62Z"/><path class="cls-4" d="M342.35,98.19h-.82V98h.68V90a1,1,0,0,0-.2-.59,1.33,1.33,0,0,0-.48-.39V88.8l.07,0a1.64,1.64,0,0,1,.65.5,1.21,1.21,0,0,1,.24.7v8.16Zm-.82,0h-.95V90a1.21,1.21,0,0,1,.24-.7,1.64,1.64,0,0,1,.65-.5l.06,0v.25a1.38,1.38,0,0,0-.47.39,1,1,0,0,0-.2.59V98h.67Z"/><path class="cls-4" d="M343.17,98h.68V90a1.07,1.07,0,0,0-.2-.59,1.42,1.42,0,0,0-.48-.39V88.8l.07,0a1.64,1.64,0,0,1,.65.5,1.21,1.21,0,0,1,.24.7v8.16h-1Zm-.68,0h.68v.22h-1V90a1.15,1.15,0,0,1,.25-.7,1.61,1.61,0,0,1,.64-.5l.07,0v.25a1.42,1.42,0,0,0-.48.39,1.07,1.07,0,0,0-.2.59Z"/><path class="cls-2" d="M339.9,98.39h4.54V87.63c0-1.45-1.83-2.71-4.54-3.37v.28c2.52.6,4.23,1.73,4.23,3v9.7H339.9Zm-4.55,0h4.55V97.28h-4.23v-9.7h0c0-1.31,1.7-2.44,4.23-3v-.28c-2.71.66-4.55,1.92-4.55,3.37h0Z"/><rect class="cls-4" x="335.81" y="95.52" width="8.18" height="6.83"/><path class="cls-2" d="M339.9,99.72c-2.44-.83-4.09-2.4-4.09-4.2s1.65-3.37,4.09-4.2c2.44.83,4.09,2.4,4.09,4.2S342.34,98.89,339.9,99.72Z"/><path class="cls-5" d="M342.74,102.35a1.14,1.14,0,0,0,.1-.45V95.31c0-.94-1.32-1.71-2.94-1.71h0c-1.62,0-2.94.77-2.94,1.71v6.59a1,1,0,0,0,.1.45Z"/><rect class="cls-4" x="334.67" y="95.11" width="1.66" height="5.78"/><path class="cls-2" d="M335.5,96.92a2.39,2.39,0,0,0,0-3.62,2.39,2.39,0,0,0,0,3.62Z"/><rect class="cls-4" x="343.45" y="95.11" width="1.66" height="5.78"/><ellipse class="cls-4" cx="344.27" cy="95.11" rx="0.83" ry="1.81"/><rect class="cls-6" x="331.15" y="100.53" width="17.5" height="1.82"/><rect class="cls-3" x="331.15" y="102.12" width="17.5" height="0.72"/><rect class="cls-4" x="331.15" y="101.9" width="17.5" height="0.23"/><rect class="cls-4" x="331.15" y="101.44" width="17.5" height="0.23"/><rect class="cls-3" x="331.15" y="101.67" width="17.5" height="0.23"/><rect class="cls-4" x="331.15" y="100.99" width="17.5" height="0.23"/><rect class="cls-3" x="331.15" y="101.21" width="17.5" height="0.23"/><rect class="cls-4" x="331.15" y="100.53" width="17.5" height="0.23"/><rect class="cls-3" x="331.15" y="100.76" width="17.5" height="0.23"/><path class="cls-4" d="M336,89.8c0,.06-.06.1-.14.1s-.14,0-.14-.1a2.65,2.65,0,0,1,.48-1.4,3.68,3.68,0,0,1,1.19-1.11.17.17,0,0,1,.2,0,.1.1,0,0,1,0,.15,3.51,3.51,0,0,0-1.11,1A2.5,2.5,0,0,0,336,89.8Z"/><path class="cls-4" d="M339.19,89.8c0,.06-.06.1-.14.1s-.13,0-.13-.1a2.44,2.44,0,0,0-.46-1.3,3.4,3.4,0,0,0-1.11-1,.09.09,0,0,1,0-.15.15.15,0,0,1,.19,0,3.68,3.68,0,0,1,1.19,1.11A2.65,2.65,0,0,1,339.19,89.8Z"/><path class="cls-4" d="M340.85,89.8c0,.06-.06.1-.14.1s-.14,0-.14-.1a2.69,2.69,0,0,1,.49-1.4,3.62,3.62,0,0,1,1.2-1.11.15.15,0,0,1,.19,0,.09.09,0,0,1,0,.15,3.6,3.6,0,0,0-1.13,1A2.5,2.5,0,0,0,340.85,89.8Z"/><path class="cls-4" d="M344.12,89.8c0,.06-.06.1-.14.1s-.14,0-.14-.1a2.44,2.44,0,0,0-.46-1.3,3.45,3.45,0,0,0-1.12-1,.1.1,0,0,1,0-.15.17.17,0,0,1,.2,0,3.62,3.62,0,0,1,1.2,1.11A2.69,2.69,0,0,1,344.12,89.8Z"/><path class="cls-4" d="M339.9,84.57a3.33,3.33,0,0,1,1.92.56,1.57,1.57,0,0,1,0,2.75,3.33,3.33,0,0,1-1.92.56v-.21a3.08,3.08,0,0,0,1.74-.51,1.39,1.39,0,0,0,0-2.43,3.08,3.08,0,0,0-1.74-.51Zm0,3.87a3.33,3.33,0,0,1-1.92-.56,1.57,1.57,0,0,1,0-2.75,3.33,3.33,0,0,1,1.92-.56v.21a3.08,3.08,0,0,0-1.74.51,1.39,1.39,0,0,0,0,2.43,3.08,3.08,0,0,0,1.74.51Z"/><path class="cls-4" d="M337.47,87.73a1.11,1.11,0,0,1,.67.2.6.6,0,0,1,.29.49.62.62,0,0,1-.29.49,1.18,1.18,0,0,1-.67.2v-.22a.86.86,0,0,0,.49-.14.41.41,0,0,0,.19-.33.4.4,0,0,0-.19-.33.86.86,0,0,0-.49-.15Zm0,1.38a1.18,1.18,0,0,1-.67-.2.62.62,0,0,1-.29-.49.6.6,0,0,1,.29-.49,1.11,1.11,0,0,1,.67-.2v.21a.86.86,0,0,0-.49.15.4.4,0,0,0-.19.33.41.41,0,0,0,.19.33.86.86,0,0,0,.49.14Z"/><path class="cls-4" d="M342.34,87.73a1.11,1.11,0,0,1,.67.2.6.6,0,0,1,.29.49.62.62,0,0,1-.29.49,1.18,1.18,0,0,1-.67.2h0v-.22h0a.86.86,0,0,0,.49-.14.41.41,0,0,0,.19-.33.4.4,0,0,0-.19-.33.86.86,0,0,0-.49-.15h0v-.21Zm0,1.38a1.18,1.18,0,0,1-.67-.2.62.62,0,0,1-.29-.49.6.6,0,0,1,.29-.49,1.11,1.11,0,0,1,.67-.2v.21a.86.86,0,0,0-.49.15.4.4,0,0,0-.19.33.41.41,0,0,0,.19.33.86.86,0,0,0,.49.14Z"/><path class="cls-4" d="M339.9,84.57a1.18,1.18,0,0,1,.67.19.57.57,0,0,1,0,1,1.18,1.18,0,0,1-.67.19v-.21a.94.94,0,0,0,.49-.14.39.39,0,0,0,0-.67.94.94,0,0,0-.49-.14Zm0,1.37a1.18,1.18,0,0,1-.67-.19.57.57,0,0,1,0-1,1.18,1.18,0,0,1,.67-.19v.21a.94.94,0,0,0-.49.14.39.39,0,0,0,0,.67.94.94,0,0,0,.49.14Z"/><path class="cls-4" d="M339.9,87.07a1.18,1.18,0,0,1,.67.19.57.57,0,0,1,0,1,1.18,1.18,0,0,1-.67.19v-.21a.94.94,0,0,0,.49-.14.39.39,0,0,0,0-.67.94.94,0,0,0-.49-.14Zm0,1.37a1.18,1.18,0,0,1-.67-.19.57.57,0,0,1,0-1,1.18,1.18,0,0,1,.67-.19v.21a.94.94,0,0,0-.49.14.39.39,0,0,0,0,.67.94.94,0,0,0,.49.14Z"/><path class="cls-4" d="M342.63,86.5a.62.62,0,0,1-.29.5,1.18,1.18,0,0,1-.67.19V87a.88.88,0,0,0,.48-.14.38.38,0,0,0,0-.67.88.88,0,0,0-.48-.14v-.21a1.18,1.18,0,0,1,.67.19A.62.62,0,0,1,342.63,86.5Zm-1,.69A1.21,1.21,0,0,1,341,87a.58.58,0,0,1,0-1,1.21,1.21,0,0,1,.68-.19V86a.89.89,0,0,0-.49.14.38.38,0,0,0,0,.67.89.89,0,0,0,.49.14Z"/><path class="cls-4" d="M338.13,85.82a1.24,1.24,0,0,1,.68.19.58.58,0,0,1,0,1,1.24,1.24,0,0,1-.68.19V87a.91.91,0,0,0,.49-.14.39.39,0,0,0,0-.67.91.91,0,0,0-.49-.14Zm-1,.68a.62.62,0,0,1,.29-.49,1.18,1.18,0,0,1,.67-.19V86a.94.94,0,0,0-.49.14.39.39,0,0,0,0,.67.94.94,0,0,0,.49.14v.21a1.18,1.18,0,0,1-.67-.19A.62.62,0,0,1,337.17,86.5Z"/><path class="cls-4" d="M339.9,85.84a1.13,1.13,0,0,1,.65.19.54.54,0,0,1,0,1,1.13,1.13,0,0,1-.65.19V87a.81.81,0,0,0,.46-.13.36.36,0,0,0,0-.63.81.81,0,0,0-.46-.13Zm0,1.33a1.13,1.13,0,0,1-.65-.19.54.54,0,0,1,0-1,1.13,1.13,0,0,1,.65-.19v.22a.87.87,0,0,0-.47.13.37.37,0,0,0,0,.63.87.87,0,0,0,.47.13Z"/><path class="cls-4" d="M340.74,85.5a.7.7,0,0,1,.37.11.33.33,0,0,1,0,.56.62.62,0,0,1-.37.11h0v-.22h0a.38.38,0,0,0,.19,0,.15.15,0,0,0,.07-.12.17.17,0,0,0-.07-.12.38.38,0,0,0-.19,0h0V85.5Zm0,.78a.6.6,0,0,1-.37-.11.33.33,0,0,1,0-.56.68.68,0,0,1,.37-.11v.22a.38.38,0,0,0-.19,0,.17.17,0,0,0-.07.12.15.15,0,0,0,.07.12.38.38,0,0,0,.19,0Z"/><path class="cls-4" d="M339.06,87.51h0v-.22h0a.32.32,0,0,0,.18-.05.15.15,0,0,0,.08-.12.14.14,0,0,0-.08-.12.32.32,0,0,0-.18,0h0v-.22h0a.62.62,0,0,1,.37.11.33.33,0,0,1,0,.56A.7.7,0,0,1,339.06,87.51Zm0,0a.68.68,0,0,1-.37-.11.32.32,0,0,1,0-.56.6.6,0,0,1,.37-.11V87a.36.36,0,0,0-.19,0,.15.15,0,0,0-.07.12.17.17,0,0,0,.07.12.36.36,0,0,0,.19.05Z"/><path class="cls-4" d="M341.3,87.1a.34.34,0,0,1-.16.28.65.65,0,0,1-.37.11v-.22a.32.32,0,0,0,.18,0,.14.14,0,0,0,.07-.12A.13.13,0,0,0,341,87a.32.32,0,0,0-.18,0v-.22a.65.65,0,0,1,.37.11A.34.34,0,0,1,341.3,87.1Zm-.53.39a.66.66,0,0,1-.38-.11.32.32,0,0,1,0-.56.66.66,0,0,1,.38-.11v.22a.36.36,0,0,0-.19,0,.15.15,0,0,0-.07.12.17.17,0,0,0,.07.12.36.36,0,0,0,.19,0Z"/><path class="cls-4" d="M339,85.52a.66.66,0,0,1,.38.11.33.33,0,0,1,0,.56.66.66,0,0,1-.38.11v-.22a.36.36,0,0,0,.19,0,.14.14,0,0,0,0-.24.36.36,0,0,0-.19-.05Zm-.53.39a.34.34,0,0,1,.16-.28.65.65,0,0,1,.37-.11v.22a.32.32,0,0,0-.18.05.13.13,0,0,0,0,.24.32.32,0,0,0,.18,0v.22a.65.65,0,0,1-.37-.11A.34.34,0,0,1,338.5,85.91Z"/><path class="cls-4" d="M344.12,87.13a.57.57,0,0,1-.27.47h0a1.06,1.06,0,0,1-.6.17v-.21a.88.88,0,0,0,.48-.14h0a.39.39,0,0,0,.18-.3.38.38,0,0,0-.18-.3h0a.8.8,0,0,0-.48-.14v-.22a1.07,1.07,0,0,1,.61.18h0A.59.59,0,0,1,344.12,87.13Zm-.88.65a1.1,1.1,0,0,1-.61-.18h0a.6.6,0,0,1-.27-.47.61.61,0,0,1,.27-.48h0a1.06,1.06,0,0,1,.6-.18v.22a.8.8,0,0,0-.48.14h0a.38.38,0,0,0-.18.3.39.39,0,0,0,.18.3h0a.88.88,0,0,0,.48.14Z"/><path class="cls-4" d="M336.58,87.57h0a.76.76,0,0,0,.46-.14.36.36,0,0,0,.18-.3.39.39,0,0,0-.18-.31.83.83,0,0,0-.46-.13h0v-.22h0a1.15,1.15,0,0,1,.64.19.58.58,0,0,1,.27.47.55.55,0,0,1-.27.46,1.08,1.08,0,0,1-.64.19h0Zm-.63-.44a.36.36,0,0,0,.18.3.75.75,0,0,0,.45.14v.21a1.1,1.1,0,0,1-.64-.19.58.58,0,0,1-.27-.46.61.61,0,0,1,.27-.47,1.18,1.18,0,0,1,.64-.19v.22a.82.82,0,0,0-.45.13A.39.39,0,0,0,336,87.13Z"/><rect class="cls-6" x="331.15" y="80.54" width="0.46" height="21.81"/><rect class="cls-4" x="322.93" y="82.95" width="25.72" height="0.33"/><polygon class="cls-5" points="324.43 67.72 329.65 67.72 327.04 48.18 324.43 67.72"/><rect class="cls-4" x="326.29" y="64.56" width="1.5" height="3.17"/><polygon class="cls-2" points="326.29 64.56 327.79 64.56 327.04 62.14 326.29 64.56"/><rect class="cls-3" x="349.11" y="71.11" width="8.22" height="31.24"/><rect class="cls-4" x="353.75" y="75.31" width="2.24" height="5.23"/><rect class="cls-4" x="350.45" y="75.31" width="2.24" height="5.23"/><path class="cls-2" d="M354.87,77a1.76,1.76,0,1,0-1.12-1.64A1.86,1.86,0,0,0,354.87,77Z"/><path class="cls-2" d="M351.57,77a1.76,1.76,0,1,0-1.12-1.64A1.86,1.86,0,0,0,351.57,77Z"/><rect class="cls-4" x="352.1" y="91.5" width="2.24" height="5.23"/><path class="cls-2" d="M353.22,93.14a1.84,1.84,0,0,0,1.12-1.64,1.2,1.2,0,1,0-2.24,0A1.84,1.84,0,0,0,353.22,93.14Z"/><rect class="cls-6" x="349.11" y="70.78" width="8.22" height="0.33"/><rect class="cls-3" x="349.11" y="67.73" width="8.22" height="3.06"/><rect class="cls-3" x="355.83" y="64.56" width="1.5" height="3.17"/><polygon class="cls-5" points="357.33 64.56 355.83 64.56 356.58 62.14 357.33 64.56"/><rect class="cls-3" x="349.11" y="64.56" width="1.5" height="3.17"/><polygon class="cls-5" points="350.61 64.56 349.11 64.56 349.86 62.14 350.61 64.56"/><rect class="cls-4" x="348.65" y="80.54" width="0.46" height="21.81"/><polygon class="cls-5" points="355.83 67.72 350.61 67.72 353.22 48.18 355.83 67.72"/><rect class="cls-4" x="352.47" y="64.56" width="1.5" height="3.17"/><polygon class="cls-2" points="353.97 64.56 352.47 64.56 353.22 62.14 353.97 64.56"/><polygon class="cls-5" points="346.67 80.54 333.13 80.54 339.9 72.49 346.67 80.54"/><path class="cls-2" d="M342.92,80.54h-6c0-1.33,1.21-2.49,3-3.1C341.7,78.05,342.92,79.21,342.92,80.54Z"/><path class="cls-3" d="M423.14,102.49H384.68v-.68H422.3L384.69,64h0v-.84a.5.5,0,0,1,.26.08l0,0,38.45,38.69a.31.31,0,0,1,0,.48.38.38,0,0,1-.25.09Zm-38.46,0H346.23a.36.36,0,0,1-.38-.34.33.33,0,0,1,.12-.25L384.4,63.23a.43.43,0,0,1,.28-.11V64l-37.61,37.85h37.61Z"/><path class="cls-3" d="M382.56,65.5a.33.33,0,0,1,0-.48.4.4,0,0,1,.53,0l36.66,36.87a.33.33,0,0,1,0,.48.42.42,0,0,1-.54,0Z"/><path class="cls-3" d="M380.43,67.65a.31.31,0,0,1,0-.48.4.4,0,0,1,.53,0l34.51,34.73a.31.31,0,0,1,0,.48.41.41,0,0,1-.53,0Z"/><path class="cls-3" d="M378.29,69.8a.32.32,0,0,1,0-.48.4.4,0,0,1,.53,0l32.38,32.58a.31.31,0,0,1,0,.48.41.41,0,0,1-.53,0Z"/><path class="cls-3" d="M376.16,71.94a.3.3,0,0,1,0-.47.4.4,0,0,1,.53,0L407,101.92a.31.31,0,0,1,0,.48.41.41,0,0,1-.53,0Z"/><path class="cls-3" d="M374,74.09a.32.32,0,0,1,0-.48.41.41,0,0,1,.53,0l28.11,28.28a.31.31,0,0,1,0,.48.41.41,0,0,1-.53,0Z"/><path class="cls-3" d="M371.89,76.24a.31.31,0,0,1,0-.48.41.41,0,0,1,.53,0l26,26.13a.32.32,0,0,1,0,.48.41.41,0,0,1-.53,0Z"/><path class="cls-3" d="M369.75,78.39a.31.31,0,0,1,0-.48.41.41,0,0,1,.53,0l23.84,24a.32.32,0,0,1,0,.48.41.41,0,0,1-.53,0Z"/><path class="cls-3" d="M367.61,80.54a.33.33,0,0,1,0-.48.41.41,0,0,1,.53,0l21.71,21.83a.33.33,0,0,1,0,.48.41.41,0,0,1-.53,0Z"/><path class="cls-3" d="M365.48,82.69a.31.31,0,0,1,0-.48.4.4,0,0,1,.53,0l19.57,19.68a.33.33,0,0,1,0,.48.42.42,0,0,1-.54,0Z"/><path class="cls-3" d="M363.34,84.84a.32.32,0,0,1,0-.48.4.4,0,0,1,.53,0l17.43,17.53a.31.31,0,0,1,0,.48.41.41,0,0,1-.53,0Z"/><path class="cls-3" d="M361.21,87a.31.31,0,0,1,0-.48.4.4,0,0,1,.53,0l15.29,15.39a.31.31,0,0,1,0,.48.41.41,0,0,1-.53,0Z"/><path class="cls-3" d="M359.07,89.13a.31.31,0,0,1,0-.47.4.4,0,0,1,.53,0l13.16,13.24a.31.31,0,0,1,0,.48.41.41,0,0,1-.53,0Z"/><path class="cls-3" d="M356.94,91.28a.31.31,0,0,1,0-.48.41.41,0,0,1,.53,0l11,11.09a.32.32,0,0,1,0,.48.41.41,0,0,1-.53,0Z"/><path class="cls-3" d="M354.8,93.43a.32.32,0,0,1,0-.48.41.41,0,0,1,.53,0l8.89,8.94a.32.32,0,0,1,0,.48.41.41,0,0,1-.53,0Z"/><path class="cls-3" d="M352.66,95.58a.33.33,0,0,1,0-.48.42.42,0,0,1,.54,0l6.75,6.79a.32.32,0,0,1,0,.48.41.41,0,0,1-.53,0Z"/><path class="cls-3" d="M350.53,97.73a.31.31,0,0,1,0-.48.41.41,0,0,1,.53,0l4.62,4.64a.33.33,0,0,1,0,.48.41.41,0,0,1-.53,0Z"/><path class="cls-3" d="M348.39,99.88a.32.32,0,0,1,0-.48.41.41,0,0,1,.53,0l2.48,2.49a.32.32,0,0,1,0,.48.42.42,0,0,1-.54,0Z"/><path class="cls-3" d="M386.19,65.05a.4.4,0,0,1,.53,0,.31.31,0,0,1,0,.48L350.1,102.38a.41.41,0,0,1-.53,0,.32.32,0,0,1,0-.48Z"/><path class="cls-3" d="M388.33,67.19a.4.4,0,0,1,.53,0,.32.32,0,0,1,0,.48l-34.52,34.73a.41.41,0,0,1-.53,0,.32.32,0,0,1,0-.48Z"/><path class="cls-3" d="M390.46,69.34a.4.4,0,0,1,.53,0,.31.31,0,0,1,0,.48l-32.38,32.58a.41.41,0,0,1-.53,0,.32.32,0,0,1,0-.48Z"/><path class="cls-3" d="M392.6,71.49a.4.4,0,0,1,.53,0,.31.31,0,0,1,0,.47l-30.25,30.44a.41.41,0,0,1-.53,0,.33.33,0,0,1,0-.48Z"/><path class="cls-3" d="M394.73,73.64a.41.41,0,0,1,.53,0,.31.31,0,0,1,0,.48l-28.1,28.29a.42.42,0,0,1-.54,0,.32.32,0,0,1,0-.48Z"/><path class="cls-3" d="M396.87,75.79a.41.41,0,0,1,.53,0,.31.31,0,0,1,0,.48l-26,26.14a.41.41,0,0,1-.53,0,.31.31,0,0,1,0-.48Z"/><path class="cls-3" d="M399,77.94a.42.42,0,0,1,.54,0,.33.33,0,0,1,0,.48l-23.84,24a.41.41,0,0,1-.53,0,.31.31,0,0,1,0-.48Z"/><path class="cls-3" d="M401.14,80.09a.41.41,0,0,1,.53,0,.31.31,0,0,1,0,.48L380,102.38a.41.41,0,0,1-.53,0,.31.31,0,0,1,0-.48Z"/><path class="cls-3" d="M403.28,82.24a.4.4,0,0,1,.53,0,.32.32,0,0,1,0,.48l-19.57,19.69a.41.41,0,0,1-.53,0,.32.32,0,0,1,0-.48Z"/><path class="cls-3" d="M405.41,84.39a.4.4,0,0,1,.53,0,.31.31,0,0,1,0,.48l-17.43,17.54a.41.41,0,0,1-.53,0,.32.32,0,0,1,0-.48Z"/><path class="cls-3" d="M407.55,86.53a.4.4,0,0,1,.53,0,.32.32,0,0,1,0,.48l-15.3,15.39a.41.41,0,0,1-.53,0,.32.32,0,0,1,0-.48Z"/><path class="cls-3" d="M409.68,88.68a.4.4,0,0,1,.53,0,.3.3,0,0,1,0,.47l-13.16,13.25a.41.41,0,0,1-.53,0,.33.33,0,0,1,0-.48Z"/><path class="cls-3" d="M411.82,90.83a.41.41,0,0,1,.53,0,.32.32,0,0,1,0,.48l-11,11.1a.41.41,0,0,1-.53,0,.31.31,0,0,1,0-.48Z"/><path class="cls-3" d="M414,93a.42.42,0,0,1,.54,0,.32.32,0,0,1,0,.48l-8.88,8.95a.41.41,0,0,1-.53,0,.31.31,0,0,1,0-.48Z"/><path class="cls-3" d="M416.09,95.13a.41.41,0,0,1,.53,0,.31.31,0,0,1,0,.48l-6.75,6.8a.41.41,0,0,1-.53,0,.31.31,0,0,1,0-.48Z"/><path class="cls-3" d="M418.23,97.28a.41.41,0,0,1,.53,0,.33.33,0,0,1,0,.48l-4.62,4.65a.41.41,0,0,1-.53,0,.31.31,0,0,1,0-.48Z"/><path class="cls-3" d="M420.36,99.43a.41.41,0,0,1,.53,0,.31.31,0,0,1,0,.48l-2.48,2.5a.41.41,0,0,1-.53,0,.32.32,0,0,1,0-.48Z"/><path class="cls-5" d="M416.71,46.42l3.36-.89-3.77.12a6.37,6.37,0,0,0-.44-.62L418.34,43l-3.08,1.45-.32-.23a4,4,0,0,0-.55-.29l.56-3.15-1.36,2.88a5.16,5.16,0,0,0-1-.13l-2.28-3.57,1.47,3.65a2.14,2.14,0,0,0-.92.48l-2-1v.38l1.59,1.17a3,3,0,0,0-.34.8l-1.25.19v.38l1.22.06a1.16,1.16,0,0,0,.29.65v.06l-1.51.51v.22l1.54-.11c0,.38.06.82.1,1.06.09.46.15.7.34.72a.45.45,0,0,0,.35-.15l.05.35s-.2.49-.34.8-.3.72-.3.72a5.71,5.71,0,0,1-1.07-.66,1.05,1.05,0,0,1-.42-.62c-.12-.37,0-.59-.22-.92l0-.06v57.25h17.83l0-1.73.79-1.22-1.21-.54.05-2-3.12-.85c-.06-.12-.13-.25-.2-.4a18.9,18.9,0,0,1-1.24-3.74s.35.35.25-1-.38-2.87-.42-3.66a11.07,11.07,0,0,1,.11-1.81,1,1,0,0,0,.45-1c-.15-.73-.29-2.49-.29-2.49s.34.11.24-.93-.85-11.83-.85-11.83a2.81,2.81,0,0,1,.88.39,1.73,1.73,0,0,0,2.19-.92,7.39,7.39,0,0,0,.89-2.69c0-.59.57-1.5.53-2.09s.14-1.85-.2-2.29a3.5,3.5,0,0,1-.39-1.46c-.1-.44-.06-.53-.21-.75l-.37-.59.95-2.38-.89-1.63-.9-.2L422.87,60a4.24,4.24,0,0,1-.48-.33,28.53,28.53,0,0,1-1.54-3A8,8,0,0,0,419.78,55a2,2,0,0,0-.83-.73c-.36-.18.1-.33-.53-.64A2.75,2.75,0,0,1,417,52.26c-.2-.55-.16-.41-.16-.41a.3.3,0,0,0,.4-.22c.08-.33-.29-1-.29-1a3.43,3.43,0,0,0,.13-1.24,1.16,1.16,0,0,0-.42-.64l-.12-.66s.12.27.31,0,.15-.53,0-1.17A4.9,4.9,0,0,0,416.71,46.42Zm-7.8-3.4-1.7-.88,1.7,1.26V43Zm0,2.54v.38l-1.51-.06c.07.47.31.61.5.63s.33.46.57.86l.44-.15v.22l-.39,0a6.78,6.78,0,0,1,.39,1.11v57.25H401v-2.36l-.64-1.13,1.17-.86V99.39l3.26-.32.17-.18a11.36,11.36,0,0,0,2.39-2.18c.59-.93.9-4.76,1-6.06a14.69,14.69,0,0,0,.05-1.83s-.38-1.06-.64-2-.54-1.81-.67-2.51-.16-1.24-.34-2.27a36.24,36.24,0,0,1-.17-4.06,5.47,5.47,0,0,0-.17-1,6.35,6.35,0,0,1-.16-1,9.24,9.24,0,0,1-.29-1.08,19.35,19.35,0,0,1-.28-3,13.57,13.57,0,0,1,.33-3.06s-.22-.34-.49-.8a8.23,8.23,0,0,1,.12-4.18,10,10,0,0,1,1.58-3.44s-.1-.23-.43-1.1a7.11,7.11,0,0,1-.41-2.12c-.16-1.17-.25-.92-.6-1.31s-.19-1.18-.34-1.09-.23-.2-.78-.16-.37-.72-.34-1.86a9.55,9.55,0,0,1,.78-3,2.58,2.58,0,0,0-.14-1.55,24,24,0,0,0-.83-2.58,26.3,26.3,0,0,1-.95-4.34c-.11-.7-.22-1.81-.22-1.66a.58.58,0,0,1-.47.44c-.23,0-.52-.68-.52-.68s-.09,0-.1-.48-.17-.46-.29-.7a.27.27,0,0,1,.11-.36,1.14,1.14,0,0,1,.09-.53,3.66,3.66,0,0,0-.06-1.18s-.23-.06-.42-.44a.34.34,0,0,1,.16-.51.64.64,0,0,1-.28-.49c0-.31.18-.32.18-.32a.7.7,0,0,1-.22-.55.31.31,0,0,1,.36-.24v-.38a2.5,2.5,0,0,0-.15-.4c-.37-.2-.59-.45-.4-.6l-.37-.14c-.32-.11-.46-.39-.61-.53a.27.27,0,0,1,0-.42c.12-.1.17-.57.25-.72,0-.33-.49-.58-.49-.58l.36,0-.1-.31.42,0,.1-.29.59.09.32-.42.38.16a1.27,1.27,0,0,0-.2-.55,1.63,1.63,0,0,1-.25-1.76c.4-.55.61-.28.92-.65s.64-.82,1-.66,0,1.11.3.91.5.09.84-.15.6-.8.7-.62,0,.45,0,.8-1,1.12-1.14,1.51-.24.57-.39.64-.07.19,0,.37h0a1.76,1.76,0,0,1,.06.39l.8-.14.09.33.54-.09-.1.31.37,0a2.09,2.09,0,0,0-.38.51c-.12.26.11.48.27.84s-.23.5-.23.72-1.26.49-1.26.49.18.2.16.35-.31.31-.31.31l-.09.88s.08,0,.42.46a6.06,6.06,0,0,1,.81,1.85c.23.77.18,1.11.51,2.3a12.15,12.15,0,0,0,.85,2.62,20.37,20.37,0,0,1,1.35,4.45v.08Z"/><rect class="cls-3" x="0.12" y="78.14" width="33.92" height="25.02"/><rect class="cls-4" x="1.53" y="82.39" width="5.41" height="1.29"/><rect class="cls-4" x="1.53" y="84.63" width="5.41" height="1.29"/><rect class="cls-4" x="1.53" y="86.87" width="5.41" height="1.29"/><rect class="cls-4" x="1.53" y="89.11" width="5.41" height="1.29"/><rect class="cls-4" x="1.53" y="91.35" width="5.41" height="1.29"/><rect class="cls-4" x="1.53" y="93.59" width="5.41" height="1.29"/><rect class="cls-4" x="1.53" y="95.83" width="5.41" height="1.29"/><rect class="cls-4" x="1.53" y="98.08" width="5.41" height="1.29"/><rect class="cls-4" x="1.53" y="100.32" width="5.41" height="1.29"/><rect class="cls-4" x="7.95" y="82.39" width="5.41" height="1.29"/><rect class="cls-4" x="7.95" y="84.63" width="5.41" height="1.29"/><rect class="cls-4" x="7.95" y="86.87" width="5.41" height="1.29"/><rect class="cls-4" x="7.95" y="89.11" width="5.41" height="1.29"/><rect class="cls-4" x="7.95" y="91.35" width="5.41" height="1.29"/><rect class="cls-4" x="7.95" y="93.59" width="5.41" height="1.29"/><rect class="cls-4" x="7.95" y="95.83" width="5.41" height="1.29"/><rect class="cls-4" x="7.95" y="98.08" width="5.41" height="1.29"/><rect class="cls-4" x="7.95" y="100.32" width="5.41" height="1.29"/><rect class="cls-4" x="14.37" y="82.39" width="5.41" height="1.29"/><rect class="cls-4" x="14.37" y="84.63" width="5.41" height="1.29"/><rect class="cls-4" x="14.37" y="86.87" width="5.41" height="1.29"/><rect class="cls-4" x="14.37" y="89.11" width="5.41" height="1.29"/><rect class="cls-4" x="14.37" y="91.35" width="5.41" height="1.29"/><rect class="cls-4" x="14.37" y="93.59" width="5.41" height="1.29"/><rect class="cls-4" x="14.37" y="95.83" width="5.41" height="1.29"/><rect class="cls-4" x="14.37" y="98.08" width="5.41" height="1.29"/><rect class="cls-4" x="14.37" y="100.32" width="5.41" height="1.29"/><rect class="cls-4" x="20.79" y="82.39" width="5.41" height="1.29"/><rect class="cls-4" x="20.79" y="84.63" width="5.41" height="1.29"/><rect class="cls-4" x="20.79" y="86.87" width="5.41" height="1.29"/><rect class="cls-4" x="20.79" y="89.11" width="5.41" height="1.29"/><rect class="cls-4" x="20.79" y="91.35" width="5.41" height="1.29"/><rect class="cls-4" x="20.79" y="93.59" width="5.41" height="1.29"/><rect class="cls-4" x="20.79" y="95.83" width="5.41" height="1.29"/><rect class="cls-4" x="20.79" y="98.08" width="5.41" height="1.29"/><rect class="cls-4" x="20.79" y="100.32" width="5.41" height="1.29"/><rect class="cls-4" x="27.21" y="82.39" width="5.41" height="1.29"/><rect class="cls-4" x="27.21" y="84.63" width="5.41" height="1.29"/><rect class="cls-4" x="27.21" y="86.87" width="5.41" height="1.29"/><rect class="cls-4" x="27.21" y="89.11" width="5.41" height="1.29"/><rect class="cls-4" x="27.21" y="91.35" width="5.41" height="1.29"/><rect class="cls-4" x="27.21" y="93.59" width="5.41" height="1.29"/><rect class="cls-4" x="27.21" y="95.83" width="5.41" height="1.29"/><rect class="cls-4" x="27.21" y="98.08" width="5.41" height="1.29"/><rect class="cls-4" x="27.21" y="100.32" width="5.41" height="1.29"/><path class="cls-5" d="M31.81,107.23h-15l.44-4.37H18.4l2-16.82,1.23-.28.05-1.57,2.4-.73c.25-1.61.92-6,1.12-8.23.26-2.7.68-10.55.68-10.55A2.4,2.4,0,0,1,25.41,63c.08-1.06.2-3.62.2-3.62s-.42-.05-.4-.62a7.41,7.41,0,0,0,0-.84.59.59,0,0,1-.66-.62A38.82,38.82,0,0,1,25,52.18c.3-1.45.1-1.85.1-1.85s-3.57-1.68-4.8-1.68-3.76.35-4.54-.35-2.27-3.8-2.52-4a22.5,22.5,0,0,0-2.89-.17,24.49,24.49,0,0,1-3.13-.68c-.34-.11-.34-.25-.34-.25A1.09,1.09,0,0,1,6.29,43c-.2-.16-.09-.21-.09-.21s-.41-.27-.22-.52a.4.4,0,0,1,.39-.19s0-.08.32-.13a7.2,7.2,0,0,1,1.15,0c.28,0,.7,0,.7,0s-.45-.41-.29-.6.73-.08,1.12,0,1-.06,1.3,0a4.31,4.31,0,0,1,1.19.52c.22.21.34.51.6.54a4.06,4.06,0,0,0,.42,0s-.12-.3.29-.22a9.57,9.57,0,0,0,2,.32c.81,0,2.27-.13,3.34-.13s2.09-.06,2.09-.06A5.78,5.78,0,0,0,21.74,42a5.56,5.56,0,0,1,2.06-.24c.81,0,2.15-.33,2.73-.38a2.07,2.07,0,0,1,.7,0,3.55,3.55,0,0,0,1-.14c.39-.13.55,0,.55,0l.84-.27a.37.37,0,0,1,.33.11s.27-1.68.42-3.3.23-4.57,2.59-4.55a1.87,1.87,0,0,1,2,1.83c.13,1.15.21,3.73.19,4.42s0,1.72,0,1.72,2.64.51,4.72,1.14a21.44,21.44,0,0,0,3.78,1c.61,0,.45-.35,2-.35s2.31.35,3.65.06,1.79-.86,1.78-.57.22.23.55,0,1-.86,1.63-.86,1.4-.28,2-.32.78,0,.58.27-.21.3-.21.3,1.37-.2,1.66-.23a.35.35,0,0,1,.38.23s.39-.1.41.24a.33.33,0,0,1-.27.37s.09.3-.07.37a5.26,5.26,0,0,1-.59.13s-.07.17-.43.3a20.6,20.6,0,0,1-3.75,1c-.78,0-1.65-.1-1.92.27s-.2,1.14-.64,2-1.2,2-1.85,2.08-5,.54-6.53.94-3.09.77-3.09.77.19,4.55.24,7,.2,7.06.19,7.5-.55,1.06-.57,1.77.13,4.06.11,4.54-.62,1-.62,1,.05,3.53,0,5c0,1.19.33,4.81.46,6.11l2.66.82,0,1.57,1.21.28.93,16.82h1.11l.17,4.37Z"/><path class="cls-7" d="M0,108.38H6.66v.9H0v-.9Zm9.87,0h6.66v.9H9.87v-.9Zm9.86,0h6.66v.9H19.73v-.9Zm9.87,0h6.66v.9H29.6v-.9Zm9.86,0h6.66v.9H39.46v-.9Zm9.87,0H56v.9H49.33v-.9Zm9.86,0h6.66v.9H59.19v-.9Zm9.87,0h6.66v.9H69.06v-.9Zm9.86,0h6.66v.9H78.92v-.9Zm9.87,0h6.66v.9H88.79v-.9Zm9.86,0h6.66v.9H98.65v-.9Zm9.87,0h6.66v.9h-6.66v-.9Zm9.86,0h6.67v.9h-6.67v-.9Zm9.87,0h6.66v.9h-6.66v-.9Zm9.87,0h6.66v.9h-6.66v-.9Zm9.86,0h6.66v.9H148v-.9Zm9.87,0h6.66v.9h-6.66v-.9Zm9.86,0h6.66v.9h-6.66v-.9Zm9.87,0h6.66v.9h-6.66v-.9Zm9.86,0h6.66v.9h-6.66v-.9Zm9.87,0H204v.9h-6.66v-.9Zm9.86,0h6.66v.9h-6.66v-.9Zm9.87,0h6.66v.9H217v-.9Zm9.86,0h6.67v.9H226.9v-.9Zm9.87,0h6.66v.9h-6.66v-.9Zm9.87,0h6.66v.9h-6.66v-.9Zm9.86,0h6.66v.9H256.5v-.9Zm9.87,0H273v.9h-6.66v-.9Zm9.86,0h6.66v.9h-6.66v-.9Zm9.87,0h6.66v.9H286.1v-.9Zm9.86,0h6.66v.9H296v-.9Zm9.87,0h6.66v.9h-6.66v-.9Zm9.86,0h6.66v.9h-6.66v-.9Zm9.87,0h6.66v.9h-6.66v-.9Zm9.86,0h6.66v.9h-6.66v-.9Zm9.87,0H352v.9h-6.66v-.9Zm9.86,0h6.67v.9h-6.67v-.9Zm9.87,0h6.66v.9H365v-.9Zm9.87,0h6.66v.9h-6.66v-.9Zm9.86,0h6.66v.9h-6.66v-.9Zm9.87,0h6.66v.9h-6.66v-.9Zm9.86,0h6.66v.9h-6.66v-.9Zm9.87,0H421v.9h-6.66v-.9Zm9.86,0h6.66v.9h-6.66Z"/><path class="cls-8" d="M96.91,86.73h16.53a2.45,2.45,0,0,1,2.44,2.44v3.46H110.7L94.47,97.74V89.17A2.45,2.45,0,0,1,96.91,86.73Z"/><path class="cls-9" d="M98.74,89.9H162.9c11.29,0,16.32,11.64,16.32,15.61v4.12a1.76,1.76,0,0,1-1.76,1.75H98.74a4.29,4.29,0,0,1-4.27-4.27V94.17A4.29,4.29,0,0,1,98.74,89.9Z"/><path class="cls-8" d="M98.74,89.9H162.9a15.12,15.12,0,0,1,4,.53v.13A2,2,0,0,1,165,92.5H96.23a1.94,1.94,0,0,1-1.2-.42A4.26,4.26,0,0,1,98.74,89.9Z"/><path class="cls-9" d="M113.54,111.38H100.2a6.67,6.67,0,0,1,13.34,0Z"/><path class="cls-9" d="M174.37,111.38H161a6.67,6.67,0,0,1,13.34,0Z"/><path class="cls-10" d="M167.7,105.78a5.61,5.61,0,1,1-5.6,5.6A5.61,5.61,0,0,1,167.7,105.78Z"/><path class="cls-10" d="M106.87,105.78a5.61,5.61,0,1,1-5.6,5.6A5.6,5.6,0,0,1,106.87,105.78Z"/><path class="cls-11" d="M167.7,108.45a2.94,2.94,0,1,1-2.93,2.93A2.94,2.94,0,0,1,167.7,108.45Z"/><path class="cls-11" d="M106.87,108.45a2.94,2.94,0,1,1-2.94,2.93A2.94,2.94,0,0,1,106.87,108.45Z"/><path class="cls-8" d="M179.22,105.5h0v4.12h-1.33a.75.75,0,0,1-.74-.75v-2.65a.74.74,0,0,1,.74-.74Z"/><path class="cls-10" d="M103.3,91.93h59.79c5.7,0,8.84,3.19,11.24,8,.16.32.17,1.24-.65,1.24H98.14l2.63-7C101.14,93.2,101.81,91.93,103.3,91.93Z"/><path class="cls-9" d="M130.38,111.38H117a6.68,6.68,0,0,1,13.35,0Z"/><path class="cls-10" d="M123.71,105.78a5.61,5.61,0,1,1-5.61,5.6A5.6,5.6,0,0,1,123.71,105.78Z"/><path class="cls-11" d="M123.71,108.45a2.94,2.94,0,1,1-2.94,2.93A2.93,2.93,0,0,1,123.71,108.45Z"/><path class="cls-12" d="M103.51,93.1h60.16a9,9,0,0,1,5.25,1.66,15.22,15.22,0,0,1,3.14,4.33c.37.75-.07.93-.35.93H99.84L102,94.4C102.35,93.47,102.77,93.1,103.51,93.1Z"/><rect class="cls-13" x="106.68" y="91.93" width="1.28" height="9.26"/><rect class="cls-13" x="120.38" y="91.93" width="1.28" height="9.26"/><rect class="cls-13" x="134.09" y="91.93" width="1.28" height="9.26"/><rect class="cls-13" x="147.79" y="91.93" width="1.28" height="9.26"/><rect class="cls-13" x="161.62" y="91.93" width="1.28" height="9.26"/><path class="cls-14" d="M175.47,97.65l1.79,0a1.62,1.62,0,0,1,1.68.91,4.92,4.92,0,0,1,.23,1.94h-.64a4.67,4.67,0,0,0-.17-1.68c-.15-.33-.46-.53-1.11-.54l-1.79,0Z"/><rect class="cls-15" x="178.11" y="98.52" width="1.47" height="6" rx="0.74"/><path class="cls-10" d="M178.85,98.52a.74.74,0,0,1,.74.74v4.53a.74.74,0,0,1-.74.73Z"/><path class="cls-10" d="M94.47,90.44c3.35,0,5.44,1.39,4.71,3.32l-2.79,7.43H94.47Z"/><path class="cls-12" d="M94.47,91.36c2-.08,4.16.83,3.69,2.06L95.63,100H94.47Z"/><path class="cls-10" d="M166.71,90.37c6.06,1.56,9.78,6.68,11.45,10.8a3.07,3.07,0,0,1-2.75-1.69,24,24,0,0,0-1.92-2.84,15,15,0,0,0-5.35-4.4C166.58,91.59,166.52,90.84,166.71,90.37Z"/><path class="cls-12" d="M167.38,90.56c5.33,1.65,8.75,6.08,10.48,9.9A2.8,2.8,0,0,1,176.09,99a23.92,23.92,0,0,0-1.92-2.83,16.37,16.37,0,0,0-5.35-4.4C167.59,91.2,167.52,90.93,167.38,90.56Z"/><path class="cls-10" d="M97.55,105.5h0v4.12H96.23a.76.76,0,0,1-.75-.75v-2.65a.75.75,0,0,1,.75-.74Z"/><rect class="cls-16" x="141.9" y="109.13" width="1.68" height="0.88" rx="0.44"/><rect class="cls-16" x="152.08" y="109.13" width="1.68" height="0.88" rx="0.44"/></g></g></svg>