<?xml version="1.0"?>
<svg xmlns="http://www.w3.org/2000/svg" id="Capa_1" enable-background="new 0 0 512 512" height="512px" viewBox="0 0 512 512" width="512px"><g><g><path d="m487 434.833v-105h-117v105h-25v30h30v47h30v-47h47v47h30v-47h30v-30z" data-original="#000000" class="active-path" data-old_color="#000000" fill="#FFFFFF"/><path d="m140 329.833h-115v105h-25v30h30v47h30v-47h45v47h30v-47h30v-30h-25z" data-original="#000000" class="active-path" data-old_color="#000000" fill="#FFFFFF"/><path d="m435.691 194.5c0-80.563-45.325-149.67-109.902-179.131 5.43 8.422 10.691 18.359 15.623 30.092 16.938 40.3 26.267 93.23 26.267 149.04 10.086-.001 57.822-.001 68.012-.001z" data-original="#000000" class="active-path" data-old_color="#000000" fill="#FFFFFF"/><path d="m76.311 194.5h68.013c0-57.893 10.804-130.912 41.889-179.131-64.577 29.461-109.902 98.568-109.902 179.131z" data-original="#000000" class="active-path" data-old_color="#000000" fill="#FFFFFF"/><path d="m337.679 194.5c0-107.331-36.569-194.333-81.677-194.333s-81.678 87.002-81.678 194.333h66.676v135.333h-30v30h30v122h-60v30h150v-30h-60v-122h30v-30h-30v-135.333z" data-original="#000000" class="active-path" data-old_color="#000000" fill="#FFFFFF"/></g></g> </svg>
