<?xml version="1.0"?>
<svg xmlns="http://www.w3.org/2000/svg" viewBox="0 0 512 512" width="512" height="512"><g id="_27-parking" data-name="27-parking"><g id="linear_color" data-name="linear color"><path d="M480.336,316.809l-55.993-22.4-55.011-96.271A36.07,36.07,0,0,0,338.07,180H146.1a36.136,36.136,0,0,0-34.608,26.113L86.949,292H40A36.04,36.04,0,0,0,4,328V432a12,12,0,0,0,12,12H60.217a51.936,51.936,0,0,0,87.566,0H364.217a51.936,51.936,0,0,0,87.566,0H496a12,12,0,0,0,12-12V357.67A43.794,43.794,0,0,0,480.336,316.809ZM395.323,292H300V252h72.466ZM104,444a28,28,0,1,1,28-28A28.032,28.032,0,0,1,104,444Zm304,0a28,28,0,1,1,28-28A28.032,28.032,0,0,1,408,444Zm76-24H459.831c.1-1.322.169-2.653.169-4a52,52,0,0,0-104,0c0,1.347.068,2.678.169,4H155.831c.1-1.322.169-2.653.169-4a52,52,0,0,0-104,0c0,1.347.068,2.678.169,4H28V328a12.013,12.013,0,0,1,12-12H96a12,12,0,0,0,11.538-8.7l27.032-94.6A12.039,12.039,0,0,1,146.1,204H338.07a12.019,12.019,0,0,1,10.421,6.043L358.752,228H288a12,12,0,0,0-12,12v64a12,12,0,0,0,12,12H413.69l57.734,23.092A19.911,19.911,0,0,1,484,357.67Z"/><path d="M240,228H160a12,12,0,0,0-11.642,9.09l-16,64A12,12,0,0,0,144,316h96a12,12,0,0,0,12-12V240A12,12,0,0,0,240,228Zm-12,64H159.369l10-40H228Z"/><path d="M320,340H288a12,12,0,0,0,0,24h32a12,12,0,0,0,0-24Z"/><circle cx="408" cy="416" r="12"/><circle cx="104" cy="416" r="12"/><path d="M256,172a76,76,0,1,0-76-76A76.086,76.086,0,0,0,256,172Zm0-128a52,52,0,1,1-52,52A52.059,52.059,0,0,1,256,44Z"/><path d="M239.515,120.485a12,12,0,0,0,16.97,0l32-32a12,12,0,0,0-16.97-16.97L248,95.029l-7.515-7.514a12,12,0,0,0-16.97,16.97Z"/></g></g></svg>
