<svg id="Capa_1" enable-background="new 0 0 510.762 510.762" height="512" viewBox="0 0 510.762 510.762" width="512" xmlns="http://www.w3.org/2000/svg"><g><g><g><g><path d="m86.803 455.321c-.799 0-1.611-.125-2.411-.389-4.045-1.331-6.244-5.689-4.913-9.734l33.063-100.454c1.331-4.045 5.689-6.246 9.734-4.913 4.045 1.331 6.244 5.689 4.913 9.734l-33.064 100.454c-1.068 3.245-4.083 5.302-7.322 5.302z" fill="#ebebeb"/></g><path d="m86.802 447.609-62.298 3.638c-7.87.46-14.66 5.681-17.124 13.169-.618 1.876.403 3.898 2.279 4.516l126.539 41.649c1.876.618 3.898-.403 4.516-2.279 2.465-7.488.103-15.721-5.955-20.765z" fill="#f8f6f6"/><path d="m141.675 502.307c0 2.005-.308 4.02-.956 5.993-.617 1.881-2.642 2.899-4.523 2.282l-17.415-5.736c0-.278.01-.555.01-.833 0-5.747-2.519-11.339-7.104-15.153l-47.937-39.908 23.048-1.347 47.957 39.928c4.473 3.722 6.92 9.171 6.92 14.774z" fill="#ebebeb"/><path d="m210.724 290.349 12.132-33.466 33.659-142.532-54.158-17.826-2.213-.728-48.641-16.01c-3.121-1.027-6.509.504-7.801 3.525l-68.132 159.347 1.043 5.799c-14.48 33.866-4.811 65.183 26.1 85.776 15.663 10.435 33.142 15.06 51.658 11.969 29.982-5.005 51.07-25.613 56.353-55.854z" fill="#f8f6f6"/><path d="m256.515 114.353-33.662 142.528-2.134 4.22-7.418 30.177c-5.284 30.244-28.522 51.806-58.499 56.813-17.949 2.991-36.752.661-52.121-9.054 10.712 3.105 22.082 3.763 33.267 1.892 29.977-5.006 55.04-27.839 60.324-58.083l40.483-171.453c.298-1.254.175-2.508-.278-3.629z" fill="#ebebeb"/><path d="m154.441 349.237c-18.518 3.093-37.547-.713-53.217-11.141-30.906-20.595-41.14-59.212-26.658-93.083.016-.049.371-.863 1.012-2.351 24.698 13.941 55.09 18.933 82.871 17.817 22.808-.902 43.603-4.697 64.4-3.598l-8.092 34.285c-5.277 30.233-30.336 53.068-60.316 58.071z" fill="#fee45a"/><path d="m222.847 256.878c-1.011 4.283-2.021 8.565-3.032 12.848-1.481 6.278-2.963 12.555-4.444 18.833-1.087 4.607-1.973 9.076-3.532 13.583-2.569 7.425-6.482 14.313-11.433 20.447-6.631 8.214-15.081 14.947-24.632 19.717-3.791 1.893-7.644 3.412-11.688 4.667-13.61 4.224-28.842 4.553-42.539.483-4.97-1.477-9.805-3.357-14.361-5.798-1.521-.812-3.022-1.686-4.503-2.621 10.712 3.105 22.082 3.763 33.267 1.892 29.977-5.006 55.04-27.839 60.324-58.083l6.076-25.742c6.876-.422 13.692-.586 20.497-.226z" fill="#fed402"/></g><g><g><path d="m423.96 455.321c-3.24 0-6.254-2.057-7.323-5.302l-33.064-100.454c-1.331-4.045.868-8.403 4.913-9.734 4.047-1.333 8.403.869 9.734 4.913l33.064 100.454c1.331 4.045-.868 8.403-4.913 9.734-.8.264-1.613.389-2.411.389z" fill="#ebebeb"/></g><path d="m423.96 447.609 62.298 3.638c7.87.46 14.66 5.681 17.124 13.169.618 1.876-.403 3.898-2.279 4.516l-126.539 41.649c-1.876.618-3.898-.403-4.516-2.279-2.465-7.488-.103-15.721 5.955-20.765z" fill="#f8f6f6"/><path d="m503.562 465.545c0 1.501-.956 2.889-2.457 3.382l-19.964 6.569c-3.331-4.225-8.358-6.939-13.94-7.268l-61.619-5.315 18.381-15.307 62.298 3.639c7.864.463 14.66 5.685 17.117 13.169.122.37.184.75.184 1.131z" fill="#ebebeb"/><path d="m299.004 291.071-7.402-29.607-3.697-4.582-33.658-142.532 54.158-17.826 2.213-.728 48.641-16.01c3.121-1.027 6.509.504 7.801 3.525l68.132 159.347-.938 5.012c14.48 33.866 4.086 67.218-26.825 87.811-15.663 10.435-32.377 14.757-50.893 11.666-29.982-5.004-52.248-25.834-57.532-56.076z" fill="#f8f6f6"/><path d="m407.428 337.164c-10.373 6.908-18.97 9.984-32.317 12.852 5.5-1.964 10.774-4.595 15.718-7.885 30.913-20.591 41.141-59.214 26.667-93.077l-69.144-161.707c-.576-1.347-1.573-2.395-2.765-3.053l13.672-4.503c3.125-1.028 6.507.504 7.803 3.516l68.13 159.359-.938 5.004c14.485 33.863 4.087 68.903-26.826 89.494z" fill="#ebebeb"/><path d="m356.322 349.237c18.518 3.093 37.547-.713 53.217-11.141 30.906-20.595 41.14-59.212 26.658-93.083-.016-.049-.371-.863-1.012-2.351-24.698 13.941-55.09 18.933-82.871 17.817-22.808-.902-43.603-4.697-64.4-3.598l8.092 34.285c5.276 30.233 30.335 53.068 60.316 58.071z" fill="#fee45a"/><path d="m430.789 316.688c-2.496 3.844-5.354 7.445-8.533 10.763-3.752 3.917-7.998 7.484-12.727 10.64-5.745 3.833-12.092 6.831-18.71 8.882-5.109 1.583-10.373 2.591-15.708 3.043 5.5-1.964 10.774-4.595 15.718-7.885 30.44-20.283 40.823-58.052 27.304-91.535 5.901-2.231 11.617-4.873 17.055-7.936l1.007 2.354c10.364 24.241 8.071 50.918-5.406 71.674z" fill="#fed402"/></g></g><g><g><g><g><path d="m387.84 36.612c-1.07 0-2.156-.23-3.188-.716-3.748-1.764-5.356-6.232-3.593-9.98l6.694-14.224c1.764-3.748 6.231-5.356 9.979-3.592s5.356 6.232 3.593 9.98l-6.694 14.224c-1.278 2.715-3.976 4.308-6.791 4.308z" fill="#bfbfbf"/></g></g><g><g><path d="m443.909 117.297c-3.858 0-7.137-2.958-7.465-6.873-.347-4.128 2.719-7.755 6.847-8.101l15.666-1.315c4.104-.349 7.755 2.717 8.101 6.846.347 4.128-2.719 7.755-6.847 8.101l-15.666 1.315c-.214.018-.427.027-.636.027z" fill="#bfbfbf"/></g></g><g><g><path d="m426.698 69.441c-2.374 0-4.709-1.124-6.166-3.221-2.363-3.401-1.522-8.075 1.879-10.438l12.91-8.972c3.403-2.364 8.076-1.522 10.439 1.879s1.522 8.075-1.879 10.438l-12.91 8.972c-1.305.907-2.797 1.342-4.273 1.342z" fill="#bfbfbf"/></g></g></g><g><g><g><path d="m125.19 36.612c-2.814 0-5.513-1.593-6.791-4.308l-6.694-14.224c-1.764-3.748-.155-8.216 3.593-9.98 3.747-1.764 8.216-.156 9.979 3.592l6.694 14.224c1.764 3.748.155 8.216-3.593 9.98-1.032.486-2.118.716-3.188.716z" fill="#bfbfbf"/></g></g><g><g><path d="m69.121 117.297c-.211 0-.423-.009-.636-.027l-15.666-1.315c-4.128-.346-7.193-3.973-6.847-8.101s3.996-7.2 8.101-6.846l15.666 1.315c4.128.346 7.193 3.973 6.847 8.101-.328 3.914-3.607 6.873-7.465 6.873z" fill="#bfbfbf"/></g></g><g><g><path d="m86.331 69.441c-1.477 0-2.969-.435-4.273-1.342l-12.909-8.972c-3.401-2.364-4.242-7.038-1.879-10.439 2.364-3.401 7.037-4.244 10.439-1.878l12.909 8.972c3.401 2.364 4.242 7.038 1.879 10.439-1.458 2.097-3.792 3.22-6.166 3.22z" fill="#bfbfbf"/></g></g></g></g><g><path d="m253.794 1.679c-4.379 8.775-14.314 24.624-31.716 32.299-2.415 1.065-2.415 4.488 0 5.553 17.402 7.675 27.336 23.524 31.716 32.299 1.115 2.235 4.325 2.235 5.44 0 4.379-8.775 14.314-24.624 31.716-32.299 2.415-1.065 2.415-4.488 0-5.553-17.402-7.675-27.336-23.524-31.716-32.299-1.115-2.235-4.325-2.235-5.44 0z" fill="#fee45a"/><path d="m290.951 39.534c-17.406 7.674-27.334 23.524-31.721 32.298-1.11 2.232-4.322 2.232-5.432 0-2.036-4.049-5.236-9.612-9.808-15.175 5.323-6.499 8.491-12.997 17.853-17.123 2.417-1.067 2.417-4.496 0-5.552-9.362-4.126-12.53-10.624-17.853-17.123 4.572-5.562 7.772-11.136 9.808-15.185 1.11-2.232 4.322-2.232 5.432 0 4.387 8.785 14.315 24.634 31.721 32.309 2.416 1.055 2.416 4.484 0 5.551z" fill="#fed402"/></g></g></svg>