<?xml version="1.0"?>
<svg xmlns="http://www.w3.org/2000/svg" id="Capa_1" enable-background="new 0 0 512 512" height="512px" viewBox="0 0 512 512" width="512px"><g><circle cx="155" cy="115" r="25" data-original="#000000" class="active-path" data-old_color="#000000" fill="#FFFFFF"/><path d="m155 170c-28.643 0-52.242 22.006-54.775 50h109.55c-2.533-27.994-26.132-50-54.775-50z" data-original="#000000" class="active-path" data-old_color="#000000" fill="#FFFFFF"/><path d="m85 332h119.782l11.735-17.151c1.59-2.319 3.379-4.472 5.335-6.425l178.148-178.147v-115.277c0-8.284-6.716-15-15-15h-360c-8.284 0-15 6.716-15 15v482c0 8.284 6.716 15 15 15h360c8.284 0 15-6.716 15-15v-197.02l-93.312 93.312c-1.942 1.945-4.1 3.737-6.396 5.311l-67.188 45.971c-7.523 5.145-16.306 7.861-25.406 7.861-12.026 0-23.329-4.683-31.828-13.184-4.99-4.99-8.58-10.915-10.743-17.251h-80.127c-8.284 0-15-6.716-15-15s6.716-15 15-15h80.429c1.265-3.464 2.964-6.819 5.126-9.978l13.7-20.022h-99.255c-8.284 0-15-6.716-15-15s6.716-15 15-15zm180-247h60c8.284 0 15 6.716 15 15s-6.716 15-15 15h-60c-8.284 0-15-6.716-15-15s6.716-15 15-15zm0 60h60c8.284 0 15 6.716 15 15s-6.716 15-15 15h-60c-8.284 0-15-6.716-15-15s6.716-15 15-15zm-195 80c0-31.763 17.524-59.494 43.4-74.083-8.339-9.644-13.4-22.197-13.4-35.917 0-30.327 24.673-55 55-55s55 24.673 55 55c0 13.72-5.061 26.272-13.4 35.917 25.876 14.588 43.4 42.32 43.4 74.083v10c0 8.284-6.716 15-15 15h-140c-8.284 0-15-6.716-15-15z" data-original="#000000" class="active-path" data-old_color="#000000" fill="#FFFFFF"/><path d="m252.901 257.226h150v60h-150z" transform="matrix(.707 -.707 .707 .707 -107.06 315.988)" data-original="#000000" class="active-path" data-old_color="#000000" fill="#FFFFFF"/><path d="m195.313 398.964c-4.076 5.957-3.33 13.973 1.773 19.077 5.104 5.104 13.119 5.85 19.077 1.773l56.901-38.932-38.819-38.819z" data-original="#000000" class="active-path" data-old_color="#000000" fill="#FFFFFF"/><path d="m497.607 159.947c5.858-5.858 5.858-15.355 0-21.213l-21.213-21.213c-5.858-5.858-15.355-5.858-21.213 0l-31.82 31.82 42.426 42.426z" data-original="#000000" class="active-path" data-old_color="#000000" fill="#FFFFFF"/><path d="m397.754 172.374h30v59.999h-30z" transform="matrix(.707 -.707 .707 .707 -22.207 351.135)" data-original="#000000" class="active-path" data-old_color="#000000" fill="#FFFFFF"/></g> </svg>
