<?xml version="1.0" standalone="no"?><!-- Generator: Gravit.io --><svg xmlns="http://www.w3.org/2000/svg" xmlns:xlink="http://www.w3.org/1999/xlink" style="isolation:isolate" viewBox="0 0 1280 677" width="1280px" height="677px"><linearGradient id="_lgradient_0" x1="0" y1="0.4999998045156614" x2="0.999999946701924" y2="0.4999998045156614" gradientTransform="matrix(1200.72,0,0,586.128,79.28,25.555)" gradientUnits="userSpaceOnUse"><stop offset="0.43478260869565216%" stop-opacity="0.7" style="stop-color:rgb(235,0,141)"/><stop offset="100%" stop-opacity="0.7" style="stop-color:rgb(153,102,255)"/></linearGradient><path d=" M 1262.18 26.083 C 1261.78 26.483 1261.48 31.083 1261.48 36.383 L 1261.48 45.983 L 1247.88 62.983 C 1196.98 126.783 1147.08 199.183 1121.28 246.783 C 1118.38 252.183 1115.58 256.683 1115.18 256.583 C 1114.48 256.583 1051.38 209.283 962.48 142.083 L 942.98 127.283 L 920.48 127.883 C 908.08 128.183 787.08 128.683 651.48 129.083 C 515.88 129.383 401.88 129.883 397.98 129.983 C 394.18 130.183 330.88 130.483 257.48 130.683 C 184.08 130.783 113.88 131.083 101.58 131.283 L 79.28 131.583 L 79.98 341.783 C 80.38 457.383 80.88 554.883 81.08 558.483 C 81.18 562.083 81.38 575.483 81.38 588.383 L 81.48 611.683 L 119.28 611.083 C 139.98 610.783 226.08 610.283 310.48 609.983 C 394.88 609.683 483.08 609.283 506.48 608.983 C 529.88 608.683 616.08 608.283 697.98 607.983 C 779.98 607.683 869.68 607.183 897.48 606.883 L 947.98 606.283 L 1053.48 525.083 C 1111.48 480.383 1166.28 438.283 1175.18 431.383 L 1191.38 418.983 L 1191.48 385.883 L 1191.48 352.783 L 1196.58 344.383 C 1209.48 323.183 1224.48 288.983 1234.28 258.483 C 1252.38 202.183 1261.98 141.683 1265.08 64.383 L 1265.68 47.783 L 1273.08 38.583 C 1277.18 33.483 1280.28 28.883 1279.98 28.383 C 1278.68 26.383 1276.38 27.783 1271.28 34.083 L 1265.98 40.683 L 1265.48 33.383 C 1264.98 26.783 1263.98 24.383 1262.18 26.083 Z  M 1260.28 73.183 C 1256.58 176.283 1233.28 271.883 1196.28 336.483 L 1191.98 343.983 L 1191.68 329.383 L 1191.38 314.783 L 1155.48 287.583 C 1135.68 272.683 1119.48 260.083 1119.48 259.683 C 1119.48 258.383 1138.58 224.783 1146.98 211.483 C 1165.58 181.583 1193.08 141.883 1217.48 109.483 C 1237.68 82.683 1259.68 54.583 1260.48 54.583 C 1260.78 54.483 1260.68 62.883 1260.28 73.183 Z  M 1088.18 341.183 C 1088.28 360.583 1095.88 372.283 1111.48 377.183 C 1114.48 378.083 1117.08 378.983 1117.28 379.083 C 1117.48 379.183 1116.68 380.983 1115.68 383.183 C 1111.98 390.183 1106.68 395.283 1098.98 399.083 C 1091.78 402.683 1091.38 402.683 1082.28 402.283 C 1075.08 401.983 1071.98 401.283 1068.48 399.583 C 1057.78 394.083 1051.78 386.583 1048.88 375.483 C 1043.38 353.883 1060.38 331.683 1082.58 331.483 L 1088.18 331.483 L 1088.18 341.183 Z  M 1097.98 334.483 C 1109.38 339.383 1118.08 352.183 1119.08 365.283 C 1119.78 374.383 1119.08 375.183 1112.58 372.983 C 1104.98 370.483 1099.48 365.883 1095.98 359.083 C 1093.38 353.883 1092.98 351.983 1092.68 342.883 C 1092.38 337.183 1092.48 332.483 1092.78 332.483 C 1093.08 332.483 1095.38 333.383 1097.98 334.483 Z " fill="url(#_lgradient_0)"/><path d=" M 756.313 302.69 L 756.313 302.69 L 756.313 302.69 Q 756.313 350.701 737.595 376.492 L 737.595 376.492 L 737.595 376.492 Q 718.877 402.283 683.937 402.283 L 683.937 402.283 L 683.937 402.283 Q 648.997 402.283 630.279 376.492 L 630.279 376.492 L 630.279 376.492 Q 611.561 350.701 611.561 302.425 L 611.561 302.425 L 611.561 302.425 Q 611.561 254.15 630.331 228.689 L 630.331 228.689 L 630.331 228.689 Q 649.101 203.229 684.145 203.229 L 684.145 203.229 L 684.145 203.229 Q 719.189 203.229 737.751 228.888 L 737.751 228.888 L 737.751 228.888 Q 756.313 254.546 756.313 302.69 Z  M 645.357 302.69 L 645.357 302.69 L 645.357 302.69 Q 645.357 335.094 655.028 351.494 L 655.028 351.494 L 655.028 351.494 Q 664.699 367.895 683.937 367.895 L 683.937 367.895 L 683.937 367.895 Q 722.517 367.895 722.517 302.69 L 722.517 302.69 L 722.517 302.69 Q 722.517 237.352 684.145 237.352 L 684.145 237.352 L 684.145 237.352 Q 664.907 237.352 655.132 253.819 L 655.132 253.819 L 655.132 253.819 Q 645.357 270.286 645.357 302.69 Z  M 849.59 251.769 L 849.59 282.057 L 822.137 282.057 L 822.137 399.638 L 790.421 399.638 L 790.421 282.057 L 772.951 282.057 L 772.951 262.614 L 790.421 251.769 L 790.421 240.923 L 790.421 240.923 Q 790.421 215.661 800.196 204.022 L 800.196 204.022 L 800.196 204.022 Q 809.971 192.383 831.496 192.383 L 831.496 192.383 L 831.496 192.383 Q 847.927 192.383 860.717 198.6 L 860.717 198.6 L 852.606 228.226 L 852.606 228.226 Q 843.039 224.391 834.928 224.391 L 834.928 224.391 L 834.928 224.391 Q 828.169 224.391 825.153 229.483 L 825.153 229.483 L 825.153 229.483 Q 822.137 234.575 822.137 242.511 L 822.137 242.511 L 822.137 251.769 L 849.59 251.769 Z  M 932.053 251.769 L 932.053 282.057 L 904.6 282.057 L 904.6 399.638 L 872.884 399.638 L 872.884 282.057 L 855.414 282.057 L 855.414 262.614 L 872.884 251.769 L 872.884 240.923 L 872.884 240.923 Q 872.884 215.661 882.659 204.022 L 882.659 204.022 L 882.659 204.022 Q 892.434 192.383 913.959 192.383 L 913.959 192.383 L 913.959 192.383 Q 930.389 192.383 943.18 198.6 L 943.18 198.6 L 935.069 228.226 L 935.069 228.226 Q 925.502 224.391 917.391 224.391 L 917.391 224.391 L 917.391 224.391 Q 910.632 224.391 907.616 229.483 L 907.616 229.483 L 907.616 229.483 Q 904.6 234.575 904.6 242.511 L 904.6 242.511 L 904.6 251.769 L 932.053 251.769 Z  M 172.73 276.105 L 172.73 276.105 L 172.73 276.105 Q 194.776 276.105 207.826 291.844 L 207.826 291.844 L 207.826 291.844 Q 220.877 307.583 220.877 334.962 L 220.877 334.962 L 220.877 334.962 Q 220.877 367.366 205.174 384.824 L 205.174 384.824 L 205.174 384.824 Q 189.472 402.283 160.251 402.283 L 160.251 402.283 L 160.251 402.283 Q 134.878 402.283 119.28 391.834 L 119.28 391.834 L 119.28 356.52 L 119.28 356.52 Q 127.495 362.075 138.414 365.58 L 138.414 365.58 L 138.414 365.58 Q 149.333 369.085 159.107 369.085 L 159.107 369.085 L 159.107 369.085 Q 188.536 369.085 188.536 338.401 L 188.536 338.401 L 188.536 338.401 Q 188.536 309.171 158.068 309.171 L 158.068 309.171 L 158.068 309.171 Q 152.556 309.171 145.901 310.559 L 145.901 310.559 L 145.901 310.559 Q 139.246 311.948 135.086 313.535 L 135.086 313.535 L 122.296 304.806 L 128.015 206.271 L 210.478 206.271 L 210.478 240.923 L 156.196 240.923 L 153.388 278.883 L 157.028 277.957 L 157.028 277.957 Q 163.371 276.105 172.73 276.105 Z  M 344.415 302.954 L 344.415 302.954 L 344.415 302.954 Q 344.415 353.611 331.364 377.947 L 331.364 377.947 L 331.364 377.947 Q 318.314 402.283 291.173 402.283 L 291.173 402.283 L 291.173 402.283 Q 264.864 402.283 251.501 377.153 L 251.501 377.153 L 251.501 377.153 Q 238.139 352.023 238.139 302.954 L 238.139 302.954 L 238.139 302.954 Q 238.139 251.769 251.137 227.499 L 251.137 227.499 L 251.137 227.499 Q 264.136 203.229 291.173 203.229 L 291.173 203.229 L 291.173 203.229 Q 317.482 203.229 330.948 228.623 L 330.948 228.623 L 330.948 228.623 Q 344.415 254.017 344.415 302.954 Z  M 270.063 302.954 L 270.063 302.954 L 270.063 302.954 Q 270.063 338.533 274.899 353.941 L 274.899 353.941 L 274.899 353.941 Q 279.734 369.35 291.173 369.35 L 291.173 369.35 L 291.173 369.35 Q 302.403 369.35 307.395 353.743 L 307.395 353.743 L 307.395 353.743 Q 312.386 338.136 312.386 302.954 L 312.386 302.954 L 312.386 302.954 Q 312.386 267.376 307.343 251.835 L 307.343 251.835 L 307.343 251.835 Q 302.299 236.294 291.173 236.294 L 291.173 236.294 L 291.173 236.294 Q 279.838 236.294 274.951 251.835 L 274.951 251.835 L 274.951 251.835 Q 270.063 267.376 270.063 302.954 Z  M 384.762 264.202 L 384.762 264.202 L 384.762 264.202 Q 384.762 280.999 387.102 289.265 L 387.102 289.265 L 387.102 289.265 Q 389.442 297.532 394.641 297.532 L 394.641 297.532 L 394.641 297.532 Q 404.624 297.532 404.624 264.202 L 404.624 264.202 L 404.624 264.202 Q 404.624 231.136 394.641 231.136 L 394.641 231.136 L 394.641 231.136 Q 389.442 231.136 387.102 239.27 L 387.102 239.27 L 387.102 239.27 Q 384.762 247.404 384.762 264.202 Z  M 430.829 263.937 L 430.829 263.937 L 430.829 263.937 Q 430.829 294.357 421.574 309.634 L 421.574 309.634 L 421.574 309.634 Q 412.319 324.91 394.433 324.91 L 394.433 324.91 L 394.433 324.91 Q 377.275 324.91 367.916 309.237 L 367.916 309.237 L 367.916 309.237 Q 358.557 293.564 358.557 263.937 L 358.557 263.937 L 358.557 263.937 Q 358.557 203.493 394.433 203.493 L 394.433 203.493 L 394.433 203.493 Q 412.007 203.493 421.418 219.166 L 421.418 219.166 L 421.418 219.166 Q 430.829 234.839 430.829 263.937 Z  M 477.416 206.271 L 502.373 206.271 L 418.039 399.638 L 393.081 399.638 L 477.416 206.271 Z  M 491.246 341.443 L 491.246 341.443 L 491.246 341.443 Q 491.246 358.24 493.586 366.506 L 493.586 366.506 L 493.586 366.506 Q 495.926 374.773 501.125 374.773 L 501.125 374.773 L 501.125 374.773 Q 511.108 374.773 511.108 341.443 L 511.108 341.443 L 511.108 341.443 Q 511.108 308.377 501.125 308.377 L 501.125 308.377 L 501.125 308.377 Q 495.926 308.377 493.586 316.511 L 493.586 316.511 L 493.586 316.511 Q 491.246 324.645 491.246 341.443 Z  M 537.313 341.178 L 537.313 341.178 L 537.313 341.178 Q 537.313 371.466 528.058 386.742 L 528.058 386.742 L 528.058 386.742 Q 518.803 402.019 500.917 402.019 L 500.917 402.019 L 500.917 402.019 Q 483.759 402.019 474.4 386.345 L 474.4 386.345 L 474.4 386.345 Q 465.041 370.672 465.041 341.178 L 465.041 341.178 L 465.041 341.178 Q 465.041 280.734 500.917 280.734 L 500.917 280.734 L 500.917 280.734 Q 518.491 280.734 527.902 296.407 L 527.902 296.407 L 527.902 296.407 Q 537.313 312.08 537.313 341.178 Z " fill="rgb(255,255,255)"/><path d=" M 587.119 498.341 L 587.119 498.341 L 587.119 498.341 Q 587.119 515.899 578.412 525.332 L 578.412 525.332 L 578.412 525.332 Q 569.705 534.764 553.453 534.764 L 553.453 534.764 L 553.453 534.764 Q 537.2 534.764 528.494 525.332 L 528.494 525.332 L 528.494 525.332 Q 519.787 515.899 519.787 498.244 L 519.787 498.244 L 519.787 498.244 Q 519.787 480.589 528.518 471.278 L 528.518 471.278 L 528.518 471.278 Q 537.249 461.966 553.549 461.966 L 553.549 461.966 L 553.549 461.966 Q 569.85 461.966 578.484 471.35 L 578.484 471.35 L 578.484 471.35 Q 587.119 480.734 587.119 498.341 Z  M 535.507 498.341 L 535.507 498.341 L 535.507 498.341 Q 535.507 510.192 540.006 516.19 L 540.006 516.19 L 540.006 516.19 Q 544.504 522.188 553.453 522.188 L 553.453 522.188 L 553.453 522.188 Q 571.398 522.188 571.398 498.341 L 571.398 498.341 L 571.398 498.341 Q 571.398 474.446 553.549 474.446 L 553.549 474.446 L 553.549 474.446 Q 544.601 474.446 540.054 480.468 L 540.054 480.468 L 540.054 480.468 Q 535.507 486.49 535.507 498.341 Z  M 630.507 479.718 L 630.507 490.795 L 617.737 490.795 L 617.737 533.796 L 602.984 533.796 L 602.984 490.795 L 594.858 490.795 L 594.858 483.685 L 602.984 479.718 L 602.984 475.752 L 602.984 475.752 Q 602.984 466.513 607.531 462.257 L 607.531 462.257 L 607.531 462.257 Q 612.078 458 622.09 458 L 622.09 458 L 622.09 458 Q 629.733 458 635.682 460.273 L 635.682 460.273 L 631.91 471.108 L 631.91 471.108 Q 627.459 469.706 623.687 469.706 L 623.687 469.706 L 623.687 469.706 Q 620.542 469.706 619.14 471.568 L 619.14 471.568 L 619.14 471.568 Q 617.737 473.43 617.737 476.332 L 617.737 476.332 L 617.737 479.718 L 630.507 479.718 Z  M 668.865 479.718 L 668.865 490.795 L 656.095 490.795 L 656.095 533.796 L 641.342 533.796 L 641.342 490.795 L 633.216 490.795 L 633.216 483.685 L 641.342 479.718 L 641.342 475.752 L 641.342 475.752 Q 641.342 466.513 645.889 462.257 L 645.889 462.257 L 645.889 462.257 Q 650.435 458 660.448 458 L 660.448 458 L 660.448 458 Q 668.091 458 674.04 460.273 L 674.04 460.273 L 670.267 471.108 L 670.267 471.108 Q 665.817 469.706 662.044 469.706 L 662.044 469.706 L 662.044 469.706 Q 658.9 469.706 657.497 471.568 L 657.497 471.568 L 657.497 471.568 Q 656.095 473.43 656.095 476.332 L 656.095 476.332 L 656.095 479.718 L 668.865 479.718 Z  M 699.676 489.199 L 699.676 489.199 L 699.676 489.199 Q 694.985 489.199 692.324 492.174 L 692.324 492.174 L 692.324 492.174 Q 689.664 495.148 689.277 500.614 L 689.277 500.614 L 709.979 500.614 L 709.979 500.614 Q 709.883 495.148 707.126 492.174 L 707.126 492.174 L 707.126 492.174 Q 704.368 489.199 699.676 489.199 Z  M 701.756 534.764 L 701.756 534.764 L 701.756 534.764 Q 688.696 534.764 681.344 527.557 L 681.344 527.557 L 681.344 527.557 Q 673.992 520.349 673.992 507.144 L 673.992 507.144 L 673.992 507.144 Q 673.992 493.552 680.788 486.127 L 680.788 486.127 L 680.788 486.127 Q 687.584 478.703 699.58 478.703 L 699.58 478.703 L 699.58 478.703 Q 711.044 478.703 717.428 485.233 L 717.428 485.233 L 717.428 485.233 Q 723.813 491.763 723.813 503.275 L 723.813 503.275 L 723.813 510.434 L 688.938 510.434 L 688.938 510.434 Q 689.18 516.722 692.663 520.253 L 692.663 520.253 L 692.663 520.253 Q 696.145 523.784 702.434 523.784 L 702.434 523.784 L 702.434 523.784 Q 707.319 523.784 711.672 522.768 L 711.672 522.768 L 711.672 522.768 Q 716.026 521.752 720.766 519.527 L 720.766 519.527 L 720.766 530.943 L 720.766 530.943 Q 716.896 532.877 712.495 533.821 L 712.495 533.821 L 712.495 533.821 Q 708.093 534.764 701.756 534.764 Z  M 765.992 478.703 L 765.992 478.703 L 765.992 478.703 Q 768.991 478.703 770.974 479.138 L 770.974 479.138 L 769.862 492.972 L 769.862 492.972 Q 768.072 492.488 765.509 492.488 L 765.509 492.488 L 765.509 492.488 Q 758.447 492.488 754.504 496.116 L 754.504 496.116 L 754.504 496.116 Q 750.562 499.744 750.562 506.274 L 750.562 506.274 L 750.562 533.796 L 735.809 533.796 L 735.809 479.718 L 746.983 479.718 L 749.159 488.812 L 749.885 488.812 L 749.885 488.812 Q 752.4 484.265 756.681 481.484 L 756.681 481.484 L 756.681 481.484 Q 760.962 478.703 765.992 478.703 Z  M 162.958 533.796 L 119.28 533.796 L 119.28 463.079 L 134.275 463.079 L 134.275 521.414 L 162.958 521.414 L 162.958 533.796 Z  M 173.455 465.739 L 173.455 465.739 L 173.455 465.739 Q 173.455 458.532 181.484 458.532 L 181.484 458.532 L 181.484 458.532 Q 189.514 458.532 189.514 465.739 L 189.514 465.739 L 189.514 465.739 Q 189.514 469.174 187.506 471.084 L 187.506 471.084 L 187.506 471.084 Q 185.499 472.995 181.484 472.995 L 181.484 472.995 L 181.484 472.995 Q 173.455 472.995 173.455 465.739 Z  M 188.837 479.718 L 188.837 533.796 L 174.084 533.796 L 174.084 479.718 L 188.837 479.718 Z  M 252.734 506.661 L 252.734 533.796 L 237.981 533.796 L 237.981 502.211 L 237.981 502.211 Q 237.981 496.358 236.022 493.431 L 236.022 493.431 L 236.022 493.431 Q 234.063 490.505 229.855 490.505 L 229.855 490.505 L 229.855 490.505 Q 224.195 490.505 221.632 494.665 L 221.632 494.665 L 221.632 494.665 Q 219.068 498.825 219.068 508.354 L 219.068 508.354 L 219.068 533.796 L 204.315 533.796 L 204.315 479.718 L 215.585 479.718 L 217.569 486.635 L 218.391 486.635 L 218.391 486.635 Q 220.568 482.911 224.679 480.807 L 224.679 480.807 L 224.679 480.807 Q 228.791 478.703 234.111 478.703 L 234.111 478.703 L 234.111 478.703 Q 246.252 478.703 250.557 486.635 L 250.557 486.635 L 251.863 486.635 L 251.863 486.635 Q 254.04 482.862 258.272 480.782 L 258.272 480.782 L 258.272 480.782 Q 262.505 478.703 267.825 478.703 L 267.825 478.703 L 267.825 478.703 Q 277.016 478.703 281.732 483.419 L 281.732 483.419 L 281.732 483.419 Q 286.448 488.135 286.448 498.534 L 286.448 498.534 L 286.448 533.796 L 271.647 533.796 L 271.647 502.211 L 271.647 502.211 Q 271.647 496.358 269.688 493.431 L 269.688 493.431 L 269.688 493.431 Q 267.729 490.505 263.52 490.505 L 263.52 490.505 L 263.52 490.505 Q 258.103 490.505 255.418 494.375 L 255.418 494.375 L 255.418 494.375 Q 252.734 498.244 252.734 506.661 L 252.734 506.661 Z  M 300.959 465.739 L 300.959 465.739 L 300.959 465.739 Q 300.959 458.532 308.989 458.532 L 308.989 458.532 L 308.989 458.532 Q 317.018 458.532 317.018 465.739 L 317.018 465.739 L 317.018 465.739 Q 317.018 469.174 315.011 471.084 L 315.011 471.084 L 315.011 471.084 Q 313.003 472.995 308.989 472.995 L 308.989 472.995 L 308.989 472.995 Q 300.959 472.995 300.959 465.739 Z  M 316.341 479.718 L 316.341 533.796 L 301.588 533.796 L 301.588 479.718 L 316.341 479.718 Z  M 354.602 523.01 L 354.602 523.01 L 354.602 523.01 Q 358.472 523.01 363.889 521.317 L 363.889 521.317 L 363.889 532.297 L 363.889 532.297 Q 358.375 534.764 350.345 534.764 L 350.345 534.764 L 350.345 534.764 Q 341.494 534.764 337.455 530.29 L 337.455 530.29 L 337.455 530.29 Q 333.416 525.815 333.416 516.867 L 333.416 516.867 L 333.416 490.795 L 326.354 490.795 L 326.354 484.555 L 334.48 479.622 L 338.736 468.206 L 348.169 468.206 L 348.169 479.718 L 363.309 479.718 L 363.309 490.795 L 348.169 490.795 L 348.169 516.867 L 348.169 516.867 Q 348.169 520.011 349.934 521.51 L 349.934 521.51 L 349.934 521.51 Q 351.7 523.01 354.602 523.01 Z  M 397.216 489.199 L 397.216 489.199 L 397.216 489.199 Q 392.524 489.199 389.864 492.174 L 389.864 492.174 L 389.864 492.174 Q 387.204 495.148 386.817 500.614 L 386.817 500.614 L 407.519 500.614 L 407.519 500.614 Q 407.422 495.148 404.665 492.174 L 404.665 492.174 L 404.665 492.174 Q 401.908 489.199 397.216 489.199 Z  M 399.296 534.764 L 399.296 534.764 L 399.296 534.764 Q 386.236 534.764 378.884 527.557 L 378.884 527.557 L 378.884 527.557 Q 371.532 520.349 371.532 507.144 L 371.532 507.144 L 371.532 507.144 Q 371.532 493.552 378.328 486.127 L 378.328 486.127 L 378.328 486.127 Q 385.124 478.703 397.12 478.703 L 397.12 478.703 L 397.12 478.703 Q 408.583 478.703 414.968 485.233 L 414.968 485.233 L 414.968 485.233 Q 421.353 491.763 421.353 503.275 L 421.353 503.275 L 421.353 510.434 L 386.478 510.434 L 386.478 510.434 Q 386.72 516.722 390.203 520.253 L 390.203 520.253 L 390.203 520.253 Q 393.685 523.784 399.973 523.784 L 399.973 523.784 L 399.973 523.784 Q 404.859 523.784 409.212 522.768 L 409.212 522.768 L 409.212 522.768 Q 413.565 521.752 418.306 519.527 L 418.306 519.527 L 418.306 530.943 L 418.306 530.943 Q 414.436 532.877 410.034 533.821 L 410.034 533.821 L 410.034 533.821 Q 405.633 534.764 399.296 534.764 Z  M 450.472 534.764 L 450.472 534.764 L 450.472 534.764 Q 440.943 534.764 435.501 527.363 L 435.501 527.363 L 435.501 527.363 Q 430.06 519.962 430.06 506.854 L 430.06 506.854 L 430.06 506.854 Q 430.06 493.552 435.598 486.127 L 435.598 486.127 L 435.598 486.127 Q 441.137 478.703 450.859 478.703 L 450.859 478.703 L 450.859 478.703 Q 461.065 478.703 466.434 486.635 L 466.434 486.635 L 466.918 486.635 L 466.918 486.635 Q 465.806 480.589 465.806 475.849 L 465.806 475.849 L 465.806 458.532 L 480.607 458.532 L 480.607 533.796 L 469.288 533.796 L 466.434 526.783 L 465.806 526.783 L 465.806 526.783 Q 460.775 534.764 450.472 534.764 Z  M 455.648 523.01 L 455.648 523.01 L 455.648 523.01 Q 461.307 523.01 463.943 519.721 L 463.943 519.721 L 463.943 519.721 Q 466.579 516.431 466.821 508.547 L 466.821 508.547 L 466.821 506.951 L 466.821 506.951 Q 466.821 498.244 464.137 494.471 L 464.137 494.471 L 464.137 494.471 Q 461.452 490.698 455.406 490.698 L 455.406 490.698 L 455.406 490.698 Q 450.472 490.698 447.739 494.882 L 447.739 494.882 L 447.739 494.882 Q 445.006 499.066 445.006 507.048 L 445.006 507.048 L 445.006 507.048 Q 445.006 515.029 447.763 519.019 L 447.763 519.019 L 447.763 519.019 Q 450.52 523.01 455.648 523.01 Z " fill="rgb(255,255,255)"/></svg>