<?xml version="1.0"?>
<svg xmlns="http://www.w3.org/2000/svg" id="Capa_1" enable-background="new 0 0 511.994 511.994" height="512px" viewBox="0 0 511.994 511.994" width="512px" class=""><g><g><path d="m123.418 0c-23.754 0-44.813 22.215-62.589 66.028-12.522 30.863-21.269 68.213-21.269 90.829 0 36.248 23.121 67.19 55.386 78.873l-8.298 205.1c-.551 20.691 16.072 37.762 36.77 37.762 20.698 0 37.321-17.071 36.77-37.762l-8.299-205.1c32.266-11.683 55.386-42.626 55.386-78.873 0-22.615-8.746-59.966-21.269-90.829-17.777-43.813-38.834-66.028-62.588-66.028z" data-original="#000000" class="active-path" data-old_color="#000000" fill="#646464"/><path d="m386.497 340.121c-47.386 0-85.937 38.551-85.937 85.937s38.551 85.937 85.937 85.937 85.937-38.551 85.937-85.937-38.551-85.937-85.937-85.937zm52.028 116.744-21.213 21.213-30.775-30.775-30.775 30.775-21.213-21.213 30.775-30.775-30.775-30.775 21.213-21.213 30.775 30.775 30.775-30.775 21.213 21.213-30.775 30.775z" data-original="#000000" class="active-path" data-old_color="#000000" fill="#646464"/><path d="m355.304 314.389-3.183-78.658c32.266-11.683 55.386-42.626 55.386-78.873v-156.858h-30v105.357h-38.857v-105.357h-30v105.357h-38.856v-105.357h-30v156.857c0 36.247 23.121 67.19 55.386 78.873l-5.099 126.018c15.213-22.735 38.246-39.814 65.223-47.359z" data-original="#000000" class="active-path" data-old_color="#000000" fill="#646464"/></g></g> </svg>
