<svg xmlns="http://www.w3.org/2000/svg" viewBox="0 0 684 437"><defs><style>.cls-1{fill:#f1f2f2;}.cls-2{fill:#c5d5ed;}.cls-3{fill:#2a3378;}.cls-4{fill:#f8963c;}.cls-5{fill:#f15f5d;}.cls-6{fill:#222559;}.cls-7{fill:#ce327a;}.cls-8{fill:#7d96cd;}.cls-9{fill:#304a9f;}.cls-10{fill:#6169b0;}.cls-11{fill:#f37575;}.cls-12{fill:#7578b9;}.cls-13{fill:#8b8cc5;}.cls-14{fill:#fff;}.cls-15{fill:#212558;}.cls-16{fill:#ffcb57;}.cls-17{fill:#010101;}.cls-18{fill:#4c3217;}.cls-19{fill:#372212;}.cls-20{fill:#484745;}.cls-21{fill:#292825;}.cls-22{fill:#6ca843;}.cls-23{fill:#335226;}.cls-24{fill:#5b9240;}.cls-25{fill:#282b25;}.cls-26{fill:#0e0f0e;}.cls-27{fill:#ce3179;}.cls-28{fill:#a11f61;}.cls-29{fill:#552f5d;}.cls-30{fill:#f6861f;}.cls-31{fill:#253c97;}.cls-32{fill:#ebab21;}.cls-33{fill:#ffda88;}.cls-34{fill:#5a78bb;}.cls-35{fill:#48264f;}</style></defs><g id="Layer_2" data-name="Layer 2"><g id="Layer_1-2" data-name="Layer 1"><rect class="cls-1" width="684" height="437"/><path class="cls-2" d="M556.17,376.35c0,3.95-91.2,7.15-203.71,7.15s-203.72-3.2-203.72-7.15,91.21-7.16,203.72-7.16S556.17,372.39,556.17,376.35Z"/><path class="cls-3" d="M465.31,70.75c13.29-8.52,26-1.2,23.73,5.26,1.36-6.26-11-11.45-21.58-2.5Z"/><path class="cls-3" d="M489,76s-.75-3.93-3.57-4.63S474.76,69.94,470.58,76A13.64,13.64,0,0,1,459.86,82a38.1,38.1,0,0,1,3.7,2.91s2.4.41,5.29-2.32c0,0-.24,2.18-5.05,3.65,0,0,3,2.28,6,1.46a9.72,9.72,0,0,0,4.61-2.56l-1.93,4.31s2.28.57,5.1-2.1S489,76,489,76Z"/><path class="cls-4" d="M491.74,77.54s-.85-2.21-2.7-2.21-6.94.89-7.38,3.38S484.37,82,487.44,82,491.74,77.54,491.74,77.54Z"/><path class="cls-5" d="M494,128.15s6.59-.81,9.36,1.8,6.69,45.11,17.38,47.27c0,0,12.77-3.29,18.53-7.39,6.3-4.49,8.21-8.48,8.21-10.56s2.58-5.5,3.44-5.5.76,1.53.76,1.53,7-7.66,8.12-6.58-3.92,6-3.92,6,5.45-6,6.59-6-.37,2.86-2,4.4c0,0,2.58-1.45,3.34,0s-5.82,7.69-7.54,11.38-4.32,2.25-5.16,3.52c-12.61,19.13-35.05,25.22-40.49,17.5S485.1,130.32,494,128.15Z"/><path class="cls-6" d="M503.34,130c-2.77-2.61-9.36-1.8-9.36-1.8-3.88.95-2.23,10.57,1.31,21.74,3.92-1.66,7.72-4,11.7-5.57C505.46,136.88,504.33,130.89,503.34,130Z"/><path class="cls-7" d="M557.73,152.76c-1.06,1.1-1.87,2-1.87,2S556.77,153.87,557.73,152.76Z"/><polygon class="cls-8" points="556.89 145.47 548.73 161.98 554.81 164.89 566.92 148.85 556.89 145.47"/><polygon class="cls-9" points="568.66 148.49 558.61 144.93 556.89 145.47 566.92 148.85 554.81 164.89 556.25 164.5 568.66 148.49"/><path class="cls-5" d="M550.9,153.77a2.49,2.49,0,0,1,2.19,1.67c.48,1.58,0,2.07-.71,2.07s-1.24-1.53-1.82-1.53a10.36,10.36,0,0,0-2.45,1.05S549.56,154.18,550.9,153.77Z"/><path class="cls-5" d="M405.77,352.25l-3.56,4.31s-1.29,1.08,1.29,4.06a15,15,0,0,1,3.34,8.93c0,1.85,4.63,3.34,4.63,3.34s-3-12.5-1.72-16.2c.67-1.92,14.93-20.19,29.2-38.36-3.87-2.62-7.52-5.63-11.88-7.77C417.38,329.35,405.77,352.25,405.77,352.25Z"/><path class="cls-10" d="M495.87,235a85.5,85.5,0,0,1-28.24-13c-5.88,15.64-11,34.73-11,53.63,0,0-12.15,2.69-17.59,12.17-1.93,3.35-7,12.43-12.3,22.75A97,97,0,0,0,439,319.68c13.25-16.86,26.5-35,28.91-38.49C471.35,276.1,485.63,252.94,495.87,235Z"/><path class="cls-11" d="M496.86,128.68a12.13,12.13,0,0,1-1.54-4.32s4.07-9,5.76-13.71-9.34-5.89-9.34-5.89S489.52,118,483.23,124C487.17,128.18,491.89,128.75,496.86,128.68Z"/><path class="cls-5" d="M491.74,104.76s-.28,1.67-.92,4.07a15.6,15.6,0,0,0,7.34,6.3l1,.41c.74-1.78,1.44-3.52,1.93-4.89C502.77,106,491.74,104.76,491.74,104.76Z"/><path class="cls-12" d="M464.71,219.25c8.42,6.08,21,13.05,31.16,15.75,1.31-2.29,2.56-4.51,3.7-6.58a63.49,63.49,0,0,0,6.72-18.49c-10.14-1.81-19.6-6.86-29-9.87C474.3,206,467.92,210.7,464.71,219.25Z"/><path class="cls-11" d="M526.87,322.8a73.94,73.94,0,0,0-14.32,5.39c9.94,20.75,21.35,43.6,21.35,43.6s-2.23,5.33-1.41,6.11,9.5.31,10.86.31,9.76.4,9.76.4l-12.56-5.72C539.52,371.55,533,346.75,526.87,322.8Z"/><path class="cls-12" d="M515.56,278.26c-1.43-5.55-13.42-40.51-19.33-57.66a15.52,15.52,0,0,0-16.34-10c-9.23.93-19.38,5.45-15.78,21.6,0,0,30.25,41.58,32.16,46.63s-1.91,6.13,2.3,18.4c1.65,4.84,5.79,19.43,12.27,32.95,4.5-2.28,11.27-6,16.26-7.35C521.75,301.93,516.45,281.7,515.56,278.26Z"/><path class="cls-13" d="M515.56,278.26c-2.28-6.4-12.42-33.26-20-57.26-1.77-6.22-8.51-10.87-15.68-10.43a15.65,15.65,0,0,1,17.12,10C502.24,234.51,512.33,264.06,515.56,278.26Z"/><polygon class="cls-14" points="557.73 146.98 564.92 149.4 555.37 162.99 550.7 160.64 555.27 162.67 564.52 149.52 557.73 146.98"/><path class="cls-5" d="M555.79,165.34a22.26,22.26,0,0,1,3.51-2.87c1.82-1.12,4.15-4,3.44-5s-7.16-.54-7.93.82,3.71.68,4,1S555.79,165.34,555.79,165.34Z"/><path class="cls-15" d="M450.33,145.78c-.21.16-21.33,16.41-25.43,38.56a.28.28,0,0,0,.25.33h.05a.29.29,0,0,0,.29-.24c4.07-21.94,25-38.05,25.22-38.21a.28.28,0,0,0,0-.41A.31.31,0,0,0,450.33,145.78Z"/><path class="cls-11" d="M504.25,86.75s6.44-.55,7.45,4.19-2.82,9.07-1.87,10.87a7.65,7.65,0,0,0,3.66,3c.57.24-.5,1.8-1.44,2.13,0,0-.41.87-.14,1.12s.93.71.72,1.32-1.33.91-1.33.91,1.1,1.07.54,1.59a4.65,4.65,0,0,1-1.72.82s.29,2.4-.93,3.11-4.89-.23-8.05-1.49c-.76-.31-1.82-.72-3-1.17a14.52,14.52,0,0,1-9.64-13.56C488.63,92.2,491.46,84,504.25,86.75Z"/><path class="cls-9" d="M501.08,88.57A5.44,5.44,0,0,1,503,93c0,2.91-.36,3.24-.36,3.24h3.87s.79-3.65.43-4.66a36.22,36.22,0,0,1,.5,4.66h9.4s1.92-11.09-7.18-17.31S490,78.29,490,78.29s-7.17-.68-10,4.53-3.86,19.3.63,24.11c2.18,2.34,13.05,3.56,14-2.46S498.59,96,498.59,96a6.22,6.22,0,0,1,1.72,4.6,29.65,29.65,0,0,0,.07-7.78C499.81,89.25,501.08,88.57,501.08,88.57Z"/><path class="cls-9" d="M508.87,109.05c-.61.61,1.44,1.11,2.43,1.27-.77-.06-2.59-.25-2.77-1-.06-.26.12-.67.33-.52a.13.13,0,0,1,0,.2h0Z"/><path class="cls-9" d="M509.22,101.11a1.09,1.09,0,0,1-.7,1.32Z"/><path class="cls-6" d="M506.42,100.62c1.38.2,3.89.35,4.88-.58C510.69,101.3,507.92,101.45,506.42,100.62Z"/><path class="cls-16" d="M514.8,147.09c-3.18-3-13.9-11-17.94-18.41-5,.07-9.69-.5-13.63-4.69a11.67,11.67,0,0,1-2.23,1.72c-8,4.61,0,29.5,0,29.5s6.25,29.4,4.13,31.4a47.79,47.79,0,0,0-10.43,13.45c7.45,7,25.07,14.07,35.21,15.88.29-1.48,1.77-47.31,3.74-51.89C516.52,157.38,518.62,150.7,514.8,147.09Z"/><path class="cls-17" d="M134.79,312.85c-12.44-7.42-17.86-20.77-12.07-30.36s20.72-12,33.82-5.64l1.6-2.65c-14.68-7.17-31.54-4.29-38.22,6.78s-.73,26.24,13.27,34.52Z"/><path class="cls-17" d="M134.79,312.85c-12.44-7.42-17.86-20.77-12.07-30.36s20.72-12,33.82-5.64l1.6-2.65c-14.68-7.17-31.54-4.29-38.22,6.78s-.73,26.24,13.27,34.52Z"/><path class="cls-17" d="M139.37,310.37c-13.5-7.82-20.85-19.68-16.45-26.95s18.93-7.34,32.93-.34l1.21-2c-15.69-7.9-32.09-7.66-37.16.72s3.07,21.85,18.25,30.59Z"/><path class="cls-18" d="M116.14,295.82l8.77-1.86s-2.29-10.29,9.59-15.44L131,270.29s-7.88,1.89-13.56,11.37C113.65,288,116.14,295.82,116.14,295.82Z"/><path class="cls-19" d="M123.84,294.19l1.07-.23s-2.29-10.29,9.59-15.44l-.34-.81C122.41,282.29,123.33,291.6,123.84,294.19Z"/><polygon class="cls-20" points="258.04 218.73 219.53 282.47 213.34 279.14 251.85 215.39 258.04 218.73"/><polygon class="cls-21" points="251.85 215.39 251.85 215.39 255.46 217.34 216.96 281.08 219.53 282.47 258.04 218.73 251.85 215.39"/><path class="cls-22" d="M222.72,277.21a6.61,6.61,0,0,0-2.37-9.13c-.8-.48-1.6-.94-2.43-1.39-27.85-15-63.32-5.85-79.21,20.46S132.51,347,160.37,362c.82.44,1.65.87,2.49,1.27a7.46,7.46,0,0,0,9.53-2.72Z"/><path class="cls-23" d="M220.24,267.53a60.55,60.55,0,0,0-49.56-5.2,61.32,61.32,0,0,1,49.09,5.9,6.22,6.22,0,0,1,3,7.87c-.38,1-30.44,50.12-50.36,84.43,10.47-16.68,50.55-82.28,51.22-84.12A7,7,0,0,0,220.24,267.53Z"/><path class="cls-24" d="M220.35,268.08c-.8-.48-1.6-.94-2.43-1.39a61,61,0,0,0-50.55-3.2,60,60,0,0,1,27.11,6.45c1.3.66,2.56,1.35,3.78,2.09a6.62,6.62,0,0,1,2.35,9.16l-46.46,76.92a58.08,58.08,0,0,0,6.22,3.87c.82.44,1.65.87,2.49,1.27a7.46,7.46,0,0,0,9.53-2.72l50.33-83.32A6.61,6.61,0,0,0,220.35,268.08Z"/><path class="cls-25" d="M217.93,285.13l-.76-.42c-21-11.31-46.83-5.85-57.73,12.19s-2.73,41.84,18.26,53.15l.78.4Z"/><path class="cls-26" d="M217.17,284.71c-16.08-8.67-35-7.48-47.88,1.66,12.1-5.07,27.18-4.58,40.34,2.52.26.13.51.28.76.42l-35.64,59c1,.6,1.93,1.18,2.95,1.73l.78.4,39.45-65.32Z"/><polygon class="cls-17" points="238.13 238.11 244.31 241.45 258.04 218.73 249.54 214.15 238.13 238.11"/><path class="cls-17" d="M174.47,353.8a10.92,10.92,0,0,1,4.45,15.35,12.3,12.3,0,0,1-16.25,4.2A10.93,10.93,0,0,1,158.22,358,12.29,12.29,0,0,1,174.47,353.8Z"/><path class="cls-20" d="M172.08,357.77a6.49,6.49,0,0,1,2.64,9.11,7.32,7.32,0,0,1-9.66,2.5,6.49,6.49,0,0,1-2.63-9.12A7.29,7.29,0,0,1,172.08,357.77Z"/><path class="cls-17" d="M352.36,354.86a8.46,8.46,0,0,1,3,11.32,7.83,7.83,0,0,1-10.91,3.09,8.46,8.46,0,0,1-3-11.32A7.84,7.84,0,0,1,352.36,354.86Z"/><path class="cls-27" d="M340.87,359.72l-33.43-16A8.53,8.53,0,0,1,303.36,332l36.12-67.41c8.28-15.45,28.25-21.63,44.61-13.81l21.65,10.35-50.45,94.14A11,11,0,0,1,340.87,359.72Z"/><path class="cls-27" d="M383.72,302.2l-50.14-24a6.47,6.47,0,0,1-3.1-8.92l7.45-13.9c6.29-11.74,21.47-16.44,33.89-10.49l33.92,16.21Z"/><path class="cls-28" d="M343.77,361.11l-9.32-4.46a6.27,6.27,0,0,1-3-8.64l41.19-76.85c6.09-11.37,20.79-15.92,32.82-10.17l.28.13L353.82,358A7.7,7.7,0,0,1,343.77,361.11Z"/><path class="cls-29" d="M425.06,220.51l-8.78-.53a5.64,5.64,0,0,0-5.31,2.83L382.3,275.54h6.32l27.83-51.37a5.47,5.47,0,0,1,5.31-2.79l2.7.23L394.81,275.5l3.2,0,28.1-51.44a2.66,2.66,0,0,0-1.05-3.59Z"/><path class="cls-29" d="M416.28,220c-6.46-.21-4.16,4.73-34,55.56,2.57-5.11,27.19-52.38,29.9-54.38A5.9,5.9,0,0,1,416.28,220Z"/><polygon class="cls-29" points="376.19 275.43 398.01 275.54 362.18 342.39 339.75 342.39 376.19 275.43"/><path class="cls-17" d="M332.58,349.91a11.13,11.13,0,0,1,3.92,14.87,10.32,10.32,0,0,1-14.34,4.07A11.14,11.14,0,0,1,318.23,354,10.31,10.31,0,0,1,332.58,349.91Z"/><path class="cls-20" d="M330.46,353.75a6.62,6.62,0,0,1,2.33,8.84,6.13,6.13,0,0,1-8.52,2.41,6.61,6.61,0,0,1-2.33-8.83A6.13,6.13,0,0,1,330.46,353.75Z"/><path class="cls-5" d="M321.69,111s-3.64-2-13.33,6C289.24,132.69,263,163.1,254,207.76l-9.28,9.7s-2.49.87,2,2.29c0,0,1.1,2.22,2.56,1.95a2.39,2.39,0,0,0,2.31.72c1.21-.45.79-1.84.79-1.84L258,207.73s20.51-36.14,30.88-48.78S330,117.9,321.69,111Z"/><path class="cls-30" d="M279.37,144.91l14.12,14s28.07-33.47,29.6-40,.29-8.79-2.84-8.64C307.07,110.82,279.37,144.91,279.37,144.91Z"/><path class="cls-3" d="M333.68,114.38s-6.59-5.39-15-2.7-23.26,45.18-27.19,65.39c-.6,3.12-6.5,27.83-4.66,34.22,10.12,35.1,49.36,88.56,49.36,88.56l26.69,70.34s-2.26,7.42-1.45,9.34,5,0,8.54,0,12.6,1.53,13.28,1.53,7.31-1.66,7.31-1.66-14.36-2-19.24-10.49S356,290.59,356,290.59s-19.2-96.23-19.83-105.83,7.5-61.17,4.11-65.78S333.68,114.38,333.68,114.38Z"/><path class="cls-31" d="M286.84,211.29l.64,71.24s-26.29,70.12-30.08,73.71-13.33,11.36-13.33,11.36,6.31,4.24,10,7.23c4.7,3.78,8.73,3.62,20.11,3.62s-3.29-2.8-6-5.32c-4.91-4.64-2.17-14.85-2.17-14.85l42-65.8s20-57.21,28.13-59.35l2-29.18Z"/><path class="cls-8" d="M335.85,232.88c-8.19,3-25.78,51.52-28.47,59.31-1.72,2.75-26.64,41.82-41.31,66.09,13-19.29,32.94-50.36,42.68-65.5l0-.08c22.77-63.28,27.46-58.71,27.78-59.32,0-.07.82-15.32,1-20.22C337,219.73,336.43,226.3,335.85,232.88Z"/><path class="cls-9" d="M298,286.54l0-.12c.34-2.82,8.39-69.05,8.39-73.12a.38.38,0,0,0-.76,0c0,4-8.09,70.55-8.38,73L261.18,354.7l-2.05-1.32c-.12.23-.23.45-.34.65l7.32,4.71c0-.29,0-.46,0-.46l.2-.3-4.45-2.87Z"/><path class="cls-16" d="M341,184.68c-.63-9.6,2.7-61.09-.69-65.7s-6.63-4.6-6.63-4.6a14.19,14.19,0,0,0-15.86-4.48c-8.35,2.8-27,45.81-30.89,66-.6,3.11-6.18,35.72-4.34,42.11,0,0,65.69,4,65.69,4C346.36,211.47,341.16,187.1,341,184.68Z"/><path class="cls-32" d="M336.62,212.77a22.12,22.12,0,0,0,9-4.26c-.25-1.25-.51-2.52-.76-3.78-18.22,11-43.44,8.81-62.28,2.06-.14,1.6-.25,3.11-.31,4.5A108.74,108.74,0,0,0,299,214.71a8.89,8.89,0,0,0,2.65,4.5L331,221A9,9,0,0,0,336.62,212.77Z"/><path class="cls-11" d="M338.24,97s-11,9.24-13.78,13.58c-1.41,2.19,4.73,5.92,10,8.41a4,4,0,0,0,5.14-1.47l8.73-14.24Z"/><path class="cls-5" d="M338.24,97s-2,1.69-4.53,4c2.62,2.26,4.05,6.78,6.89,10.88a6.85,6.85,0,0,0,1.48,1.55l6.2-10.11Z"/><path class="cls-15" d="M337.52,61.38c-1.27,3.3-1.59,7.84.81,10.78l-.19.18c-3.24-2.66-3.87-7.66-3.25-11.61Z"/><path class="cls-15" d="M329.56,67.57c2.39,1.8,7.66,5.26,10.66,4.71l.06.25c-3.12.83-8.9-2.29-11.56-4Z"/><path class="cls-11" d="M356.21,71.91s6.68,3.58,6.68,10.75-3.34,18-3.34,18l-2.89-.68s.58,1.92-.45,2.9c0,0,.33.62,0,.94s-2.35,1-3.48,2.94-8.17,3.24-11.29-.77-3.25-7.29-6.55-8.83S333.85,65.3,356.21,71.91Z"/><path class="cls-3" d="M348.85,76.09s9.75,8.19,14.9,8.19,14.41-6,12.19-13.31a73.28,73.28,0,0,0-3.66-7.68s-2.84,9.35-13.41,6.79l4.88-6.79-4.34-3.07-8.8,5.38a8.34,8.34,0,0,0-8.67-1c-4.75,2.31-3.7,7.68-3.7,7.68s-10.26-.77-12,4.86,0,11.39,0,15.75,7.62,7.94,7.62,7.94l4.4-3.84s-1.32-5.13.72-9.48,3.92-.89,3.92-.89Z"/><path class="cls-11" d="M341.87,86.71a5.55,5.55,0,0,0-5.35-5c-5-.32-6.2,5.86-3.8,8.13s6,1.82,7.46.44A6.38,6.38,0,0,0,341.87,86.71Z"/><path class="cls-5" d="M340.24,87.16a2.49,2.49,0,0,0-3.05-2.75c-3.31.38-2.95,4.22-.49,4.67A3.37,3.37,0,0,0,340.24,87.16Z"/><path class="cls-9" d="M356.21,102.88c-3.47-.8-2.34-1.33-2.13-1.11A7.84,7.84,0,0,0,356.21,102.88Z"/><path class="cls-9" d="M356.66,100a1.26,1.26,0,0,1-1.16-1.41c.06-1.22.55-.73.49-.55C355.65,99,355.58,99.58,356.66,100Z"/><path class="cls-14" d="M340.28,87.69a1.68,1.68,0,1,0-1.68,1.61,1.51,1.51,0,0,0,.42,0v3.33h1.26V87.69Z"/><path class="cls-9" d="M358.55,91.29a1.36,1.36,0,0,1-1.65.74c-.5-.27-.56-1-.15-1.72a1.37,1.37,0,0,1,1.66-.75C358.9,89.83,359,90.61,358.55,91.29Z"/><path class="cls-9" d="M353.9,87.17c2-1.65,5.35-3.41,6.69-1.21.25.41-.42.77-.67.36-1-1.68-4.11.22-5.52,1.39C354,88,353.52,87.49,353.9,87.17Z"/><path class="cls-15" d="M162.86,221.87c8.19-6.57,24.76-.53,25.46-.27a.27.27,0,0,1,.16.35.29.29,0,0,1-.37.15c-.17-.06-17-6.18-24.88.18C162.94,222.51,162.57,222.1,162.86,221.87Z"/><path class="cls-15" d="M135.21,253.32c16.28-21.42,40.09-10.74,40.33-10.63a.28.28,0,1,1-.25.49c-.24-.11-23.62-10.58-39.61,10.45a.3.3,0,0,1-.4.06A.25.25,0,0,1,135.21,253.32Z"/><path class="cls-3" d="M379.37,75c3.35-11.58-10.24-20.88-10.38-21-.31-.2,0-.64.33-.44.14.1,14.05,9.62,10.61,21.56C379.83,75.45,379.27,75.31,379.37,75Z"/><path class="cls-11" d="M329.76,123c8,7.17-25.54,28.64-36.42,40.89s-29.53,49.65-29.53,49.65l-8.32,11.74-2,.67a2.39,2.39,0,0,1-2.28-.81c-1.47.21-2.49-2-2.49-2-1.71-.61-2.38-1.1-2.58-1.47h0c-.91-.75.36-7.22,1.37-7.56.71-.23,1,3,1.17,4.85l7.79-7.54c10.74-44.29,26.81-70.83,46.63-85.72S329.76,123,329.76,123Z"/><path class="cls-33" d="M300,160.44,279,147.74s20.37-23.49,31.73-28.49,20-2.13,21.39,1.67,2.48,6.25-4.8,13.79S300,160.44,300,160.44Z"/><path class="cls-14" d="M320.62,116.64c4.15-.4,9.83.35,11.63,3.86,1.3,3,1.89,5.09.36,8.05-3.5,6.85-26.57,26.76-32.57,31.89,32-31.15,34.91-31.28,31.65-39.7a6.14,6.14,0,0,0-2.87-2.63A16.53,16.53,0,0,0,320.62,116.64Z"/><path class="cls-11" d="M485.86,129.5a11,11,0,0,0-6.41-2.42c-3.59,0-27.37,29.76-33.53,39.77-5.9,9.59-23.71,38.09-27.52,44.07l-2.87,6.16a5.54,5.54,0,0,0,.82,5.95l.47.55a12.32,12.32,0,0,0,2.5.27,12,12,0,0,0,2.13-.93,4.63,4.63,0,0,0,1.19,0,9,9,0,0,0,1.82-1.35l-1.17-6.88c24.49-41.37,56.17-65.3,65.22-70.07C493.93,141.81,485.86,129.5,485.86,129.5Z"/><path class="cls-3" d="M487.06,127.08c-1.14-1.62-3.39-3.41-8.17-1-2.34,1.16-15.53,17-25,29.49a52.53,52.53,0,0,1,8.75,9.4c11.69-11.12,21.46-17.95,25.84-20.26C493.93,141.81,489.63,130.76,487.06,127.08Z"/><path class="cls-34" d="M479.81,150.37a64.64,64.64,0,0,1,6-4.46c1-.72,2.22-1.28,3.13-1.95a4.75,4.75,0,0,0,1.66-2.92,16.08,16.08,0,0,0-.69-7.15,30.57,30.57,0,0,0-2.81-6.81,23.36,23.36,0,0,1,3.39,6.63,15.81,15.81,0,0,1,.88,7.49,5.53,5.53,0,0,1-2,3.33,14.33,14.33,0,0,1-1.64,1l-1.6.92C484,147.67,481.9,149,479.81,150.37Z"/><path class="cls-35" d="M282.22,204.77c17.37,3.71,49.21,7.38,62.39-3.94l1.4,4.85c-4.78,4.53-8.3,4.81-14.24,6.39-15.59,3.64-36.71,1.31-50.25-2.95Z"/><rect class="cls-29" x="300.67" y="203.15" width="33.98" height="16.82" rx="8.41"/><path d="M317,213.76a27.83,27.83,0,0,1-11.09-2.3l-2.62-1.14a.46.46,0,0,1-.25-.62.53.53,0,0,1,.66-.23l2.62,1.14A26.66,26.66,0,0,0,330.71,209a.51.51,0,0,1,.68.14.44.44,0,0,1-.15.64A27.52,27.52,0,0,1,317,213.76Z"/><path class="cls-29" d="M404.73,353.51l-6.06,3.62s3.08,3,3.94,5.82,2,9,5.54,9.94a13.08,13.08,0,0,0,5.61.47s-2.77-3.67-3-4.48a5.34,5.34,0,0,1-3.2-2.79C406.68,363.94,406.3,353.51,404.73,353.51Z"/><path class="cls-29" d="M533,374.19l-1.48,4.42h22.9s-6.93-3.45-8.88-3.45c0,0-6.06,1-8.44.59A11.48,11.48,0,0,1,533,374.19Z"/><path class="cls-11" d="M495,93.28c-2.13,2-2.62,7.21-.9,7.83s5-.38,5-4.14C499.06,97,497.13,91.27,495,93.28Z"/><path class="cls-5" d="M497.7,97.39s-.82-3-2.13-1.78-1.93,3.54-1,4.43S497.44,100.19,497.7,97.39Z"/></g></g></svg>