<?xml version="1.0" standalone="no"?><!-- Generator: Gravit.io --><svg xmlns="http://www.w3.org/2000/svg" xmlns:xlink="http://www.w3.org/1999/xlink" style="isolation:isolate" viewBox="0 0 512 512" width="512px" height="512px"><defs><clipPath id="_clipPath_BLcju5OIAnH2N6WogNSXVjYhYd7VtC95"><rect width="512" height="512"/></clipPath></defs><g clip-path="url(#_clipPath_BLcju5OIAnH2N6WogNSXVjYhYd7VtC95)"><g><g><g><path d=" M 256 16.013 C 181.557 16.013 121 76.57 121 151.013 C 121 225.456 181.557 286.013 256 286.013 C 330.443 286.013 391 225.456 391 151.013 C 391 76.57 330.443 16.013 256 16.013 Z  M 271 223.291 L 271 241.014 C 271 249.305 264.291 256.014 256 256.014 C 247.709 256.014 241 249.305 241 241.014 L 241 223.288 C 234.754 221.078 228.979 217.643 224.169 212.816 C 218.324 206.957 218.324 197.45 224.198 191.605 C 230.072 185.76 239.564 185.76 245.409 191.634 C 254.297 200.57 271 194.858 271 181.014 C 271 172.674 264.273 166.014 256 166.014 C 231.286 166.014 211 146.034 211 121.014 C 211 102.975 221.303 85.877 241 79.243 L 241 61.013 C 241 52.722 247.709 46.013 256 46.013 C 264.291 46.013 271 52.722 271 61.013 L 271 79.247 C 277.215 81.34 283.068 84.433 287.831 89.212 C 293.676 95.071 293.676 104.578 287.802 110.423 C 281.928 116.253 272.436 116.282 266.591 110.394 C 257.703 101.458 241 107.17 241 121.014 C 241 129.354 247.727 136.014 256 136.014 C 280.714 136.014 301 155.994 301 181.014 C 301 199.367 289.948 216.593 271 223.291 Z " fill="rgb(255,255,255)"/></g></g><g><g><path d=" M 200.394 446.618 L 245.376 491.6 C 251.285 497.523 260.863 497.375 266.624 491.6 L 311.606 446.618 C 317.465 440.759 317.465 431.266 311.606 425.407 C 305.747 419.548 296.254 419.548 290.395 425.407 L 271 444.802 L 271 315.253 C 266.052 315.702 261.063 316.013 256 316.013 C 250.937 316.013 245.948 315.702 241 315.253 L 241 444.802 L 221.605 425.407 C 215.746 419.548 206.253 419.548 200.394 425.407 C 194.535 431.266 194.535 440.759 200.394 446.618 Z " fill="rgb(255,255,255)"/></g></g><g><g><path d=" M 121 284.497 L 121 384.802 L 101.605 365.407 C 87.651 351.453 66.255 372.479 80.394 386.618 L 125.376 431.6 C 131.285 437.523 140.863 437.375 146.624 431.6 L 191.606 386.618 C 197.465 380.759 197.465 371.266 191.606 365.407 C 185.747 359.548 176.254 359.548 170.395 365.407 L 151 384.802 L 151 284.662 C 153.391 284.307 155.785 283.968 158.167 283.573 C 117.517 253.49 91 205.351 91 151.013 C 91 96.675 117.517 48.536 158.167 18.454 C 150.834 17.235 143.476 16.013 136 16.013 C 61.557 16.013 0 76.57 0 151.013 C 0 220.32 53.685 276.923 121 284.497 Z " fill="rgb(255,255,255)"/></g></g><g><g><path d=" M 320.394 386.617 L 365.376 431.6 C 371.285 437.523 380.863 437.375 386.624 431.6 L 431.606 386.618 C 437.465 380.759 437.465 371.266 431.606 365.407 C 425.747 359.548 416.254 359.548 410.395 365.407 L 391 384.802 L 391 284.497 C 458.315 276.923 512 220.32 512 151.013 C 512 76.57 450.443 16.013 376 16.013 C 368.524 16.013 361.167 17.234 353.833 18.454 C 394.483 48.536 421 96.674 421 151.013 C 421 205.352 394.483 253.49 353.833 283.572 C 356.215 283.968 358.608 284.306 361 284.661 L 361 384.801 L 341.605 365.406 C 335.746 359.547 326.253 359.547 320.394 365.406 C 314.535 371.265 314.535 380.758 320.394 386.617 Z " fill="rgb(255,255,255)"/></g></g></g></g></svg>