<svg xmlns="http://www.w3.org/2000/svg" xmlns:xlink="http://www.w3.org/1999/xlink" viewBox="0 0 704 490"><defs><style>.cls-1{fill:none;}.cls-2{isolation:isolate;}.cls-3{fill:#f1f2f2;}.cls-15,.cls-4{opacity:0.2;}.cls-5,.cls-6{fill:#a1a8d5;}.cls-6{opacity:0.22;}.cls-7{fill:#079247;}.cls-8{fill:#46b078;}.cls-15,.cls-35,.cls-9{fill:#362b4c;}.cls-10,.cls-11{fill:#f1e1c8;}.cls-11,.cls-15,.cls-17,.cls-21,.cls-23,.cls-24,.cls-30,.cls-39{mix-blend-mode:multiply;}.cls-12{fill:#b47a74;}.cls-13{fill:#1aaed1;}.cls-14,.cls-34{fill:#55c8e5;}.cls-16{fill:#edceb4;}.cls-17,.cls-18{fill:#eca779;}.cls-17{opacity:0.3;}.cls-19,.cls-23{fill:#fbae37;}.cls-20,.cls-28,.cls-37{fill:#fff;}.cls-21{fill:#90c53e;}.cls-22{fill:#e5cb9e;}.cls-25,.cls-28{font-size:37.07px;letter-spacing:0.02em;}.cls-25{fill:#e17325;}.cls-25,.cls-28,.cls-37{font-family:JosefinSans-Bold, JosefinSans Bold;font-weight:700;}.cls-26{letter-spacing:-0.01em;}.cls-27{letter-spacing:0.02em;}.cls-29,.cls-30{fill:#f3e0d0;}.cls-30{opacity:0.52;}.cls-31{clip-path:url(#clip-path);}.cls-32{fill:#fedcaa;}.cls-33,.cls-39{fill:#e6e6e5;}.cls-34{opacity:0.47;}.cls-34,.cls-35{mix-blend-mode:screen;}.cls-36{fill:#0a80a8;}.cls-37{font-size:8.42px;}.cls-38{letter-spacing:-0.03em;}.cls-40{fill:#ed2079;}</style><clipPath id="clip-path"><rect class="cls-1" x="561.96" y="227.02" width="84.62" height="155.49"/></clipPath></defs><g class="cls-2"><g id="Layer_2" data-name="Layer 2"><g id="Layer_1-2" data-name="Layer 1"><rect class="cls-3" width="704" height="490"/><g class="cls-4"><path class="cls-5" d="M669.3,338.86a72.54,72.54,0,0,1-8.72,6.82,76.89,76.89,0,0,1-42.74,12.61H90.77A76.94,76.94,0,0,1,48,345.68a72.54,72.54,0,0,1-8.72-6.82c-14.22-13-21.25-30.38-20.22-47.3.78-13.2,6.46-26.15,17.44-36.55.3-.29.61-.59.93-.86,11.18-10.35,24.3-17.86,37.81-24.73C85.53,224.18,96,219.31,106,213.8c2.53-1.38,5-2.79,7.45-4.26,4.73-2.84,9.64-6,12.72-10.46a16.88,16.88,0,0,0,2-3.57c4-10.1-2.77-21.25-10.56-28.83-5.09-5-10.92-9.6-15.31-15.08A32,32,0,0,1,96.88,142a31.28,31.28,0,0,1-.3-17.3,49.13,49.13,0,0,1,2.82-8.24,64.51,64.51,0,0,1,12-17.93c10.33-11,24.33-18.91,39.22-23.68A117.15,117.15,0,0,1,166.05,71c16.59-2.93,34.85-2.59,48.75,6.9l.08,0,1.76,1.3c14.52,11,22.12,30.44,38.5,38.55A34.76,34.76,0,0,0,274,121h0a35.51,35.51,0,0,0,18.62-7.48,108.55,108.55,0,0,1,13.85-17.69,73,73,0,0,1,4.66-6.39l.44-.51a54.55,54.55,0,0,1,14.49-12.18,48.9,48.9,0,0,1,28.24-6.2,48.92,48.92,0,0,1,28.24,6.2A54.51,54.51,0,0,1,397,89c.16.17.3.34.45.51a75,75,0,0,1,4.65,6.39A107.47,107.47,0,0,1,416,113.55,35.6,35.6,0,0,0,434.61,121h0a34.69,34.69,0,0,0,18.83-3.25c16.39-8.11,24-27.52,38.51-38.55l1.76-1.3.07,0C507.7,68.4,526,68.06,542.54,71A116.9,116.9,0,0,1,558,74.83c14.9,4.77,28.88,12.64,39.23,23.68a65,65,0,0,1,12,17.93,50,50,0,0,1,2.82,8.24,31.47,31.47,0,0,1-.31,17.3,31.81,31.81,0,0,1-5.41,9.62c-4.39,5.48-10.22,10.11-15.31,15.08-7.78,7.58-14.58,18.73-10.57,28.83a17.34,17.34,0,0,0,2,3.57c3.09,4.45,8,7.62,12.73,10.46,2.44,1.47,4.93,2.88,7.44,4.26,10,5.51,20.52,10.38,30.79,15.62,13.52,6.87,26.63,14.38,37.81,24.73.31.27.63.57.94.86,11,10.4,16.65,23.35,17.43,36.55C690.54,308.48,683.53,325.84,669.3,338.86Z"/></g><path class="cls-6" d="M89.14,167.11a12.39,12.39,0,0,0-21.64-8.25,12.4,12.4,0,1,0-24.08-4.15c0,.07,0,.14,0,.21a12.4,12.4,0,1,0-2.22,24.6H78.45v-.14A12.38,12.38,0,0,0,89.14,167.11Z"/><path class="cls-6" d="M132,58.62a12.39,12.39,0,0,0-21.64-8.25A12.4,12.4,0,1,0,86.3,46.22c0,.07,0,.14,0,.21A12.4,12.4,0,1,0,84.09,71h37.25v-.14A12.38,12.38,0,0,0,132,58.62Z"/><path class="cls-6" d="M573.91,40a12.39,12.39,0,0,0-21.64-8.26,12.14,12.14,0,0,0,.73-4.14,12.41,12.41,0,1,0-24.81,0c0,.07,0,.14,0,.21A12.4,12.4,0,1,0,526,52.42h37.25v-.13A12.39,12.39,0,0,0,573.91,40Z"/><path class="cls-6" d="M686.73,121.3A12.39,12.39,0,0,0,665.09,113,12.4,12.4,0,1,0,641,108.9c0,.07,0,.14,0,.21a12.4,12.4,0,1,0-2.23,24.59H676v-.13A12.39,12.39,0,0,0,686.73,121.3Z"/><path class="cls-7" d="M652.73,294.74c0,1.23-1.42,1.87-2.6,2.25a34.65,34.65,0,0,0-14.57,9.2,1.78,1.78,0,0,0-.1,2.39c.72.81,1.78.38,2.62-.05l15.39-7.95c1.91-1,4-2,6.18-.33a5,5,0,0,1,1.26,1.52c1,2,.93,4.17.82,6.32a15.59,15.59,0,0,0-17.11,4.21,2.22,2.22,0,0,0-.31,2.51,1.68,1.68,0,0,0,1.88.69c3.72-.49,6.8-3.4,10.53-3.85a11.2,11.2,0,0,1,8.06,2.68,32.86,32.86,0,0,1,5.76,6.51c.9,1.22,1.85,2.52.92,4.44a5.06,5.06,0,0,1-3,2.55c-2.18.72-4.53.28-6.81.1A31.22,31.22,0,0,0,650.54,329c.49,1.93,3.12,2.1,5.11,2a32.42,32.42,0,0,1,9.25,1,1.49,1.49,0,0,1,1.09.68,1.26,1.26,0,0,1,.09.61,4.65,4.65,0,0,1-2.79,4c-3.7,1.54-7.13-.08-10.34-1.64l-8.68-4.25c-.84-.41-2-.78-2.55.07a1.53,1.53,0,0,0,.11,1.73c3.69,5.12,10.87,5.17,16.48,7.76a2.11,2.11,0,0,1,1.17,1c.41.92-.5,2-.93,2.63a9.1,9.1,0,0,1-5.8,3.79c-4,.68-5.67-1.8-7.31-4.07C642,339.5,637.7,335,632,332.88a3.72,3.72,0,0,0-4.54,1.5c-1.45,2.57,1.43,5,3.83,6.37a144.25,144.25,0,0,1,13.21,8.52,5.69,5.69,0,0,1,1.72,1.7,4.23,4.23,0,0,1-.12,3.64c-1.65,3.81-6.19,5.83-10.31,5.36s-7.78-3-10.46-6.19c-3-3.59-5-7.95-7.11-12.13a4.62,4.62,0,0,0-2.18-2.16c-3-1.36-4.8,1.77-4.27,4.15.42,1.84,1.77,3.29,3.07,4.66q5.5,5.76,11,11.53c1.13,1.18,2.35,2.54,1.4,4.5a4,4,0,0,1-1.59,1.69c-4.87,2.9-11.74,1-14.68-3.71-4-6.36-.81-15.54-5.31-21.53a1.47,1.47,0,0,0-1.65-.76,2.15,2.15,0,0,0-1.5,1.64c-.92,3.91.34,7.86,1.5,11.65,1.21,4,2.33,8.2.79,12.17a7.46,7.46,0,0,1-5,4.69c-4.28,1-7.27-2.68-7.81-6.4-.43-2.93.35-5.88,1.12-8.74s1.47-5.48,2.2-8.22c.46-1.7.93-3.53.17-5.2a2.92,2.92,0,0,0-2.33-1.78c-1.74-.16-2.72,1.48-2.79,3a12.8,12.8,0,0,0,.65,3.65c1.12,4.57.51,9.73-3.27,13.14a8.66,8.66,0,0,1-4.84,2.15c-1.6.17-3.49-.08-3.81-2.79a5.88,5.88,0,0,1,.31-2.59q2.51-7.49,5-15c.52-1.52.85-3.57-.52-4.4-1.85.58-2.95,2.47-3.57,4.31-.77,2.28-1.12,4.79-3.09,6.46a3.48,3.48,0,0,1-3.45.71c-1.95-.75-2.21-3-2.17-4.9.07-4.33,1-9.09,4.44-11.73,5-3.85,13.26-1.62,17.58-6.24l.05-.05A4.64,4.64,0,0,0,591,318c-2.6-.51-6.07-.87-8.22.18-.76.37-1.62.85-2.39.51a2.37,2.37,0,0,1-.9-.85c-5.38-7.35-3.94-18.85,3.23-24.53a3.09,3.09,0,0,1,2-.75c1.48.05,1.87,1.17,2.19,2.2q.85,2.85,1.59,5.74a2.46,2.46,0,0,0,4.8-.11v-.06c.29-2-.4-4-.61-5.93a12.18,12.18,0,0,1,8.06-12.73,6.47,6.47,0,0,1,5.12.58,2.08,2.08,0,0,1,.9.86,2.43,2.43,0,0,1-.35,2.07c-1.13,2.08-2.66,4-3.29,6.27s0,5.19,2.19,6.13a34.82,34.82,0,0,1,5.08-11.32,18.55,18.55,0,0,1,6.19-6c2.94-1.59,6.71-1.92,9.54,0a3.19,3.19,0,0,1,1.43,2.62c0,1.6-1.26,2.12-2.33,2.68A18.83,18.83,0,0,0,615.87,297a1.8,1.8,0,0,0,.46,2.2,2.22,2.22,0,0,0,2.17.24c4-1.64,5.62-6,7.51-9.69,1.75-3.44,4.67-7,8.53-6.87a8.64,8.64,0,0,1,5.2,2.45c.7.62,1.4,1.52,1.09,2.4a2.69,2.69,0,0,1-1.51,1.29,38.36,38.36,0,0,0-15.92,14.66,2.27,2.27,0,0,0-.15,2.14c.85,1.73,3.26.79,4.68-.35a68.82,68.82,0,0,0,7.68-7.2c3.14-3.43,6.13-7.33,11.35-7.66a5.73,5.73,0,0,1,5.54,3.29A2,2,0,0,1,652.73,294.74Z"/><path class="cls-8" d="M556.31,362.51a42.76,42.76,0,0,0,14.62-9.78,2.22,2.22,0,0,1,3.67-.28,22.4,22.4,0,0,0,9.35,4.47,19.26,19.26,0,0,0,11.86-2.26,58,58,0,0,0,10-7.08,42,42,0,0,1-9.55-4.05,14,14,0,0,1-6.3-8c2-.63,4.11-.1,6.11.43L610,339.66q2-7.34,3.31-14.85a4.51,4.51,0,0,0,0-2.19,4.39,4.39,0,0,0-1.45-1.81,53.11,53.11,0,0,0-11.29-7.4l9.83-4.69a4.58,4.58,0,0,0,1.84-1.3,3.9,3.9,0,0,0,.57-1.78,18,18,0,0,0-2.13-11.22,35.45,35.45,0,0,0-4.77-6.17,2.24,2.24,0,0,0-1.1-.81,2.29,2.29,0,0,0-1.27.27l-9.08,4a15.92,15.92,0,0,1,4.79-7.67,7.35,7.35,0,0,0,1.7-1.78c.81-1.45.28-3.29-.53-4.74-2.58-4.62-7.5-7.33-12.17-9.81-5-2.64-10-5.29-15.37-6.9-1-.31-2.36-.5-3.06.33a2.92,2.92,0,0,0-.48,1.82c-.19,4.51-.16,9.6,3,12.78a28.56,28.56,0,0,0,4.12,2.91,19.79,19.79,0,0,1,7,8.64l-13.25-3.39a3.11,3.11,0,0,0-1.73-.11,3.2,3.2,0,0,0-1.2.93l-14.54,15.76a51.29,51.29,0,0,1,16.58,15.83c-1.4,1-3.35.56-5,0a48.16,48.16,0,0,1-15.66-9.38A100.66,100.66,0,0,0,546.23,330c0,3.79.35,7.83,2.64,10.85,2.55,3.39,6.91,4.72,10.63,6.75a2,2,0,0,1,1,.93,2,2,0,0,1-.58,1.76,55.28,55.28,0,0,1-7.46,8.06,2.06,2.06,0,0,0-.83,1.21,1.9,1.9,0,0,0,.35,1.11,9.27,9.27,0,0,0,2.86,2.92"/><path class="cls-7" d="M584,274.58c5.79,9.27,6.67,19.49,4.93,29.82,4.25-.11,8.73-1.13,12.94-1.69,1.82-.24,2.57,2.54.74,2.78-4.52.6-9.59,1.93-14.26,2a88.15,88.15,0,0,1-3.18,11l15.12,5.38c1.73.62,1,3.39-.8,2.77l-15.31-5.46c-.41,1.09-5.77,13.32-7.64,17.08a13.05,13.05,0,0,1,7.53,0,1.44,1.44,0,0,1-.79,2.77c-2.65-.8-8.31.86-8.56.84-2.19,4.34-4.34,8.49-6.21,12.36-.81,1.67-3.27.18-2.47-1.48,2.27-4.7,4.86-9.48,7.39-14.33-.79-3.07-5.42-5.35-7.88-7a89.17,89.17,0,0,0-8.52-4.92c-1.65-.85-.17-3.31,1.48-2.47a88.17,88.17,0,0,1,11.55,7,22,22,0,0,1,5,4.23c1.65-3.25,3.24-6.53,4.65-9.84l-5-3.58c-1.49-1.08,0-3.56,1.48-2.47l4.61,3.32c.89-2.27,1.69-4.54,2.34-6.83.8-2.77,1.51-5.7,2.06-8.7-4-.83-8-3.63-11.46-5.25-1.68-.79-.19-3.25,1.48-2.47,3.34,1.57,6.86,3.73,10.51,4.57,1.39-9.7.87-19.86-4.24-28C580.5,274.43,583,273,584,274.58Z"/><path class="cls-7" d="M62.3,308.2c0,1.23,1.43,1.87,2.6,2.25a34.62,34.62,0,0,1,14.58,9.2,1.79,1.79,0,0,1,.1,2.39c-.73.81-1.79.38-2.63-.05L61.56,314c-1.91-1-4.05-2-6.18-.33a4.83,4.83,0,0,0-1.25,1.52c-1.05,2-.94,4.18-.82,6.32a15.58,15.58,0,0,1,17.1,4.21,2.2,2.2,0,0,1,.31,2.51,1.66,1.66,0,0,1-1.87.69c-3.73-.49-6.8-3.4-10.53-3.85a11.21,11.21,0,0,0-8.07,2.68,33.18,33.18,0,0,0-5.76,6.51c-.9,1.22-1.84,2.52-.92,4.44a5.09,5.09,0,0,0,3,2.55c2.19.72,4.53.28,6.81.1a31.2,31.2,0,0,1,11.13,1.09c-.49,1.93-3.12,2.1-5.11,2a32.68,32.68,0,0,0-9.24,1,1.53,1.53,0,0,0-1.1.68,1.26,1.26,0,0,0-.08.61,4.61,4.61,0,0,0,2.79,4c3.7,1.54,7.13-.07,10.33-1.64l8.69-4.25c.84-.41,2-.78,2.55.07a1.53,1.53,0,0,1-.12,1.73c-3.69,5.12-10.87,5.17-16.47,7.76a2.18,2.18,0,0,0-1.18,1c-.4.92.51,2,.93,2.63a9.12,9.12,0,0,0,5.81,3.79c4,.68,5.66-1.8,7.3-4.07,3.5-4.83,7.74-9.34,13.42-11.45a3.71,3.71,0,0,1,4.54,1.5c1.46,2.57-1.42,5-3.83,6.37a144.1,144.1,0,0,0-13.2,8.52,5.48,5.48,0,0,0-1.72,1.7,4.23,4.23,0,0,0,.11,3.64c1.66,3.81,6.19,5.83,10.32,5.36s7.78-3,10.45-6.19c3-3.59,5-7.95,7.11-12.13A4.66,4.66,0,0,1,99,353c3-1.36,4.81,1.77,4.27,4.15-.41,1.84-1.77,3.3-3.07,4.66l-11,11.53c-1.13,1.18-2.34,2.54-1.4,4.5a4,4,0,0,0,1.6,1.69c4.86,2.9,11.73,1,14.68-3.71,4-6.36.81-15.54,5.3-21.53a1.48,1.48,0,0,1,1.66-.76,2.13,2.13,0,0,1,1.49,1.64c.92,3.91-.34,7.86-1.49,11.65-1.21,4-2.34,8.2-.8,12.17a7.45,7.45,0,0,0,5,4.69c4.27,1,7.27-2.68,7.81-6.4.42-2.93-.35-5.88-1.12-8.74s-1.47-5.48-2.21-8.21c-.46-1.71-.92-3.54-.16-5.21a2.92,2.92,0,0,1,2.32-1.78c1.74-.15,2.73,1.48,2.8,3a13.18,13.18,0,0,1-.66,3.65c-1.11,4.57-.51,9.73,3.28,13.14a8.63,8.63,0,0,0,4.84,2.15c1.59.17,3.48-.08,3.81-2.79a6.18,6.18,0,0,0-.31-2.59q-2.52-7.49-5-15c-.51-1.52-.85-3.57.53-4.4,1.84.58,2.94,2.48,3.56,4.31.77,2.28,1.13,4.79,3.09,6.46a3.49,3.49,0,0,0,3.46.71c1.94-.75,2.2-3,2.17-4.9-.08-4.33-1-9.09-4.45-11.73-5-3.85-13.26-1.62-17.58-6.24l0-.05a4.64,4.64,0,0,1,2.66-7.6c2.6-.51,6.07-.87,8.21.18.76.37,1.62.85,2.39.51a2.39,2.39,0,0,0,.91-.85c5.37-7.35,3.94-18.85-3.24-24.53a3.08,3.08,0,0,0-2-.75c-1.47,0-1.87,1.17-2.18,2.2-.58,1.9-1.11,3.82-1.59,5.74a2.47,2.47,0,0,1-4.81-.11v-.06c-.29-2,.4-3.94.61-5.93a12.14,12.14,0,0,0-8-12.72,6.45,6.45,0,0,0-5.13.57,2,2,0,0,0-.89.87,2.35,2.35,0,0,0,.35,2.06c1.12,2.08,2.65,4,3.28,6.27s0,5.19-2.19,6.13a34.5,34.5,0,0,0-5.08-11.32,18.46,18.46,0,0,0-6.19-6c-2.94-1.59-6.7-1.92-9.54,0a3.16,3.16,0,0,0-1.42,2.62c0,1.6,1.25,2.12,2.33,2.68a18.9,18.9,0,0,1,9.42,11.44,1.8,1.8,0,0,1-.47,2.2,2.21,2.21,0,0,1-2.17.24c-4-1.64-5.62-6-7.51-9.69-1.75-3.44-4.67-7-8.53-6.87a8.64,8.64,0,0,0-5.2,2.45c-.7.62-1.4,1.52-1.08,2.4a2.66,2.66,0,0,0,1.51,1.29,38.4,38.4,0,0,1,15.91,14.66,2.27,2.27,0,0,1,.15,2.14c-.85,1.73-3.26.79-4.67-.35a68.91,68.91,0,0,1-7.69-7.2c-3.13-3.43-6.13-7.33-11.35-7.66a5.74,5.74,0,0,0-5.54,3.29A2.29,2.29,0,0,0,62.3,308.2Z"/><path class="cls-8" d="M158.73,376a42.67,42.67,0,0,1-14.62-9.78,3.05,3.05,0,0,0-1.73-1.11,3,3,0,0,0-1.94.83,22.51,22.51,0,0,1-9.36,4.48,19.31,19.31,0,0,1-11.85-2.27,58.09,58.09,0,0,1-10-7.08,41.2,41.2,0,0,0,9.56-4.05,14,14,0,0,0,6.29-8c-2-.62-4.11-.1-6.11.43L105,353.12q-2-7.33-3.31-14.85a4.39,4.39,0,0,1,0-2.19,4.32,4.32,0,0,1,1.45-1.81,53,53,0,0,1,11.28-7.4l-9.83-4.69a4.48,4.48,0,0,1-1.83-1.3,3.91,3.91,0,0,1-.58-1.78,18,18,0,0,1,2.13-11.22,35.94,35.94,0,0,1,4.77-6.17,2.15,2.15,0,0,1,1.11-.8,2.21,2.21,0,0,1,1.27.26l9.08,4a16,16,0,0,0-4.8-7.67,7.55,7.55,0,0,1-1.7-1.78c-.81-1.45-.28-3.29.53-4.74,2.58-4.62,7.5-7.33,12.18-9.81,5-2.64,10-5.29,15.37-6.9,1-.31,2.35-.5,3,.33a2.93,2.93,0,0,1,.49,1.82c.18,4.51.15,9.6-3.06,12.78a28,28,0,0,1-4.12,2.91,19.86,19.86,0,0,0-7,8.64l13.26-3.39a2.32,2.32,0,0,1,2.92.82l14.54,15.76a51.37,51.37,0,0,0-16.57,15.83c1.39,1,3.34.56,5,0a48.21,48.21,0,0,0,15.67-9.38,100.65,100.65,0,0,1,2.56,23.14c0,3.79-.35,7.83-2.63,10.85-2.55,3.39-6.92,4.72-10.64,6.75a1.9,1.9,0,0,0-1,.93,2,2,0,0,0,.57,1.76,55.84,55.84,0,0,0,7.46,8.06,2.06,2.06,0,0,1,.83,1.21,1.77,1.77,0,0,1-.35,1.11,9.17,9.17,0,0,1-2.86,2.92"/><path class="cls-7" d="M131.05,288c-5.8,9.27-6.68,19.49-4.94,29.82-4.25-.1-8.73-1.13-12.94-1.69-1.82-.24-2.57,2.54-.74,2.78,4.53.6,9.6,1.93,14.26,2a89.38,89.38,0,0,0,3.18,11l-15.11,5.38c-1.74.62-1,3.39.79,2.77l15.31-5.46c.42,1.09,5.78,13.32,7.64,17.09a13,13,0,0,0-7.53,0c-1.77.54-1,3.31.79,2.77,2.65-.8,8.32.86,8.57.84,2.19,4.34,4.34,8.49,6.21,12.36.8,1.67,3.27.18,2.47-1.47-2.28-4.7-4.87-9.49-7.4-14.34.79-3.07,5.42-5.35,7.89-7A87.8,87.8,0,0,1,158,340c1.65-.84.17-3.31-1.47-2.47a88.28,88.28,0,0,0-11.56,7,22,22,0,0,0-5,4.23c-1.66-3.25-3.25-6.53-4.66-9.84l5-3.58c1.49-1.08,0-3.56-1.48-2.47l-4.62,3.32c-.89-2.27-1.68-4.54-2.34-6.83-.8-2.77-1.5-5.7-2.06-8.69,3.95-.84,8-3.64,11.47-5.26,1.67-.79.18-3.25-1.48-2.47-3.34,1.57-6.86,3.73-10.51,4.57-1.4-9.7-.87-19.86,4.24-28C134.53,287.89,132,286.47,131.05,288Z"/><rect class="cls-9" x="528.24" y="367.84" width="52.05" height="11.51" transform="translate(1108.53 747.18) rotate(180)"/><rect class="cls-10" x="528.24" y="163.74" width="52.05" height="204.1" transform="translate(1108.53 531.58) rotate(180)"/><path class="cls-11" d="M528.24,165.91h52.05a0,0,0,0,1,0,0v112A52.05,52.05,0,0,1,528.24,330h0a0,0,0,0,1,0,0v-164A0,0,0,0,1,528.24,165.91Z"/><path class="cls-9" d="M528.24,165.91H576.6a9.68,9.68,0,0,0,9.68-9.67h-58Z"/><rect class="cls-12" x="542.84" y="213.77" width="22.84" height="23.8"/><rect class="cls-13" x="544.96" y="215.52" width="18.61" height="20.33"/><polygon class="cls-14" points="544.96 215.51 544.96 224.23 554.81 215.51 544.96 215.51"/><polygon class="cls-14" points="558.35 215.51 544.96 227.37 544.96 228.31 559.42 215.51 558.35 215.51"/><polygon class="cls-14" points="560.51 215.51 544.96 229.28 544.96 231.28 562.77 215.51 560.51 215.51"/><rect class="cls-12" x="542.84" y="268.02" width="22.84" height="23.8"/><rect class="cls-13" x="544.96" y="269.76" width="18.61" height="20.33"/><polygon class="cls-14" points="544.96 269.76 544.96 278.48 554.81 269.76 544.96 269.76"/><polygon class="cls-14" points="558.35 269.76 544.96 281.61 544.96 282.55 559.42 269.76 558.35 269.76"/><polygon class="cls-14" points="560.51 269.76 544.96 283.52 544.96 285.52 562.77 269.76 560.51 269.76"/><rect class="cls-12" x="542.84" y="313.79" width="22.84" height="43.06"/><rect class="cls-13" x="545.04" y="316.45" width="18.44" height="37.77"/><polygon class="cls-14" points="545.04 316.45 545.04 332.64 554.8 316.45 545.04 316.45"/><polygon class="cls-14" points="558.32 316.45 545.04 338.47 545.04 340.22 559.37 316.45 558.32 316.45"/><polygon class="cls-14" points="560.45 316.45 545.04 342.01 545.04 345.74 562.7 316.45 560.45 316.45"/><path class="cls-15" d="M580.21,367.62H528.32v11.72h40.16a11.73,11.73,0,0,0,11.73-11.72Z"/><rect class="cls-11" x="528.24" y="165.91" width="26.03" height="203.84"/><rect class="cls-9" x="132.72" y="367.84" width="52.05" height="11.51"/><rect class="cls-10" x="132.72" y="163.74" width="52.05" height="204.1"/><path class="cls-11" d="M132.72,165.91h52.05a0,0,0,0,1,0,0v112A52.05,52.05,0,0,1,132.72,330h0a0,0,0,0,1,0,0v-164A0,0,0,0,1,132.72,165.91Z"/><path class="cls-9" d="M184.78,165.91H136.41a9.67,9.67,0,0,1-9.67-9.67h58Z"/><rect class="cls-12" x="147.33" y="213.98" width="22.84" height="23.8"/><rect class="cls-13" x="149.45" y="215.72" width="18.61" height="20.33"/><polygon class="cls-14" points="149.45 215.72 149.45 224.44 159.29 215.72 149.45 215.72"/><polygon class="cls-14" points="162.84 215.72 149.45 227.58 149.45 228.52 163.9 215.72 162.84 215.72"/><polygon class="cls-14" points="164.99 215.72 149.45 229.48 149.45 231.49 167.26 215.72 164.99 215.72"/><rect class="cls-12" x="147.33" y="268.22" width="22.84" height="23.8"/><rect class="cls-13" x="149.45" y="269.97" width="18.61" height="20.33"/><polygon class="cls-14" points="149.45 269.97 149.45 278.68 159.29 269.97 149.45 269.97"/><polygon class="cls-14" points="162.84 269.97 149.45 281.82 149.45 282.76 163.9 269.97 162.84 269.97"/><polygon class="cls-14" points="164.99 269.97 149.45 283.73 149.45 285.73 167.26 269.97 164.99 269.97"/><rect class="cls-12" x="147.33" y="314" width="22.84" height="43.06"/><rect class="cls-13" x="149.53" y="316.66" width="18.44" height="37.77"/><polygon class="cls-14" points="149.53 316.66 149.53 332.85 159.29 316.66 149.53 316.66"/><polygon class="cls-14" points="162.8 316.66 149.53 338.68 149.53 340.43 163.86 316.66 162.8 316.66"/><polygon class="cls-14" points="164.94 316.66 149.53 342.22 149.53 345.94 167.18 316.66 164.94 316.66"/><path class="cls-15" d="M184.73,367.62H132.84v11.72H173a11.72,11.72,0,0,0,11.72-11.72Z"/><rect class="cls-11" x="158.79" y="165.91" width="25.99" height="203.84"/><rect class="cls-9" x="183.31" y="367.84" width="345.92" height="11.51"/><rect class="cls-16" x="183.31" y="145.89" width="345.93" height="221.94"/><path class="cls-17" d="M494.67,145.89q-1.74,1.89-3.55,3.69a129.77,129.77,0,0,1-92,38.12H183.31V145.89Z"/><path class="cls-9" d="M173.27,138.9h366a9.67,9.67,0,0,1-9.67,9.68H182.94a9.67,9.67,0,0,1-9.67-9.68Z"/><rect class="cls-10" x="318" y="198.56" width="76.55" height="169.28"/><rect class="cls-18" x="235.19" y="198.56" width="83.06" height="169.28"/><path class="cls-17" d="M235.19,198.56h83.06a0,0,0,0,1,0,0v43.32A67.08,67.08,0,0,1,251.18,309h-16a0,0,0,0,1,0,0V198.56A0,0,0,0,1,235.19,198.56Z"/><rect class="cls-17" x="235.19" y="198.56" width="82.8" height="4.37"/><path class="cls-17" d="M235.19,310.81h83.06a0,0,0,0,1,0,0v0a51.65,51.65,0,0,1-51.65,51.65H235.19a0,0,0,0,1,0,0V310.81A0,0,0,0,1,235.19,310.81Z"/><rect class="cls-12" x="260.19" y="202.92" width="33.32" height="46.08"/><rect class="cls-13" x="263.28" y="206.3" width="27.14" height="39.36"/><polygon class="cls-14" points="263.28 206.29 263.28 223.17 277.65 206.29 263.28 206.29"/><polygon class="cls-14" points="282.82 206.29 263.28 229.24 263.28 231.06 284.37 206.29 282.82 206.29"/><polygon class="cls-14" points="285.96 206.29 263.28 232.93 263.28 236.81 289.26 206.29 285.96 206.29"/><rect class="cls-12" x="260.19" y="256.86" width="33.32" height="46.08"/><rect class="cls-13" x="263.28" y="260.24" width="27.14" height="39.36"/><polygon class="cls-14" points="263.28 260.24 263.28 277.11 277.65 260.24 263.28 260.24"/><polygon class="cls-14" points="282.82 260.24 263.28 283.19 263.28 285 284.37 260.24 282.82 260.24"/><polygon class="cls-14" points="285.96 260.24 263.28 286.87 263.28 290.76 289.26 260.24 285.96 260.24"/><rect class="cls-12" x="260.2" y="325.52" width="33.3" height="42.32"/><rect class="cls-19" x="275.13" y="343.72" width="1.14" height="9.8"/><rect class="cls-19" x="277.41" y="343.72" width="1.14" height="9.8"/><rect class="cls-13" x="262.68" y="354.67" width="11.34" height="7.79"/><polygon class="cls-14" points="262.68 354.67 262.68 358.01 268.68 354.67 262.68 354.67"/><polygon class="cls-14" points="270.84 354.67 262.68 359.21 262.68 359.57 271.49 354.67 270.84 354.67"/><polygon class="cls-14" points="272.15 354.67 262.68 359.94 262.68 360.71 273.54 354.67 272.15 354.67"/><rect class="cls-13" x="279.69" y="354.67" width="11.34" height="7.79"/><polygon class="cls-14" points="279.69 354.67 279.69 358.01 285.69 354.67 279.69 354.67"/><polygon class="cls-14" points="287.85 354.67 279.69 359.21 279.69 359.57 288.5 354.67 287.85 354.67"/><polygon class="cls-14" points="289.16 354.67 279.69 359.94 279.69 360.71 290.54 354.67 289.16 354.67"/><rect class="cls-13" x="262.68" y="342.31" width="11.34" height="7.79"/><polygon class="cls-14" points="262.68 342.31 262.68 345.65 268.68 342.31 262.68 342.31"/><polygon class="cls-14" points="270.84 342.31 262.68 346.85 262.68 347.21 271.49 342.31 270.84 342.31"/><polygon class="cls-14" points="272.15 342.31 262.68 347.58 262.68 348.35 273.54 342.31 272.15 342.31"/><rect class="cls-13" x="279.69" y="342.31" width="11.34" height="7.79"/><polygon class="cls-14" points="279.69 342.31 279.69 345.65 285.69 342.31 279.69 342.31"/><polygon class="cls-14" points="287.85 342.31 279.69 346.85 279.69 347.21 288.5 342.31 287.85 342.31"/><polygon class="cls-14" points="289.16 342.31 279.69 347.58 279.69 348.35 290.54 342.31 289.16 342.31"/><rect class="cls-13" x="262.68" y="329.95" width="11.34" height="7.79"/><polygon class="cls-14" points="262.68 329.95 262.68 333.29 268.68 329.95 262.68 329.95"/><polygon class="cls-14" points="270.84 329.95 262.68 334.49 262.68 334.85 271.49 329.95 270.84 329.95"/><polygon class="cls-14" points="272.15 329.95 262.68 335.22 262.68 335.99 273.54 329.95 272.15 329.95"/><rect class="cls-13" x="279.69" y="329.95" width="11.34" height="7.79"/><polygon class="cls-14" points="279.69 329.95 279.69 333.29 285.69 329.95 279.69 329.95"/><polygon class="cls-14" points="287.85 329.95 279.69 334.49 279.69 334.85 288.5 329.95 287.85 329.95"/><polygon class="cls-14" points="289.16 329.95 279.69 335.22 279.69 335.99 290.54 329.95 289.16 329.95"/><polygon class="cls-20" points="255.87 347.53 255.87 363.56 235.19 363.56 235.19 347.53 237.71 347.53 237.71 361.41 253.5 361.41 253.5 347.53 255.87 347.53"/><rect class="cls-13" x="237.71" y="347.53" width="15.79" height="13.88"/><polygon class="cls-14" points="237.71 347.53 237.71 353.48 246.07 347.53 237.71 347.53"/><polygon class="cls-14" points="249.08 347.53 237.71 355.62 237.71 356.26 249.98 347.53 249.08 347.53"/><polygon class="cls-14" points="250.91 347.53 237.71 356.92 237.71 358.29 252.83 347.53 250.91 347.53"/><polygon class="cls-20" points="318 347.53 318 363.56 297.32 363.56 297.32 347.53 299.84 347.53 299.84 361.41 315.63 361.41 315.63 347.53 318 347.53"/><rect class="cls-13" x="299.84" y="347.53" width="15.79" height="13.88"/><polygon class="cls-14" points="299.84 347.53 299.84 353.48 308.2 347.53 299.84 347.53"/><polygon class="cls-14" points="311.21 347.53 299.84 355.62 299.84 356.26 312.11 347.53 311.21 347.53"/><polygon class="cls-14" points="313.04 347.53 299.84 356.92 299.84 358.29 314.96 347.53 313.04 347.53"/><rect class="cls-9" x="235.19" y="363.56" width="20.68" height="15.78"/><path class="cls-15" d="M255.87,363.56H235.19v15.78h4.9a15.78,15.78,0,0,0,15.78-15.78Z"/><rect class="cls-9" x="297.32" y="363.56" width="20.68" height="15.78"/><path class="cls-15" d="M318,363.56H297.32v15.78h4.9A15.78,15.78,0,0,0,318,363.56Z"/><rect class="cls-12" x="235.45" y="307.77" width="82.55" height="3.91"/><path class="cls-7" d="M316.8,302.08a5.53,5.53,0,0,1-1,3.21,5.66,5.66,0,0,1-4.69,2.48H294.87v0a5.55,5.55,0,0,1-.72,0l-.36,0-.38,0H277.18v0l-.44,0H260.5v0a5.81,5.81,0,0,1-.72,0l-.38,0-.36,0H242.81v0a6,6,0,0,1-.74,0,5.64,5.64,0,0,1-4.68-2.48,5.53,5.53,0,0,1-1-3.21,5.67,5.67,0,0,1,7.13-5.49,7.89,7.89,0,0,1,14.31-.06,6,6,0,0,1,1.21-.13l.36,0,.38,0a5.68,5.68,0,0,1,1.44.19,7.88,7.88,0,0,1,14.28-.1,5.09,5.09,0,0,1,.95-.09h.29a6,6,0,0,1,1.2.13,7.88,7.88,0,0,1,14.27,0,6,6,0,0,1,1.2-.13l.38,0,.36,0a5.82,5.82,0,0,1,1.45.19,7.89,7.89,0,0,1,14.31-.06,5.88,5.88,0,0,1,1.2-.13A5.69,5.69,0,0,1,316.8,302.08Z"/><path class="cls-21" d="M315.8,305.29a5.66,5.66,0,0,1-4.69,2.48H294.87v0a5.55,5.55,0,0,1-.72,0l-.36,0-.38,0H277.18v0l-.44,0H260.5v0a5.81,5.81,0,0,1-.72,0l-.38,0-.36,0H242.81v0a6,6,0,0,1-.74,0,5.64,5.64,0,0,1-4.68-2.48,5.63,5.63,0,0,1,4.68-2.48,5.24,5.24,0,0,1,1.45.19,7.88,7.88,0,0,1,14.31-.06,5.34,5.34,0,0,1,1.21-.13h.74a5.27,5.27,0,0,1,1.44.19,7.87,7.87,0,0,1,14.28-.11,6.09,6.09,0,0,1,.95-.08h.29a5.32,5.32,0,0,1,1.2.13,7.87,7.87,0,0,1,14.27,0,5.32,5.32,0,0,1,1.2-.13h.74a5.39,5.39,0,0,1,1.45.19,7.88,7.88,0,0,1,14.31-.06,5.25,5.25,0,0,1,1.2-.13A5.63,5.63,0,0,1,315.8,305.29Z"/><rect class="cls-22" x="255.87" y="371.67" width="41.45" height="3.84"/><rect class="cls-19" x="255.87" y="367.84" width="41.45" height="3.84"/><rect class="cls-23" x="255.87" y="370.37" width="41.45" height="1.31"/><rect class="cls-23" x="255.87" y="374.2" width="41.45" height="1.31"/><rect class="cls-19" x="255.87" y="375.51" width="41.45" height="3.84"/><rect class="cls-18" x="394.55" y="198.56" width="83.06" height="169.28"/><path class="cls-17" d="M394.55,198.56h83.06a0,0,0,0,1,0,0v43.32A67.08,67.08,0,0,1,410.53,309h-16a0,0,0,0,1,0,0V198.56A0,0,0,0,1,394.55,198.56Z"/><rect class="cls-17" x="394.55" y="198.56" width="82.8" height="4.37"/><path class="cls-17" d="M394.55,310.81h83.06a0,0,0,0,1,0,0v0A51.65,51.65,0,0,1,426,362.46H394.55a0,0,0,0,1,0,0V310.81A0,0,0,0,1,394.55,310.81Z"/><rect class="cls-12" x="419.55" y="202.92" width="33.32" height="46.08"/><rect class="cls-13" x="422.64" y="206.3" width="27.14" height="39.36"/><polygon class="cls-14" points="422.64 206.29 422.64 223.17 437 206.29 422.64 206.29"/><polygon class="cls-14" points="442.17 206.29 422.64 229.24 422.64 231.06 443.72 206.29 442.17 206.29"/><polygon class="cls-14" points="445.31 206.29 422.64 232.93 422.64 236.81 448.62 206.29 445.31 206.29"/><rect class="cls-12" x="419.55" y="256.86" width="33.32" height="46.08"/><rect class="cls-13" x="422.64" y="260.24" width="27.14" height="39.36"/><polygon class="cls-14" points="422.64 260.24 422.64 277.11 437 260.24 422.64 260.24"/><polygon class="cls-14" points="442.17 260.24 422.64 283.19 422.64 285 443.72 260.24 442.17 260.24"/><polygon class="cls-14" points="445.31 260.24 422.64 286.87 422.64 290.76 448.62 260.24 445.31 260.24"/><rect class="cls-12" x="419.56" y="325.52" width="33.3" height="42.32"/><rect class="cls-19" x="434.49" y="343.72" width="1.14" height="9.8"/><rect class="cls-19" x="436.76" y="343.72" width="1.14" height="9.8"/><rect class="cls-13" x="422.03" y="354.67" width="11.34" height="7.79"/><polygon class="cls-14" points="422.03 354.67 422.03 358.01 428.03 354.67 422.03 354.67"/><polygon class="cls-14" points="430.2 354.67 422.03 359.21 422.03 359.57 430.84 354.67 430.2 354.67"/><polygon class="cls-14" points="431.51 354.67 422.03 359.94 422.03 360.71 432.89 354.67 431.51 354.67"/><rect class="cls-13" x="439.04" y="354.67" width="11.34" height="7.79"/><polygon class="cls-14" points="439.04 354.67 439.04 358.01 445.04 354.67 439.04 354.67"/><polygon class="cls-14" points="447.2 354.67 439.04 359.21 439.04 359.57 447.85 354.67 447.2 354.67"/><polygon class="cls-14" points="448.52 354.67 439.04 359.94 439.04 360.71 449.9 354.67 448.52 354.67"/><rect class="cls-13" x="422.03" y="342.31" width="11.34" height="7.79"/><polygon class="cls-14" points="422.03 342.31 422.03 345.65 428.03 342.31 422.03 342.31"/><polygon class="cls-14" points="430.2 342.31 422.03 346.85 422.03 347.21 430.84 342.31 430.2 342.31"/><polygon class="cls-14" points="431.51 342.31 422.03 347.58 422.03 348.35 432.89 342.31 431.51 342.31"/><rect class="cls-13" x="439.04" y="342.31" width="11.34" height="7.79"/><polygon class="cls-14" points="439.04 342.31 439.04 345.65 445.04 342.31 439.04 342.31"/><polygon class="cls-14" points="447.2 342.31 439.04 346.85 439.04 347.21 447.85 342.31 447.2 342.31"/><polygon class="cls-14" points="448.52 342.31 439.04 347.58 439.04 348.35 449.9 342.31 448.52 342.31"/><rect class="cls-13" x="422.03" y="329.95" width="11.34" height="7.79"/><polygon class="cls-14" points="422.03 329.95 422.03 333.29 428.03 329.95 422.03 329.95"/><polygon class="cls-14" points="430.2 329.95 422.03 334.49 422.03 334.85 430.84 329.95 430.2 329.95"/><polygon class="cls-14" points="431.51 329.95 422.03 335.22 422.03 335.99 432.89 329.95 431.51 329.95"/><rect class="cls-13" x="439.04" y="329.95" width="11.34" height="7.79"/><polygon class="cls-14" points="439.04 329.95 439.04 333.29 445.04 329.95 439.04 329.95"/><polygon class="cls-14" points="447.2 329.95 439.04 334.49 439.04 334.85 447.85 329.95 447.2 329.95"/><polygon class="cls-14" points="448.52 329.95 439.04 335.22 439.04 335.99 449.9 329.95 448.52 329.95"/><polygon class="cls-20" points="415.22 347.53 415.22 363.56 394.55 363.56 394.55 347.53 397.07 347.53 397.07 361.41 412.86 361.41 412.86 347.53 415.22 347.53"/><rect class="cls-13" x="397.07" y="347.53" width="15.79" height="13.88"/><polygon class="cls-14" points="397.07 347.53 397.07 353.48 405.43 347.53 397.07 347.53"/><polygon class="cls-14" points="408.44 347.53 397.07 355.62 397.07 356.26 409.34 347.53 408.44 347.53"/><polygon class="cls-14" points="410.26 347.53 397.07 356.92 397.07 358.29 412.19 347.53 410.26 347.53"/><polygon class="cls-20" points="477.35 347.53 477.35 363.56 456.68 363.56 456.68 347.53 459.19 347.53 459.19 361.41 474.99 361.41 474.99 347.53 477.35 347.53"/><rect class="cls-13" x="459.19" y="347.53" width="15.79" height="13.88"/><polygon class="cls-14" points="459.19 347.53 459.19 353.48 467.55 347.53 459.19 347.53"/><polygon class="cls-14" points="470.56 347.53 459.19 355.62 459.19 356.26 471.46 347.53 470.56 347.53"/><polygon class="cls-14" points="472.39 347.53 459.19 356.92 459.19 358.29 474.31 347.53 472.39 347.53"/><rect class="cls-9" x="394.55" y="363.56" width="20.68" height="15.78"/><path class="cls-15" d="M415.22,363.56H394.55v15.78h4.89a15.77,15.77,0,0,0,15.78-15.78Z"/><rect class="cls-9" x="456.67" y="363.56" width="20.68" height="15.78"/><path class="cls-15" d="M477.35,363.56H456.67v15.78h4.9a15.77,15.77,0,0,0,15.78-15.78Z"/><rect class="cls-22" x="415.22" y="371.67" width="41.45" height="3.84"/><rect class="cls-19" x="415.22" y="367.84" width="41.45" height="3.84"/><rect class="cls-23" x="415.22" y="370.37" width="41.45" height="1.31"/><rect class="cls-23" x="415.22" y="374.2" width="41.45" height="1.31"/><rect class="cls-19" x="415.22" y="375.51" width="41.45" height="3.84"/><rect class="cls-12" x="394.8" y="307.77" width="82.55" height="3.91"/><path class="cls-7" d="M476.15,302.08a5.53,5.53,0,0,1-1,3.21,5.64,5.64,0,0,1-4.69,2.48H454.23v0a5.84,5.84,0,0,1-.73,0l-.36,0-.37,0H436.53v0l-.44,0H419.86v0a6.11,6.11,0,0,1-.73,0l-.37,0-.36,0H402.16v0a5.84,5.84,0,0,1-.73,0,5.69,5.69,0,1,1,1.45-11.18,7.89,7.89,0,0,1,14.31-.06,5.9,5.9,0,0,1,1.21-.13l.36,0,.37,0a5.68,5.68,0,0,1,1.44.19,7.89,7.89,0,0,1,14.29-.1,5,5,0,0,1,.95-.09h.28a6,6,0,0,1,1.2.13,7.88,7.88,0,0,1,14.28,0,5.88,5.88,0,0,1,1.2-.13l.37,0,.36,0a5.76,5.76,0,0,1,1.45.19,7.89,7.89,0,0,1,14.31-.06,6,6,0,0,1,1.2-.13A5.68,5.68,0,0,1,476.15,302.08Z"/><path class="cls-21" d="M475.15,305.29a5.64,5.64,0,0,1-4.69,2.48H454.23v0a5.84,5.84,0,0,1-.73,0l-.36,0-.37,0H436.53v0l-.44,0H419.86v0a6.11,6.11,0,0,1-.73,0l-.37,0-.36,0H402.16v0a5.84,5.84,0,0,1-.73,0,5.66,5.66,0,0,1-4.69-2.48,5.64,5.64,0,0,1,4.69-2.48,5.29,5.29,0,0,1,1.45.19,7.88,7.88,0,0,1,14.31-.06,5.28,5.28,0,0,1,1.21-.13h.73a5.27,5.27,0,0,1,1.44.19,7.88,7.88,0,0,1,14.29-.11,6,6,0,0,1,.95-.08h.28a5.32,5.32,0,0,1,1.2.13,7.88,7.88,0,0,1,14.28,0,5.25,5.25,0,0,1,1.2-.13h.73A5.34,5.34,0,0,1,455,303a7.88,7.88,0,0,1,14.31-.06,5.32,5.32,0,0,1,1.2-.13A5.62,5.62,0,0,1,475.15,305.29Z"/><rect class="cls-12" x="369.13" y="250.66" width="20.47" height="42.71"/><rect class="cls-13" x="371.03" y="252.03" width="16.67" height="39.99"/><polygon class="cls-14" points="371.03 252.03 371.03 269.18 379.85 252.03 371.03 252.03"/><polygon class="cls-14" points="383.03 252.03 371.03 275.35 371.03 277.2 383.98 252.03 383.03 252.03"/><polygon class="cls-14" points="384.96 252.03 371.03 279.1 371.03 283.04 386.99 252.03 384.96 252.03"/><rect class="cls-12" x="345.86" y="250.66" width="20.47" height="42.71"/><rect class="cls-13" x="347.76" y="252.03" width="16.67" height="39.99"/><polygon class="cls-14" points="347.76 252.03 347.76 269.18 356.58 252.03 347.76 252.03"/><polygon class="cls-14" points="359.76 252.03 347.76 275.35 347.76 277.2 360.71 252.03 359.76 252.03"/><polygon class="cls-14" points="361.69 252.03 347.76 279.1 347.76 283.04 363.72 252.03 361.69 252.03"/><rect class="cls-12" x="322.59" y="250.66" width="20.47" height="42.71"/><rect class="cls-13" x="324.49" y="252.03" width="16.67" height="39.99"/><polygon class="cls-14" points="324.49 252.03 324.49 269.18 333.31 252.03 324.49 252.03"/><polygon class="cls-14" points="336.49 252.03 324.49 275.35 324.49 277.2 337.44 252.03 336.49 252.03"/><polygon class="cls-14" points="338.42 252.03 324.49 279.1 324.49 283.04 340.45 252.03 338.42 252.03"/><rect class="cls-12" x="369.13" y="204.08" width="20.47" height="42.71"/><rect class="cls-13" x="371.03" y="205.45" width="16.67" height="39.99"/><polygon class="cls-14" points="371.03 205.45 371.03 222.59 379.85 205.45 371.03 205.45"/><polygon class="cls-14" points="383.03 205.45 371.03 228.76 371.03 230.61 383.98 205.45 383.03 205.45"/><polygon class="cls-14" points="384.96 205.45 371.03 232.51 371.03 236.45 386.99 205.45 384.96 205.45"/><rect class="cls-12" x="345.86" y="204.08" width="20.47" height="42.71"/><rect class="cls-13" x="347.76" y="205.45" width="16.67" height="39.99"/><polygon class="cls-14" points="347.76 205.45 347.76 222.59 356.58 205.45 347.76 205.45"/><polygon class="cls-14" points="359.76 205.45 347.76 228.76 347.76 230.61 360.71 205.45 359.76 205.45"/><polygon class="cls-14" points="361.69 205.45 347.76 232.51 347.76 236.45 363.72 205.45 361.69 205.45"/><rect class="cls-12" x="322.59" y="204.08" width="20.47" height="42.71"/><rect class="cls-13" x="324.49" y="205.45" width="16.67" height="39.99"/><polygon class="cls-14" points="324.49 205.45 324.49 222.59 333.31 205.45 324.49 205.45"/><polygon class="cls-14" points="336.49 205.45 324.49 228.76 324.49 230.61 337.44 205.45 336.49 205.45"/><polygon class="cls-14" points="338.42 205.45 324.49 232.51 324.49 236.45 340.45 205.45 338.42 205.45"/><rect class="cls-12" x="369.13" y="297.57" width="20.47" height="63.22"/><rect class="cls-13" x="371.03" y="299.6" width="16.67" height="59.19"/><polygon class="cls-14" points="371.03 299.6 371.03 324.97 379.85 299.6 371.03 299.6"/><polygon class="cls-14" points="383.03 299.6 371.03 334.11 371.03 336.84 383.98 299.6 383.03 299.6"/><polygon class="cls-14" points="384.96 299.6 371.03 339.65 371.03 345.49 386.99 299.6 384.96 299.6"/><rect class="cls-12" x="345.86" y="297.57" width="20.47" height="63.22"/><rect class="cls-13" x="347.76" y="299.6" width="16.67" height="59.19"/><polygon class="cls-14" points="347.76 299.6 347.76 324.97 356.58 299.6 347.76 299.6"/><polygon class="cls-14" points="359.76 299.6 347.76 334.11 347.76 336.84 360.71 299.6 359.76 299.6"/><polygon class="cls-14" points="361.69 299.6 347.76 339.65 347.76 345.49 363.72 299.6 361.69 299.6"/><rect class="cls-12" x="322.59" y="297.57" width="20.47" height="63.22"/><rect class="cls-13" x="324.49" y="299.6" width="16.67" height="59.19"/><polygon class="cls-14" points="324.49 299.6 324.49 324.97 333.31 299.6 324.49 299.6"/><polygon class="cls-14" points="336.49 299.6 324.49 334.11 324.49 336.84 337.44 299.6 336.49 299.6"/><polygon class="cls-14" points="338.42 299.6 324.49 339.65 324.49 345.49 340.45 299.6 338.42 299.6"/><rect class="cls-12" x="492.24" y="213.77" width="22.84" height="23.8"/><rect class="cls-13" x="494.36" y="215.52" width="18.61" height="20.33"/><polygon class="cls-14" points="494.36 215.51 494.36 224.23 504.21 215.51 494.36 215.51"/><polygon class="cls-14" points="507.75 215.51 494.36 227.37 494.36 228.31 508.82 215.51 507.75 215.51"/><polygon class="cls-14" points="509.91 215.51 494.36 229.28 494.36 231.28 512.17 215.51 509.91 215.51"/><rect class="cls-12" x="492.24" y="268.02" width="22.84" height="23.8"/><rect class="cls-13" x="494.36" y="269.76" width="18.61" height="20.33"/><polygon class="cls-14" points="494.36 269.76 494.36 278.48 504.21 269.76 494.36 269.76"/><polygon class="cls-14" points="507.75 269.76 494.36 281.61 494.36 282.55 508.82 269.76 507.75 269.76"/><polygon class="cls-14" points="509.91 269.76 494.36 283.52 494.36 285.52 512.17 269.76 509.91 269.76"/><rect class="cls-12" x="492.24" y="313.79" width="22.84" height="43.06"/><rect class="cls-13" x="494.45" y="316.45" width="18.44" height="37.77"/><polygon class="cls-14" points="494.44 316.45 494.44 332.64 504.2 316.45 494.44 316.45"/><polygon class="cls-14" points="507.72 316.45 494.44 338.47 494.44 340.22 508.77 316.45 507.72 316.45"/><polygon class="cls-14" points="509.85 316.45 494.44 342.01 494.44 345.74 512.1 316.45 509.85 316.45"/><path class="cls-7" d="M401.25,372.89a6.4,6.4,0,0,1-1.15,3.68,6.49,6.49,0,0,1-5.38,2.84H376.11v-.06a7.2,7.2,0,0,1-.83.06c-.14,0-.27,0-.41,0s-.28,0-.43,0H355.83v0l-.51,0h-18.6v-.06a7.91,7.91,0,0,1-.84.06l-.42,0-.42,0H316.43v-.06a7.54,7.54,0,0,1-.84.06,6.5,6.5,0,0,1-5.37-2.84,6.39,6.39,0,0,1-1.14-3.68,6.47,6.47,0,0,1,8.18-6.29,9,9,0,0,1,16.4-.08,6.86,6.86,0,0,1,1.38-.15l.42,0,.42,0a6.46,6.46,0,0,1,1.66.23,9,9,0,0,1,16.37-.12,5.68,5.68,0,0,1,1.09-.11h.32a6.86,6.86,0,0,1,1.38.15,9,9,0,0,1,16.37,0,6.84,6.84,0,0,1,1.37-.15l.43,0,.41,0a6.6,6.6,0,0,1,1.67.23,9,9,0,0,1,16.4-.08,6.84,6.84,0,0,1,1.37-.15A6.52,6.52,0,0,1,401.25,372.89Z"/><path class="cls-21" d="M400.1,376.57a6.49,6.49,0,0,1-5.38,2.84H376.11v-.06a7.2,7.2,0,0,1-.83.06c-.14,0-.27,0-.41,0s-.28,0-.43,0H355.83v0l-.51,0h-18.6v-.06a7.91,7.91,0,0,1-.84.06l-.42,0-.42,0H316.43v-.06a7.54,7.54,0,0,1-.84.06,6.5,6.5,0,0,1-5.37-2.84,6.47,6.47,0,0,1,5.37-2.85,6.12,6.12,0,0,1,1.67.22,9,9,0,0,1,16.4-.07,6.21,6.21,0,0,1,1.38-.15l.42,0,.42,0a6,6,0,0,1,1.66.22,9,9,0,0,1,16.37-.13,7.88,7.88,0,0,1,1.09-.09h.32a6.21,6.21,0,0,1,1.38.15,9,9,0,0,1,16.37,0,6.19,6.19,0,0,1,1.37-.15l.43,0,.41,0a6.17,6.17,0,0,1,1.67.22,9,9,0,0,1,16.4-.07,6.19,6.19,0,0,1,1.37-.15A6.45,6.45,0,0,1,400.1,376.57Z"/><rect class="cls-12" x="197.63" y="213.77" width="22.84" height="23.8"/><rect class="cls-13" x="199.74" y="215.52" width="18.61" height="20.33"/><polygon class="cls-14" points="199.75 215.51 199.75 224.23 209.59 215.51 199.75 215.51"/><polygon class="cls-14" points="213.14 215.51 199.75 227.37 199.75 228.31 214.2 215.51 213.14 215.51"/><polygon class="cls-14" points="215.29 215.51 199.75 229.28 199.75 231.28 217.56 215.51 215.29 215.51"/><rect class="cls-12" x="197.63" y="268.02" width="22.84" height="23.8"/><rect class="cls-13" x="199.74" y="269.76" width="18.61" height="20.33"/><polygon class="cls-14" points="199.75 269.76 199.75 278.48 209.59 269.76 199.75 269.76"/><polygon class="cls-14" points="213.14 269.76 199.75 281.61 199.75 282.55 214.2 269.76 213.14 269.76"/><polygon class="cls-14" points="215.29 269.76 199.75 283.52 199.75 285.52 217.56 269.76 215.29 269.76"/><rect class="cls-12" x="197.63" y="313.79" width="22.84" height="43.06"/><rect class="cls-13" x="199.83" y="316.45" width="18.44" height="37.77"/><polygon class="cls-14" points="199.83 316.45 199.83 332.64 209.59 316.45 199.83 316.45"/><polygon class="cls-14" points="213.1 316.45 199.83 338.47 199.83 340.22 214.15 316.45 213.1 316.45"/><polygon class="cls-14" points="215.24 316.45 199.83 342.01 199.83 345.74 217.48 316.45 215.24 316.45"/><path class="cls-15" d="M529.24,367.62H477.35v11.72h40.16a11.73,11.73,0,0,0,11.73-11.72Z"/><path class="cls-15" d="M235.24,367.62H183.35v11.72h40.16a11.73,11.73,0,0,0,11.73-11.72Z"/><g class="cls-24"><path class="cls-16" d="M498,253.8h-6.21a1.61,1.61,0,0,1-1.61-1.61h0a1.61,1.61,0,0,1,1.61-1.61H498a1.61,1.61,0,0,1,1.61,1.61h0A1.61,1.61,0,0,1,498,253.8Z"/><path class="cls-16" d="M495.27,258.63h-6.21a1.61,1.61,0,0,1-1.61-1.61h0a1.61,1.61,0,0,1,1.61-1.61h6.21a1.61,1.61,0,0,1,1.61,1.61h0A1.61,1.61,0,0,1,495.27,258.63Z"/></g><g class="cls-24"><path class="cls-16" d="M201,197.75h-6.21a1.61,1.61,0,0,1-1.61-1.61h0a1.61,1.61,0,0,1,1.61-1.61H201a1.61,1.61,0,0,1,1.61,1.61h0A1.61,1.61,0,0,1,201,197.75Z"/><path class="cls-16" d="M198.32,202.58h-6.21A1.61,1.61,0,0,1,190.5,201h0a1.61,1.61,0,0,1,1.61-1.61h6.21a1.61,1.61,0,0,1,1.61,1.61h0A1.61,1.61,0,0,1,198.32,202.58Z"/></g><g class="cls-24"><path class="cls-16" d="M523.41,303.1H517.2a1.61,1.61,0,0,1-1.61-1.61h0a1.61,1.61,0,0,1,1.61-1.61h6.21a1.61,1.61,0,0,1,1.61,1.61h0A1.61,1.61,0,0,1,523.41,303.1Z"/><path class="cls-16" d="M520.7,307.93h-6.21a1.61,1.61,0,0,1-1.61-1.61h0a1.61,1.61,0,0,1,1.61-1.6h6.21a1.61,1.61,0,0,1,1.61,1.6h0A1.61,1.61,0,0,1,520.7,307.93Z"/></g><g class="cls-24"><path class="cls-16" d="M413.8,254.6h-6.21A1.61,1.61,0,0,1,406,253h0a1.61,1.61,0,0,1,1.61-1.61h6.21a1.61,1.61,0,0,1,1.61,1.61h0A1.61,1.61,0,0,1,413.8,254.6Z"/><path class="cls-16" d="M411.09,259.44h-6.21a1.62,1.62,0,0,1-1.61-1.61h0a1.61,1.61,0,0,1,1.61-1.61h6.21a1.62,1.62,0,0,1,1.61,1.61h0A1.62,1.62,0,0,1,411.09,259.44Z"/></g><g class="cls-24"><path class="cls-16" d="M308.48,276.3h-6.21a1.61,1.61,0,0,1-1.61-1.6h0a1.61,1.61,0,0,1,1.61-1.61h6.21a1.61,1.61,0,0,1,1.61,1.61h0A1.61,1.61,0,0,1,308.48,276.3Z"/><path class="cls-16" d="M305.77,281.14h-6.21a1.61,1.61,0,0,1-1.61-1.61h0a1.61,1.61,0,0,1,1.61-1.61h6.21a1.61,1.61,0,0,1,1.61,1.61h0A1.61,1.61,0,0,1,305.77,281.14Z"/></g><g class="cls-24"><path class="cls-16" d="M308.48,321.44h-6.21a1.61,1.61,0,0,1-1.61-1.61h0a1.61,1.61,0,0,1,1.61-1.61h6.21a1.61,1.61,0,0,1,1.61,1.61h0A1.61,1.61,0,0,1,308.48,321.44Z"/><path class="cls-16" d="M305.77,326.27h-6.21a1.61,1.61,0,0,1-1.61-1.61h0a1.61,1.61,0,0,1,1.61-1.61h6.21a1.61,1.61,0,0,1,1.61,1.61h0A1.61,1.61,0,0,1,305.77,326.27Z"/></g><g class="cls-24"><path class="cls-16" d="M409.09,321.44h-6.21a1.61,1.61,0,0,1-1.61-1.61h0a1.61,1.61,0,0,1,1.61-1.61h6.21a1.61,1.61,0,0,1,1.61,1.61h0A1.61,1.61,0,0,1,409.09,321.44Z"/><path class="cls-16" d="M406.38,326.27h-6.21a1.61,1.61,0,0,1-1.61-1.61h0a1.61,1.61,0,0,1,1.61-1.61h6.21a1.62,1.62,0,0,1,1.61,1.61h0A1.62,1.62,0,0,1,406.38,326.27Z"/></g><g class="cls-24"><path class="cls-16" d="M308.48,225.16h-6.21a1.61,1.61,0,0,1-1.61-1.61h0a1.61,1.61,0,0,1,1.61-1.61h6.21a1.61,1.61,0,0,1,1.61,1.61h0A1.61,1.61,0,0,1,308.48,225.16Z"/><path class="cls-16" d="M305.77,230h-6.21a1.61,1.61,0,0,1-1.61-1.61h0a1.61,1.61,0,0,1,1.61-1.61h6.21a1.61,1.61,0,0,1,1.61,1.61h0A1.61,1.61,0,0,1,305.77,230Z"/></g><g class="cls-24"><path class="cls-16" d="M468.83,219.07h-6.21a1.61,1.61,0,0,1-1.61-1.61h0a1.61,1.61,0,0,1,1.61-1.61h6.21a1.61,1.61,0,0,1,1.61,1.61h0A1.61,1.61,0,0,1,468.83,219.07Z"/><path class="cls-16" d="M466.12,223.9h-6.21a1.61,1.61,0,0,1-1.61-1.61h0a1.61,1.61,0,0,1,1.61-1.61h6.21a1.61,1.61,0,0,1,1.61,1.61h0A1.61,1.61,0,0,1,466.12,223.9Z"/></g><g class="cls-24"><path class="cls-16" d="M571.14,302.3h-6.2a1.62,1.62,0,0,1-1.61-1.61h0a1.61,1.61,0,0,1,1.61-1.61h6.2a1.61,1.61,0,0,1,1.61,1.61h0A1.62,1.62,0,0,1,571.14,302.3Z"/><path class="cls-16" d="M568.43,307.13h-6.21a1.62,1.62,0,0,1-1.61-1.61h0a1.62,1.62,0,0,1,1.61-1.61h6.21a1.61,1.61,0,0,1,1.61,1.61h0A1.61,1.61,0,0,1,568.43,307.13Z"/></g><g class="cls-24"><path class="cls-16" d="M548.3,197.75h-6.21a1.61,1.61,0,0,1-1.61-1.61h0a1.61,1.61,0,0,1,1.61-1.61h6.21a1.61,1.61,0,0,1,1.61,1.61h0A1.61,1.61,0,0,1,548.3,197.75Z"/><path class="cls-16" d="M545.59,202.58h-6.21a1.61,1.61,0,0,1-1.61-1.61h0a1.61,1.61,0,0,1,1.61-1.61h6.21A1.61,1.61,0,0,1,547.2,201h0A1.61,1.61,0,0,1,545.59,202.58Z"/></g><g class="cls-24"><path class="cls-16" d="M571.14,188.36h-6.2a1.61,1.61,0,0,1-1.61-1.61h0a1.61,1.61,0,0,1,1.61-1.61h6.2a1.61,1.61,0,0,1,1.61,1.61h0A1.61,1.61,0,0,1,571.14,188.36Z"/><path class="cls-16" d="M568.43,193.2h-6.21a1.62,1.62,0,0,1-1.61-1.61h0a1.62,1.62,0,0,1,1.61-1.61h6.21a1.61,1.61,0,0,1,1.61,1.61h0A1.62,1.62,0,0,1,568.43,193.2Z"/></g><g class="cls-24"><path class="cls-16" d="M507.41,184.34H501.2a1.61,1.61,0,0,1-1.61-1.61h0a1.61,1.61,0,0,1,1.61-1.61h6.21a1.61,1.61,0,0,1,1.61,1.61h0A1.61,1.61,0,0,1,507.41,184.34Z"/><path class="cls-16" d="M502.7,189.17h-6.21a1.61,1.61,0,0,1-1.61-1.61h0a1.61,1.61,0,0,1,1.61-1.61h6.21a1.62,1.62,0,0,1,1.61,1.61h0A1.62,1.62,0,0,1,502.7,189.17Z"/><path class="cls-16" d="M514.12,189.17h-6.21a1.61,1.61,0,0,1-1.61-1.61h0a1.61,1.61,0,0,1,1.61-1.61h6.21a1.62,1.62,0,0,1,1.61,1.61h0A1.62,1.62,0,0,1,514.12,189.17Z"/></g><g class="cls-24"><path class="cls-16" d="M441.15,172.43h-6.21a1.61,1.61,0,0,1-1.61-1.61h0a1.61,1.61,0,0,1,1.61-1.61h6.21a1.61,1.61,0,0,1,1.61,1.61h0A1.61,1.61,0,0,1,441.15,172.43Z"/><path class="cls-16" d="M436.43,177.26h-6.2a1.61,1.61,0,0,1-1.61-1.61h0a1.61,1.61,0,0,1,1.61-1.61h6.2a1.61,1.61,0,0,1,1.61,1.61h0A1.61,1.61,0,0,1,436.43,177.26Z"/><path class="cls-16" d="M447.85,177.26h-6.2a1.61,1.61,0,0,1-1.61-1.61h0a1.61,1.61,0,0,1,1.61-1.61h6.2a1.61,1.61,0,0,1,1.61,1.61h0A1.61,1.61,0,0,1,447.85,177.26Z"/></g><g class="cls-24"><path class="cls-16" d="M262.3,170h-6.21a1.61,1.61,0,0,1-1.61-1.61h0a1.61,1.61,0,0,1,1.61-1.6h6.21a1.61,1.61,0,0,1,1.61,1.6h0A1.61,1.61,0,0,1,262.3,170Z"/><path class="cls-16" d="M257.59,174.85h-6.21a1.61,1.61,0,0,1-1.61-1.61h0a1.61,1.61,0,0,1,1.61-1.61h6.21a1.61,1.61,0,0,1,1.61,1.61h0A1.61,1.61,0,0,1,257.59,174.85Z"/><path class="cls-16" d="M269,174.85H262.8a1.61,1.61,0,0,1-1.61-1.61h0a1.61,1.61,0,0,1,1.61-1.61H269a1.61,1.61,0,0,1,1.61,1.61h0A1.61,1.61,0,0,1,269,174.85Z"/></g><g class="cls-24"><path class="cls-16" d="M251.41,249.77H245.2a1.61,1.61,0,0,1-1.61-1.61h0a1.61,1.61,0,0,1,1.61-1.61h6.21a1.61,1.61,0,0,1,1.6,1.61h0A1.61,1.61,0,0,1,251.41,249.77Z"/><path class="cls-16" d="M246.69,254.6h-6.21a1.61,1.61,0,0,1-1.61-1.61h0a1.61,1.61,0,0,1,1.61-1.61h6.21A1.61,1.61,0,0,1,248.3,253h0A1.61,1.61,0,0,1,246.69,254.6Z"/><path class="cls-16" d="M258.11,254.6H251.9a1.61,1.61,0,0,1-1.61-1.61h0a1.61,1.61,0,0,1,1.61-1.61h6.21a1.61,1.61,0,0,1,1.61,1.61h0A1.61,1.61,0,0,1,258.11,254.6Z"/></g><g class="cls-24"><path class="cls-16" d="M251.41,319.83H245.2a1.61,1.61,0,0,1-1.61-1.61h0a1.61,1.61,0,0,1,1.61-1.61h6.21a1.61,1.61,0,0,1,1.6,1.61h0A1.61,1.61,0,0,1,251.41,319.83Z"/><path class="cls-16" d="M246.69,324.66h-6.21a1.61,1.61,0,0,1-1.61-1.61h0a1.61,1.61,0,0,1,1.61-1.61h6.21a1.61,1.61,0,0,1,1.61,1.61h0A1.61,1.61,0,0,1,246.69,324.66Z"/><path class="cls-16" d="M258.11,324.66H251.9a1.61,1.61,0,0,1-1.61-1.61h0a1.61,1.61,0,0,1,1.61-1.61h6.21a1.61,1.61,0,0,1,1.61,1.61h0A1.61,1.61,0,0,1,258.11,324.66Z"/></g><g class="cls-24"><rect class="cls-16" x="457.66" y="314.19" width="9.43" height="3.22" rx="1.61"/><path class="cls-16" d="M460.77,322.25h-6.21a1.62,1.62,0,0,1-1.61-1.61h0a1.61,1.61,0,0,1,1.61-1.61h6.21a1.61,1.61,0,0,1,1.61,1.61h0A1.62,1.62,0,0,1,460.77,322.25Z"/><path class="cls-16" d="M472.19,322.25H466a1.62,1.62,0,0,1-1.61-1.61h0A1.61,1.61,0,0,1,466,319h6.21a1.61,1.61,0,0,1,1.61,1.61h0A1.62,1.62,0,0,1,472.19,322.25Z"/></g><g class="cls-24"><path class="cls-16" d="M555.3,251.38h-6.21a1.61,1.61,0,0,1-1.61-1.61h0a1.61,1.61,0,0,1,1.61-1.61h6.21a1.61,1.61,0,0,1,1.61,1.61h0A1.61,1.61,0,0,1,555.3,251.38Z"/><path class="cls-16" d="M550.58,256.21h-6.21a1.61,1.61,0,0,1-1.61-1.61h0a1.61,1.61,0,0,1,1.61-1.61h6.21a1.61,1.61,0,0,1,1.61,1.61h0A1.61,1.61,0,0,1,550.58,256.21Z"/><path class="cls-16" d="M562,256.21h-6.21a1.61,1.61,0,0,1-1.61-1.61h0a1.61,1.61,0,0,1,1.61-1.61H562a1.61,1.61,0,0,1,1.61,1.61h0A1.61,1.61,0,0,1,562,256.21Z"/></g><g class="cls-24"><path class="cls-16" d="M173.71,302.3H167.5a1.62,1.62,0,0,1-1.61-1.61h0a1.62,1.62,0,0,1,1.61-1.61h6.21a1.61,1.61,0,0,1,1.61,1.61h0A1.62,1.62,0,0,1,173.71,302.3Z"/><path class="cls-16" d="M171,307.13h-6.21a1.61,1.61,0,0,1-1.61-1.61h0a1.61,1.61,0,0,1,1.61-1.61H171a1.61,1.61,0,0,1,1.61,1.61h0A1.61,1.61,0,0,1,171,307.13Z"/></g><g class="cls-24"><path class="cls-16" d="M150.87,197.75h-6.21a1.61,1.61,0,0,1-1.61-1.61h0a1.61,1.61,0,0,1,1.61-1.61h6.21a1.61,1.61,0,0,1,1.61,1.61h0A1.61,1.61,0,0,1,150.87,197.75Z"/><path class="cls-16" d="M148.16,202.58H142a1.61,1.61,0,0,1-1.61-1.61h0a1.61,1.61,0,0,1,1.61-1.61h6.21a1.61,1.61,0,0,1,1.61,1.61h0A1.61,1.61,0,0,1,148.16,202.58Z"/></g><g class="cls-24"><path class="cls-16" d="M173.71,188.36H167.5a1.62,1.62,0,0,1-1.61-1.61h0a1.62,1.62,0,0,1,1.61-1.61h6.21a1.61,1.61,0,0,1,1.61,1.61h0A1.61,1.61,0,0,1,173.71,188.36Z"/><path class="cls-16" d="M171,193.2h-6.21a1.62,1.62,0,0,1-1.61-1.61h0a1.61,1.61,0,0,1,1.61-1.61H171a1.61,1.61,0,0,1,1.61,1.61h0A1.62,1.62,0,0,1,171,193.2Z"/></g><g class="cls-24"><path class="cls-16" d="M157.86,251.38h-6.2a1.61,1.61,0,0,1-1.61-1.61h0a1.61,1.61,0,0,1,1.61-1.61h6.2a1.61,1.61,0,0,1,1.61,1.61h0A1.61,1.61,0,0,1,157.86,251.38Z"/><path class="cls-16" d="M153.15,256.21h-6.21a1.61,1.61,0,0,1-1.61-1.61h0a1.61,1.61,0,0,1,1.61-1.61h6.21a1.61,1.61,0,0,1,1.61,1.61h0A1.61,1.61,0,0,1,153.15,256.21Z"/><path class="cls-16" d="M164.57,256.21h-6.21a1.61,1.61,0,0,1-1.61-1.61h0a1.61,1.61,0,0,1,1.61-1.61h6.21a1.61,1.61,0,0,1,1.61,1.61h0A1.61,1.61,0,0,1,164.57,256.21Z"/></g><g class="cls-24"><path class="cls-16" d="M209.1,299.08h-6.21a1.61,1.61,0,0,1-1.61-1.61h0a1.61,1.61,0,0,1,1.61-1.61h6.21a1.61,1.61,0,0,1,1.61,1.61h0A1.61,1.61,0,0,1,209.1,299.08Z"/><path class="cls-16" d="M204.39,303.91h-6.21a1.61,1.61,0,0,1-1.61-1.61h0a1.61,1.61,0,0,1,1.61-1.61h6.21A1.61,1.61,0,0,1,206,302.3h0A1.61,1.61,0,0,1,204.39,303.91Z"/><path class="cls-16" d="M215.81,303.91H209.6A1.61,1.61,0,0,1,208,302.3h0a1.61,1.61,0,0,1,1.61-1.61h6.21a1.61,1.61,0,0,1,1.61,1.61h0A1.61,1.61,0,0,1,215.81,303.91Z"/></g><rect class="cls-23" x="415.22" y="378.04" width="41.45" height="1.31"/><text class="cls-25" transform="translate(287.51 185.35)">H<tspan class="cls-26" x="24.91" y="0">O</tspan><tspan class="cls-27" x="50.26" y="0">TEL</tspan></text><text class="cls-28" transform="translate(287.51 182.59)">H<tspan class="cls-26" x="24.91" y="0">O</tspan><tspan class="cls-27" x="50.26" y="0">TEL</tspan></text><path class="cls-7" d="M630.5,385.68h-548a3.13,3.13,0,0,1-3.13-3.13h0a3.14,3.14,0,0,1,3.13-3.14h548a3.14,3.14,0,0,1,3.13,3.14h0A3.13,3.13,0,0,1,630.5,385.68Z"/><path class="cls-7" d="M56.94,385.68H22.53a3.13,3.13,0,0,1-3.13-3.13h0a3.14,3.14,0,0,1,3.13-3.14H56.94a3.14,3.14,0,0,1,3.13,3.14h0A3.13,3.13,0,0,1,56.94,385.68Z"/><path class="cls-29" d="M683.47,385.5l-19.89,61.74v41.82H568.67V465.84A26.64,26.64,0,0,0,564.08,451l-.05-.06c-11.73-17.42-22.6-45.44-27.86-65.37l15.88,3.25-.41-77.54-42-37.66a12,12,0,0,1,16-17.94l84,75L621,340.8l34.77,17.26a238.4,238.4,0,0,1-4.17-60,69.8,69.8,0,0,1,2.34-15.21c1.42-5.09,3.22-9.13,5.47-12,5.21-6.53,15.78-2.74,15.78,5.62v10.86a101.66,101.66,0,0,0,1.87,19.38l8.51,43.59A70.42,70.42,0,0,1,683.47,385.5Z"/><path class="cls-30" d="M685.57,350.33l-8.51-43.59a101.66,101.66,0,0,1-1.87-19.38V276.55c0-8.38-10.61-12.19-15.81-5.62-2.24,2.82-4,6.85-5.44,11.91a69.8,69.8,0,0,0-2.34,15.21c-1.06,21.49,1.59,44.47,1.59,44.47l-108.6,39s8.89,32.33,30.84,54.91a35.55,35.55,0,0,1,10.22,24.73v27.49c0,.14,14.17.27,14.17.41h63.76V447.24l19.89-61.74A70.42,70.42,0,0,0,685.57,350.33Z"/><path class="cls-9" d="M656,219.11V402.68a6.62,6.62,0,0,1-6.62,6.63H558.1a6.63,6.63,0,0,1-6.63-6.63V218.17a6.63,6.63,0,0,1,6.63-6.63h90.34A7.57,7.57,0,0,1,656,219.11Z"/><rect class="cls-20" x="561.96" y="227.02" width="84.62" height="155.49"/><g class="cls-31"><rect class="cls-32" x="608.16" y="294.64" width="6.83" height="139.87" transform="translate(776.91 -327.96) rotate(72.63)"/><rect class="cls-32" x="608.16" y="199.28" width="6.83" height="139.87" transform="translate(685.9 -394.85) rotate(72.63)"/><rect class="cls-32" x="628.61" y="201.51" width="6.32" height="204.42" transform="translate(1325.4 404.94) rotate(162.63)"/><rect class="cls-32" x="564.61" y="206.92" width="6.65" height="200.98" transform="translate(1201.75 431.22) rotate(162.63)"/><rect class="cls-33" x="588.05" y="296.74" width="37.13" height="49.82" transform="translate(-68.37 195.81) rotate(-17.37)"/><rect class="cls-33" x="632.01" y="265.61" width="37.13" height="24.01" transform="translate(-53.22 206.92) rotate(-17.37)"/><rect class="cls-33" x="641.1" y="294.66" width="37.13" height="24.01" transform="translate(-61.47 210.96) rotate(-17.37)"/><rect class="cls-33" x="559.73" y="246.95" width="30.32" height="25.72" transform="translate(-51.35 183.51) rotate(-17.37)"/><rect class="cls-33" x="592.97" y="238.71" width="12.89" height="25.72" transform="translate(-47.77 190.46) rotate(-17.37)"/></g><path class="cls-13" d="M619.51,296.55c0,6.19-8.59,22.55-12.59,29.85a2.3,2.3,0,0,1-4,0c-4-7.3-12.6-23.66-12.6-29.85a14.61,14.61,0,1,1,29.22,0Z"/><path class="cls-20" d="M611,295.82a6.08,6.08,0,1,1-6.08-6.08A6.08,6.08,0,0,1,611,295.82Z"/><polygon class="cls-34" points="561.96 382.51 607.4 299.01 646.58 227.02 561.96 227.02 561.96 382.51"/><circle class="cls-35" cx="604.27" cy="395.39" r="8.11"/><path class="cls-33" d="M625.15,222H583.84a2.56,2.56,0,0,1-2.56-2.56h0a2.56,2.56,0,0,1,2.56-2.56h41.31a2.56,2.56,0,0,1,2.56,2.56h0A2.56,2.56,0,0,1,625.15,222Z"/><rect class="cls-36" x="570.36" y="334.1" width="69.08" height="16.62" rx="2.45"/><rect class="cls-13" x="570.36" y="334.1" width="68.79" height="15.91" rx="2.39"/><text class="cls-37" transform="translate(573.35 344.98)">FIND A H<tspan class="cls-38" x="31.48" y="0">O</tspan><tspan x="37.07" y="0">TEL</tspan></text><path class="cls-39" d="M576.46,396.35l-25-2.29V342.11l27.68,12.62a11,11,0,0,1,3.88,17l-.19.22.55.27C596,378.55,590.5,397.63,576.46,396.35Z"/><path class="cls-29" d="M592.61,384a11,11,0,0,1-10.9,9.83,11.27,11.27,0,0,1-1.16-.06L547,390.26l-3.22-.34A11,11,0,0,1,545,368a11.22,11.22,0,0,1,1.15.06L582.84,372A11,11,0,0,1,592.61,384Z"/><path class="cls-29" d="M584.42,363.51A12,12,0,0,1,568,372.73l-37.39-15.36a12,12,0,0,1,9.12-22.2l37.39,15.36A12,12,0,0,1,584.42,363.51Z"/><path class="cls-29" d="M549.73,337.45l-20-6.33a12,12,0,0,1-7.82-15.07h0A12,12,0,0,1,537,308.24l20,6.33a12,12,0,0,1,7.81,15.07h0A12,12,0,0,1,549.73,337.45Z"/><path class="cls-20" d="M132,226.26l-12.08,4.67v6.22a7.42,7.42,0,0,1-7.42,7.42H76a6.92,6.92,0,0,1-1.77-.22,7.41,7.41,0,0,1-5.65-7.2V215.84A7.43,7.43,0,0,1,76,208.41h36.49a7.43,7.43,0,0,1,7.42,7.43V222Z"/><path class="cls-39" d="M111.57,208.41,74.25,244.35a7.41,7.41,0,0,1-5.65-7.2V215.84A7.43,7.43,0,0,1,76,208.41Z"/><polygon class="cls-19" points="79.91 226.49 81.44 229.6 84.88 230.1 82.39 232.53 82.98 235.94 79.91 234.33 76.83 235.94 77.42 232.53 74.94 230.1 78.37 229.6 79.91 226.49"/><polygon class="cls-19" points="94.41 226.49 95.95 229.6 99.38 230.1 96.9 232.53 97.48 235.94 94.41 234.33 91.34 235.94 91.93 232.53 89.44 230.1 92.88 229.6 94.41 226.49"/><polygon class="cls-19" points="87.4 214.6 88.93 217.71 92.37 218.21 89.88 220.63 90.47 224.06 87.4 222.44 84.33 224.06 84.91 220.63 82.43 218.21 85.86 217.71 87.4 214.6"/><polygon class="cls-19" points="102.14 214.6 103.68 217.71 107.11 218.21 104.63 220.63 105.21 224.06 102.14 222.44 99.07 224.06 99.66 220.63 97.17 218.21 100.61 217.71 102.14 214.6"/><polygon class="cls-19" points="108.92 226.49 110.45 229.6 113.89 230.1 111.4 232.53 111.99 235.94 108.92 234.33 105.85 235.94 106.43 232.53 103.95 230.1 107.38 229.6 108.92 226.49"/><path class="cls-20" d="M129.1,279.68,120.44,283v9.64a5.3,5.3,0,0,1-5.3,5.3H99.91a5.29,5.29,0,0,1-4.59-2.64,5.21,5.21,0,0,1-.71-2.66V266.59a5.3,5.3,0,0,1,5.3-5.31h15.23a5.29,5.29,0,0,1,5.3,5.31v10Z"/><path class="cls-40" d="M114.63,276.63a4.41,4.41,0,0,0-3.45-3.51,4.35,4.35,0,0,0-4.18,1.46,4.34,4.34,0,0,0-3.76-1.52,4.41,4.41,0,0,0-3.89,3.77,4.32,4.32,0,0,0,.72,3c.23.35,4.35,5,6.11,7a1.05,1.05,0,0,0,1.58,0c1.81-2,6.06-6.78,6.33-7.24A4.37,4.37,0,0,0,114.63,276.63Z"/><path class="cls-39" d="M119.4,263.42l-24.08,31.9a5.21,5.21,0,0,1-.71-2.66V266.59a5.3,5.3,0,0,1,5.3-5.31h15.23A5.31,5.31,0,0,1,119.4,263.42Z"/></g></g></g></svg>