<?xml version="1.0"?>
<svg xmlns="http://www.w3.org/2000/svg" id="Layer_1" enable-background="new 0 0 512 512" height="512px" viewBox="0 0 512 512" width="512px"><g><g><path d="m214.1 237.8h35.9v-15c-11.2-.7-22.2-3.6-32.3-8.3-2.1 7.7-3.3 15.5-3.6 23.3z" data-original="#000000" class="active-path" data-old_color="#000000" fill="#FFFFFF"/><path d="m250 210.8v-42.3c-12.6 7.8-22.3 19.8-28.4 34.5 8.9 4.5 18.5 7.1 28.4 7.8z" data-original="#000000" class="active-path" data-old_color="#000000" fill="#FFFFFF"/><path d="m311.2 188.4c-7.9-7.8-17.3-13.9-27.8-17.8 7.4 7.7 13.3 16.7 17.5 26.5 3.7-2.6 7.1-5.5 10.3-8.7z" data-original="#000000" class="active-path" data-old_color="#000000" fill="#FFFFFF"/><path d="m290.5 284.5c-8.9-4.4-18.6-7-28.5-7.7v42.3c12.6-7.8 22.3-19.8 28.5-34.6z" data-original="#000000" class="active-path" data-old_color="#000000" fill="#FFFFFF"/><path d="m217.7 273.1c10.2-4.8 21.1-7.6 32.3-8.3v-15h-35.9c.3 7.9 1.5 15.7 3.6 23.3z" data-original="#000000" class="active-path" data-old_color="#000000" fill="#FFFFFF"/><path d="m262 168.6v42.3c9.9-.7 19.6-3.3 28.5-7.7-6.2-14.8-15.9-26.8-28.5-34.6z" data-original="#000000" class="active-path" data-old_color="#000000" fill="#FFFFFF"/><path d="m297.9 249.8h-35.9v14.9c11.2.7 22.2 3.5 32.4 8.3 2-7.5 3.2-15.3 3.5-23.2z" data-original="#000000" class="active-path" data-old_color="#000000" fill="#FFFFFF"/><path d="m283.4 317.1c10.4-3.9 19.9-10 27.8-17.8-3.2-3.2-6.6-6.1-10.3-8.6-4.2 9.8-10.1 18.7-17.5 26.4z" data-original="#000000" class="active-path" data-old_color="#000000" fill="#FFFFFF"/><path d="m294.4 214.6c-10.2 4.8-21.2 7.6-32.4 8.3v14.9h35.9c-.3-7.8-1.5-15.6-3.5-23.2z" data-original="#000000" class="active-path" data-old_color="#000000" fill="#FFFFFF"/><path d="m228.6 170.6c-10.4 3.9-19.9 10-27.7 17.8 3.2 3.2 6.6 6 10.3 8.6 4.1-9.8 10-18.8 17.4-26.4z" data-original="#000000" class="active-path" data-old_color="#000000" fill="#FFFFFF"/><path d="m350.1 24-186 55.2h186z" data-original="#000000" class="active-path" data-old_color="#000000" fill="#FFFFFF"/><path d="m206.9 279.1c-2.8-9.5-4.4-19.4-4.8-29.3h-24.1c1.1 14.6 6.3 28.6 15 40.4 4.3-4.1 8.9-7.9 13.9-11.1z" data-original="#000000" class="active-path" data-old_color="#000000" fill="#FFFFFF"/><path d="m200.9 299.3c7.9 7.8 17.3 13.9 27.7 17.8-7.4-7.7-13.3-16.6-17.5-26.4-3.6 2.6-7.1 5.5-10.2 8.6z" data-original="#000000" class="active-path" data-old_color="#000000" fill="#FFFFFF"/><path d="m206.9 208.6c-5-3.2-9.6-6.9-13.9-11.1-8.7 11.8-13.9 25.8-15 40.4h24.1c.4-10 2-19.8 4.8-29.3z" data-original="#000000" class="active-path" data-old_color="#000000" fill="#FFFFFF"/><path d="m250 319.1v-42.3c-9.9.7-19.5 3.4-28.4 7.7 6.1 14.8 15.8 26.8 28.4 34.6z" data-original="#000000" class="active-path" data-old_color="#000000" fill="#FFFFFF"/><path d="m389 91.2h-265.4l-6.1 1.8-.1-.3c-3.4 2-5.5 5.6-5.5 9.6v376.6c0 6.1 5 11.1 11.1 11.1h266c6.1 0 11.1-5 11.1-11.1v-376.6c0-6.1-5-11.1-11.1-11.1zm-133 62.4c49.8 0 90.3 40.4 90.3 90.3 0 49.8-40.4 90.3-90.3 90.3-49.8-.1-90.2-40.4-90.3-90.3 0-49.9 40.5-90.3 90.3-90.3zm39.5 276.4h-79c-3.3 0-6-2.7-6-6s2.7-6 6-6h79c3.3 0 6 2.7 6 6s-2.7 6-6 6zm47-40.3h-173c-3.3 0-6-2.7-6-6s2.7-6 6-6h173c3.3 0 6 2.7 6 6s-2.7 6-6 6z" data-original="#000000" class="active-path" data-old_color="#000000" fill="#FFFFFF"/><path d="m305.1 279c5 3.2 9.6 7 13.9 11.1 8.7-11.8 13.9-25.7 15-40.3h-24.1c-.4 9.9-2 19.7-4.8 29.2z" data-original="#000000" class="active-path" data-old_color="#000000" fill="#FFFFFF"/><path d="m309.9 237.8h24.1c-1.1-14.6-6.3-28.6-15-40.3-4.2 4.2-8.9 7.9-13.9 11.1 2.8 9.5 4.4 19.4 4.8 29.2z" data-original="#000000" class="active-path" data-old_color="#000000" fill="#FFFFFF"/></g></g> </svg>
