<?xml version="1.0"?>
<svg xmlns="http://www.w3.org/2000/svg" id="Layer_1" height="512px" viewBox="0 0 512 512" width="512px" data-name="Layer 1"><g><path d="m182 236v44h148v-44a26.029 26.029 0 0 1 26-26h4v-144a34.047 34.047 0 0 0 -28-33.459v123.459a26.029 26.029 0 0 1 -26 26h-100a26.03 26.03 0 0 1 -26-26v-123.459a34.047 34.047 0 0 0 -28 33.459v144h4a26.03 26.03 0 0 1 26 26z" data-original="#000000" class="active-path" data-old_color="#000000" fill="#E3E9ED"/><path d="m206 170h100a14.015 14.015 0 0 0 14-14v-124h-128v124a14.015 14.015 0 0 0 14 14zm78.915-34.652a7.652 7.652 0 1 1 -7.652 7.652 7.66 7.66 0 0 1 7.652-7.652zm-28.915 0a7.652 7.652 0 1 1 -7.652 7.652 7.66 7.66 0 0 1 7.652-7.652zm-28.916 0a7.652 7.652 0 1 1 -7.652 7.652 7.661 7.661 0 0 1 7.652-7.652z" data-original="#000000" class="active-path" data-old_color="#000000" fill="#E3E9ED"/><path d="m182 292h148v28h-148z" data-original="#000000" class="active-path" data-old_color="#000000" fill="#E3E9ED"/><path d="m126 440h260a14.015 14.015 0 0 0 14-14v-190a14.015 14.015 0 0 0 -14-14h-30a14.015 14.015 0 0 0 -14 14v90a6 6 0 0 1 -6 6h-160a6 6 0 0 1 -6-6v-90a14.015 14.015 0 0 0 -14-14h-30a14.015 14.015 0 0 0 -14 14v190a14.015 14.015 0 0 0 14 14zm90-40.62h80a6 6 0 0 1 0 12h-80a6 6 0 0 1 0-12z" data-original="#000000" class="active-path" data-old_color="#000000" fill="#E3E9ED"/><path d="m182 452v28h-56a6 6 0 0 0 0 12h260a6 6 0 0 0 0-12h-56v-28z" data-original="#000000" class="active-path" data-old_color="#000000" fill="#E3E9ED"/></g> </svg>
