<?xml version="1.0"?>
<svg xmlns="http://www.w3.org/2000/svg" id="Layer_1" enable-background="new 0 0 512.088 512.088" height="512px" viewBox="0 0 512.088 512.088" width="512px"><g><path d="m348.714 135.752h-37.668v-105.752h17.998v-30h-146v30h17.998v105.752h-37.668c-23.345 0-42.337 18.993-42.337 42.337v270.328c0 23.345 18.992 42.337 42.337 42.337h17.667v21.333h30v-21.333h90.008v21.333h30v-21.333h17.667c23.345 0 42.337-18.993 42.337-42.337v-270.328c-.002-23.344-18.994-42.337-42.339-42.337zm-137.674 286.336h-30v-217.669h30zm60.004 0h-30v-217.669h30zm10.002-286.336h-50.005v-105.752h50.005zm50.002 286.336h-30v-217.669h30z" data-original="#000000" class="active-path" data-old_color="#000000" fill="#FFFFFF"/></g> </svg>
