<?xml version="1.0"?>
<svg xmlns="http://www.w3.org/2000/svg" id="Capa_1" enable-background="new 0 0 512 512" height="512px" viewBox="0 0 512 512" width="512px" class="hovered-paths"><g><g id="XMLID_1402_"><g id="XMLID_940_"><path id="XMLID_1180_" d="m512 246.333c0-14.424-5.617-27.984-15.816-38.184l-192.333-192.333c-10.199-10.199-23.76-15.816-38.184-15.816s-27.985 5.617-38.184 15.816l-106.183 106.184h-67.3c-29.776 0-54 24.225-54 54v282c0 29.775 24.224 54 54 54h272c29.776 0 54-24.225 54-54v-57.299l116.184-116.185c10.199-10.199 15.816-23.759 15.816-38.183zm-186 245.667h-272c-18.748 0-34-15.252-34-34v-282c0-18.748 15.252-34 34-34h272c18.748 0 34 15.252 34 34v282c0 18.748-15.252 34-34 34zm54-309.525 63.858 63.858-63.858 63.857zm-168.19-60.475 53.857-53.857 53.857 53.857zm270.232 148.374-102.042 102.042v-33.94l85.071-85.071c3.905-3.905 3.905-10.237 0-14.143l-192.333-192.333c-3.905-3.904-10.237-3.904-14.143 0l-75.071 75.071h-33.94l92.041-92.041c6.422-6.422 14.96-9.959 24.042-9.959 9.081 0 17.62 3.537 24.041 9.959l192.334 192.333c6.421 6.421 9.958 14.959 9.958 24.041s-3.537 17.62-9.958 24.041z" data-original="#000000" class="hovered-path active-path" data-old_color="#000000" fill="#FFFFFF"/><path id="XMLID_1239_" d="m218.923 334.23c3.905-3.905 3.905-10.237 0-14.143-3.905-3.904-10.237-3.904-14.143 0-3.948 3.948-9.197 6.122-14.781 6.122s-10.833-2.174-14.781-6.122c-3.905-3.904-10.237-3.904-14.143 0-3.905 3.905-3.905 10.237 0 14.143 7.974 7.974 18.449 11.961 28.923 11.961 10.477 0 20.951-3.987 28.925-11.961z" data-original="#000000" class="hovered-path active-path" data-old_color="#000000" fill="#FFFFFF"/><path id="XMLID_1240_" d="m165.94 293.069c1.86-1.859 2.93-4.439 2.93-7.069s-1.07-5.21-2.93-7.07-4.44-2.93-7.07-2.93c-2.64 0-5.21 1.069-7.07 2.93-1.87 1.86-2.93 4.44-2.93 7.07s1.06 5.21 2.93 7.069c1.86 1.86 4.43 2.931 7.07 2.931 2.63 0 5.21-1.07 7.07-2.931z" data-original="#000000" class="hovered-path active-path" data-old_color="#000000" fill="#FFFFFF"/><path id="XMLID_1242_" d="m221.13 296c2.64 0 5.21-1.07 7.08-2.931 1.86-1.859 2.92-4.439 2.92-7.069s-1.06-5.21-2.92-7.07c-1.87-1.86-4.44-2.93-7.08-2.93-2.63 0-5.21 1.069-7.07 2.93-1.86 1.86-2.93 4.44-2.93 7.07s1.07 5.21 2.93 7.069c1.86 1.861 4.44 2.931 7.07 2.931z" data-original="#000000" class="hovered-path active-path" data-old_color="#000000" fill="#FFFFFF"/><path id="XMLID_1262_" d="m280 300c0-49.626-40.374-90-90-90s-90 40.374-90 90 40.374 90 90 90 90-40.374 90-90zm-160 0c0-38.598 31.402-70 70-70s70 31.402 70 70-31.402 70-70 70-70-31.402-70-70z" data-original="#000000" class="hovered-path active-path" data-old_color="#000000" fill="#FFFFFF"/><path id="XMLID_1265_" d="m326 166h-272c-5.523 0-10 4.477-10 10v248c0 5.522 4.477 10 10 10h91c5.523 0 10-4.478 10-10s-4.477-10-10-10h-81v-228h252v228h-81.001c-5.523 0-10 4.478-10 10s4.477 10 10 10h91.001c5.523 0 10-4.478 10-10v-248c0-5.523-4.477-10-10-10z" data-original="#000000" class="hovered-path active-path" data-old_color="#000000" fill="#FFFFFF"/><path id="XMLID_1266_" d="m190 414c-2.63 0-5.21 1.069-7.07 2.93-1.86 1.86-2.93 4.44-2.93 7.07s1.07 5.21 2.93 7.069c1.86 1.86 4.44 2.931 7.07 2.931s5.21-1.07 7.07-2.931c1.86-1.859 2.93-4.439 2.93-7.069s-1.07-5.21-2.93-7.07c-1.86-1.861-4.44-2.93-7.07-2.93z" data-original="#000000" class="hovered-path active-path" data-old_color="#000000" fill="#FFFFFF"/></g></g></g> </svg>
